SplineFontDB: 3.2
FontName: BambooBrisk-Regular
FullName: Bamboo Brisk Regular
FamilyName: Bamboo Brisk
Weight: Roman
Copyright: Skyhaven
Version: 001.001
ItalicAngle: 0
UnderlinePosition: -100
UnderlineWidth: 50
Ascent: 970
Descent: 30
InvalidEm: 0
sfntRevision: 0x00010000
LayerCount: 2
Layer: 0 0 "Back" 1
Layer: 1 0 "Fore" 0
XUID: [1021 602 1499008354 18571]
StyleMap: 0x0040
FSType: 4
OS2Version: 3
OS2_WeightWidthSlopeOnly: 0
OS2_UseTypoMetrics: 0
CreationTime: 1350504000
ModificationTime: 1592830205
PfmFamily: 81
TTFWeight: 400
TTFWidth: 5
LineGap: 0
VLineGap: 0
Panose: 0 0 0 0 0 0 0 0 0 0
OS2TypoAscent: 970
OS2TypoAOffset: 0
OS2TypoDescent: -30
OS2TypoDOffset: 0
OS2TypoLinegap: 200
OS2WinAscent: 1165
OS2WinAOffset: 0
OS2WinDescent: 35
OS2WinDOffset: 0
HheadAscent: 1070
HheadAOffset: 0
HheadDescent: -130
HheadDOffset: 0
OS2SubXSize: 650
OS2SubYSize: 600
OS2SubXOff: 0
OS2SubYOff: 75
OS2SupXSize: 650
OS2SupYSize: 600
OS2SupXOff: 0
OS2SupYOff: 350
OS2StrikeYSize: 50
OS2StrikeYPos: 483
OS2CapHeight: 818
OS2XHeight: 806
OS2Vendor: 'pyrs'
OS2CodePages: 00000001.00000000
OS2UnicodeRanges: 00000001.00000000.00000000.00000000
DEI: 91125
LangName: 1033 "" "" "" "1.000;pyrs;BambooBrisk-Regular" "BambooBrisk-Regular" "Version 1.000;PS 001.001;hotconv 1.0.56" "" "Skyhaven" "Skyhaven" "+AD0A^_^+AD0A" "" "" "shfonts.com"
Encoding: UnicodeBmp
UnicodeInterp: none
NameList: AGL For New Fonts
DisplaySize: -48
AntiAlias: 1
FitToEm: 0
WinInfo: 0 32 10
BeginPrivate: 6
BlueValues 23 [-15 0 822 822 834 834]
OtherBlues 7 [-7 -7]
StdHW 4 [28]
StdVW 4 [40]
StemSnapH 7 [28 37]
StemSnapV 7 [40 46]
EndPrivate
Grid
-1000 916 m 0
 2000 916 l 1024
59.5 1470 m 0
 59.5 -530 l 1024
-1000 300.286224365 m 0
 2000 300.286224365 l 1024
  Named: "300px"
-1000 599.286224365 m 0
 2000 599.286224365 l 1024
  Named: "600px+AFwA"
-20.5 -530 m 1024
EndSplineSet
BeginChars: 65537 92

StartChar: exclam
Encoding: 33 33 2
Width: 126
Flags: MW
HStem: -12 21G<41 48.5> -12 48<44.5 48.5>
VStem: 45 46<516 519>
LayerCount: 2
Fore
SplineSet
91 17 m 1xa0
 89 11 86 8 86 2 c 1
 73 -4 51 -12 46 -12 c 0
 36 -12 25 2 25 11 c 0
 25 30 34 36 55 36 c 0
 68 36 71 39 91 17 c 1xa0
102 669 m 4
 102 665 93 630 92 615 c 4
 90 591 91 544 91 539 c 6
 91 465 l 6
 91 461 84 430 81 408 c 5
 81 408 82 406 82 404 c 4
 82 399 79 390 79 384 c 4
 78 377 82 367 81 360 c 4
 82 358 82 354 82 352 c 4
 81 345 78 348 78 348 c 6
 78 343 82 340 83 339 c 4
 84 331 81 322 81 315 c 4
 78 308 84 300 86 293 c 4
 84 232 84 230 86 228 c 4
 84 225 82 220 81 217 c 4
 80 215 82 214 83 213 c 4
 82 199 81 182 81 169 c 4
 81 154 84 136 83 122 c 4
 83 119 76 113 74 107 c 5
 43 112 30 109 30 139 c 4
 30 143 34 149 37 153 c 4
 38 156 34 161 33 165 c 4
 32 167 34 169 32 200 c 4
 33 232 37 231 39 247 c 4
 39 252 35 259 35 267 c 4
 35 277 38 289 37 300 c 4
 38 302 30 301 30 306 c 4
 30 310 36 313 34 315 c 4
 34 322 31 331 39 336 c 5
 39 336 38 337 36 337 c 5
 36 339 34 343 34 344 c 4
 38 351 41 361 41 367 c 4
 40 377 39 384 36 395 c 6
 36 423 l 5
 40 436 42 463 42 483 c 5
 42 483 41 485 40 486 c 4
 42 489 39 495 40 500 c 4
 41 507 45 513 45 519 c 4
 47 527 42 540 44 549 c 4
 46 558 48 568 48 578 c 5
 48 578 47 580 45 581 c 4
 45 596 47 616 50 633 c 4
 52 637 55 646 55 652 c 4
 55 664 53 678 53 691 c 4
 53 695 56 701 55 706 c 4
 54 717 54 730 51 743 c 4
 51 744 52 749 55 752 c 5
 52 758 55 775 71 775 c 4
 75 775 88 765 94 759 c 4
 103 750 96 736 95 722 c 4
 95 709 97 697 99 684 c 4
 99 680 102 674 102 669 c 4
EndSplineSet
Validated: 33
EndChar

StartChar: quotedbl
Encoding: 34 34 3
Width: 213
Flags: HMW
HStem: 707 190<56 153>
VStem: 31 52<785.5 837> 129 49
LayerCount: 2
Fore
SplineSet
89 834 m 2
 89 822 l 1
 89 822 87 824 85 824 c 1
 85 812 82 797 80 784 c 1
 85 778 83 776 82 770 c 0
 81 764 83 753 79 744 c 0
 78 741 75 737 75 734 c 0
 75 728 85 694 64 694 c 0
 52 694 28 709 28 726 c 0
 28 730 30 734 30 737 c 0
 30 739 30 743 34 745 c 1
 34 745 32 746 30 746 c 1
 32 755 33 767 33 778 c 0
 33 787 30 804 35 813 c 1
 30 816 33 834 32 841 c 0
 32 843 30 842 30 846 c 0
 30 861 25 870 48 870 c 0
 62 870 89 857 89 834 c 2
187 847 m 0
 187 843 185 846 185 844 c 0
 182 833 181 815 180 806 c 0
 180 801 177 795 179 789 c 0
 179 786 181 782 183 778 c 0
 184 775 184 768 183 763 c 0
 178 745 185 721 177 706 c 0
 172 703 162 699 159 699 c 0
 144 699 132 725 139 732 c 1
 127 737 131 774 135 781 c 1
 132 787 126 798 126 802 c 0
 126 806 130 815 130 828 c 0
 130 841 130 860 131 877 c 1
 136 880 142 884 147 884 c 0
 163 884 187 872 185 852 c 0
 185 850 187 852 187 847 c 0
EndSplineSet
Validated: 33
EndChar

StartChar: comma
Encoding: 44 44 12
Width: 117
Flags: HMW
HStem: -148 209
VStem: -19 120 45 56<23 38.5>
LayerCount: 2
Fore
SplineSet
111 125 m 0xc0
 111 120 105 113 99 105 c 1
 95 79 83.2109375 79.0546875 78 53 c 0
 77 48 73.0791015625 47.716796875 71 42 c 0
 67 31 65 21 58 10 c 0
 57 3 47 -10 39 -21 c 1
 37 -19 37 -18 32 -18 c 0
 28 -18 30 -19 25 -19 c 0
 21 -19 12 -10 5 -4 c 0
 5 -3 5 -2 5 3 c 0
 5 7 6 14 13 16 c 1
 11 18 9.0546875 21.9736328125 10 24 c 0
 17 39 17 46 25 59 c 1
 23 68 31.228515625 74.8427734375 36 82 c 0
 38 85 39 93 46 102 c 0
 46 104 44 107 44 107 c 1
 47 108 52 117 55 122 c 0
 55 124 52.3759765625 128.209960938 54 132 c 0
 57 139 60.48828125 147.744140625 67 151 c 0
 69 152 70 156 75 156 c 0
 79 156 79 154 80 153 c 0
 90 157 111 142 111 125 c 0xc0
EndSplineSet
Validated: 33
EndChar

StartChar: hyphen
Encoding: 45 45 13
Width: 262
Flags: W
HStem: 426 29<28.2802 117.274> 433 21<125.244 216.729> 437 26<153.732 213.815 214 239.239>
LayerCount: 2
Fore
SplineSet
29 460 m 1x80
 17.5458984375 443.684570312 29 437 38 434 c 0
 50.1494140625 429.950195312 73 426 77 426 c 0x80
 82 426 106 431 110 431 c 0
 114 431 118 430 122 430 c 0
 127 430 132 433 136 433 c 0
 141 433 150 430 154 430 c 0
 158 430 183 433 187 433 c 0x40
 192 433 187 437 192 437 c 0x20
 196 437 208 433 213 433 c 0x40
 218 433 223 439 229 443 c 0
 233 442 239 443 243 445 c 1
 241 450 234 454 231 457 c 0
 227 457 219 457 214 457 c 0
 210 457 209 463 205 463 c 0x20
 200 463 158 454 153 454 c 0x40
 148 454 130 463 125 463 c 0x20
 120 463 93 455 88 455 c 0
 83 455 36 459 29 460 c 1x80
EndSplineSet
Validated: 9
EndChar

StartChar: period
Encoding: 46 46 14
Width: 126
Flags: HMW
HStem: -12 21G<41 48.5> -12 48<44.5 48.5>
VStem: 25 66
LayerCount: 2
Fore
SplineSet
96 27 m 5xa0
 94 21 91 18 91 12 c 5
 78 6 56 -2 51 -2 c 4
 41 -2 30 12 30 21 c 4
 30 40 39 46 60 46 c 4
 73 46 76 49 96 27 c 5xa0
EndSplineSet
Validated: 33
EndChar

StartChar: zero
Encoding: 48 48 16
Width: 370
Flags: MW
HStem: -5 37<174.5 187.5> -3 39<145.5 170.5> 727 40<217 254.5>
VStem: 31 40<236.5 305> 295 43 304 51<586.5 593.5>
LayerCount: 2
Fore
SplineSet
309 576 m 1x58
 303 578 304 584 304 589 c 0
 304 598 303 608 306 615 c 1
 302 620 302 626 299 630 c 1
 302 633 301 639 300 643 c 0
 299 650 299 659 297 665 c 0
 283 706 262 727 219 727 c 0
 215 727 197 722 188 720 c 0
 179 719 162 711 158 707 c 0
 149 701 143 691 136 686 c 0
 135 684 135 682 134 680 c 0
 106 655 102 599 92 566 c 1
 92 547 93 538 93 528 c 0
 92 502 88 474 84 452 c 0
 83 449 79 446 80 444 c 0
 83 430 80 424 80 405 c 0
 79 363 66 279 66 275 c 0
 66 270 71 254 71 243 c 0
 71 230 70 212 72 205 c 0
 72 199 74 187 72 181 c 0
 74 178 77 170 79 164 c 0
 80 160 79 151 81 146 c 0
 88 120 101 87 110 68 c 0
 113 61 124 54 126 48 c 0
 130 46 134 45 135 45 c 0
 149 36 156 36 168 36 c 0
 173 36 172 32 177 32 c 0
 181 32 201 34 205 34 c 0
 210 34 207 38 212 38 c 0
 220 38 219 37 222 43 c 0
 223 44 225 44 227 44 c 0
 230 48 234 56 239 60 c 0
 243 65 251 66 253 70 c 0
 261 90 268 120 273 131 c 0
 281 147 286 170 287 192 c 0
 288 206 295 221 295 229 c 0
 296 231 298 235 300 235 c 1
 298 237 296 239 295 241 c 0
 294 250 295 259 296 268 c 0
 298 270 302 270 302 275 c 0x94
 302 280 298 286 297 290 c 0
 296 291 294 293 292 295 c 0
 298 308 297 329 298 336 c 0
 298 339 296 343 295 344 c 0
 300 365 300 397 303 428 c 0
 302 430 301 432 301 432 c 1
 300 445 302 457 301 470 c 0
 300 478 298 486 298 491 c 0
 298 502 299 512 300 520 c 0
 302 537 308 556 303 572 c 0
 305 574 307 574 309 576 c 1x58
355 604 m 2
 355 529 l 2
 355 525 352 478 350 452 c 1
 343 425 348 399 345 376 c 0x94
 344 374 342 374 341 372 c 0
 347 361 342 337 342 326 c 0
 340 304 339 279 339 255 c 0
 336 237 340 223 333 205 c 0
 333 203 336 202 340 200 c 1
 338 197 335 191 334 187 c 0
 333 181 334 170 332 163 c 0
 323 133 324 104 302 73 c 0
 300 71 301 64 299 61 c 0
 292 51 287 50 283 48 c 0
 278 23 242 7 227 4 c 0
 222 3 214 2 208 0 c 0
 201 -2 190 -5 185 -5 c 0
 180 -5 157 -3 153 -3 c 0
 138 -3 125 4 113 11 c 0
 110 14 104 14 99 16 c 0
 96 19 96 24 96 27 c 0
 88 31 76 42 69 51 c 0
 68 53 68 57 68 59 c 0
 51 81 44 118 40 137 c 0
 38 144 32 154 32 161 c 0
 32 168 32 176 32 183 c 0
 32 187 29 191 29 194 c 0x98
 29 198 33 201 33 206 c 0
 33 210 28 215 26 220 c 0xb4
 25 223 26 231 28 233 c 0
 25 243 31 257 31 261 c 2
 31 305 l 2
 28 309 21 309 18 313 c 0
 17 315 15 323 15 328 c 0
 15 332 18 339 22 347 c 0
 26 372 28 398 31 424 c 0
 32 441 39 465 41 481 c 0
 42 497 46 516 44 535 c 0
 41 558 44 557 47 570 c 0
 48 577 46 585 47 593 c 0
 49 603 49 615 52 626 c 0
 53 628 57 630 58 633 c 0
 61 645 65 667 73 681 c 0
 75 684 83 688 84 691 c 0
 86 694 87 700 91 702 c 1
 90 713 113 725 125 733 c 0
 128 734 132 738 132 739 c 0
 146 743 175 758 179 758 c 0
 184 758 179 756 184 756 c 0
 188 756 208 766 221 765 c 0
 251 762 244 767 252 767 c 0
 257 767 260 761 265 761 c 0
 302 760 318 721 336 693 c 0x94
 337 691 335 687 335 685 c 0
 336 681 342 680 343 676 c 0
 345 671 349 654 344 648 c 1
 353 644 351 636 352 629 c 0x74
 349 616 355 608 355 604 c 2
EndSplineSet
Validated: 33
EndChar

StartChar: one
Encoding: 49 49 17
Width: 216
Flags: MW
HStem: -9 21G<145 154>
VStem: 124 50 133 50 144 59
LayerCount: 2
Fore
SplineSet
205 604 m 0xc0
 205 600 203 592 203 587 c 0xa0
 203 583 200 580 199 575 c 0
 197 561 201 544 199 529 c 0
 199 527 199 519 198 514 c 0xc0
 196 509 193 505 190 497 c 0
 189 493 198 480 188 473 c 0
 188 471 190 471 191 471 c 1
 190 457 192 440 192 428 c 0
 189 404 180 377 183 352 c 0
 183 350 183 346 179 342 c 0
 178 338 182 335 182 331 c 0
 182 322 176 313 175 301 c 0
 174 296 180 288 180 283 c 0
 180 276 177 262 175 251 c 0
 174 243 175 228 171 222 c 1
 173 208 176 188 171 173 c 0
 169 169 172 160 172 153 c 0
 172 144 167 135 166 125 c 0
 165 109 167 92 166 75 c 0
 166 69 166 60 166 50 c 0
 166 41 164 28 162 20 c 0
 162 18 167 14 167 11 c 0
 167 1 157 -9 151 -9 c 0
 139 -9 138 -1 124 7 c 1
 117 22 121 45 121 61 c 0
 121 68 116 78 116 83 c 0
 116 87 119 92 122 96 c 0
 121 101 124 107 124 113 c 0
 124 115 120 122 128 128 c 1
 127 140 124 153 124 166 c 0
 124 176 125 190 128 200 c 0
 128 201 126 205 126 209 c 0
 125 220 123 225 131 250 c 1
 128 257 127 266 127 271 c 0
 127 277 134 283 134 288 c 0
 134 292 131 292 129 294 c 0
 129 299 131 307 131 313 c 0
 131 318 127 326 127 331 c 0
 127 336 131 337 131 339 c 0
 132 370 131 393 133 444 c 0
 134 446 134 450 135 452 c 0
 137 487 139 534 144 570 c 0
 145 575 144 582 143 588 c 0
 142 592 144 598 142 604 c 1
 142 604 145 601 145 606 c 0
 145 611 144 610 142 612 c 0
 141 620 145 631 145 640 c 0
 145 644 142 648 140 654 c 1
 132 654 l 2
 125 654 118 639 118 636 c 0
 118 635 119 633 119 631 c 0
 117 626 110 618 104 612 c 1
 104 612 104 610 104 608 c 0
 95 599 94 589 85 581 c 0
 83 579 77 575 74 570 c 0
 72 568 68 567 63 567 c 0xa0
 58 567 47 567 43 567 c 0
 32 567 22 585 23 598 c 1
 46 607 47 629 65 639 c 0
 66 644 68 651 71 659 c 0
 71 661 75 663 77 665 c 0
 79 669 81 675 83 678 c 0
 85 681 93 685 95 689 c 0
 101 706 108 723 118 733 c 1
 124 750 136 772 142 791 c 1x90
 164 807 158 806 172 806 c 0
 180 806 195 785 196 779 c 0
 197 778 197 777 197 773 c 0
 197 768 190 734 190 729 c 0
 190 725 205 609 205 604 c 0xc0
EndSplineSet
Validated: 33
EndChar

StartChar: two
Encoding: 50 50 18
Width: 358
Flags: MW
HStem: -11 39<313 317.5> -7 35<327.5 332.5> -3 39<61 65.5> 1 21G<53 57.5> 115 45<102.5 115.5> 784 42<194 240.5> 801 20G<237.5 242>
VStem: 7 46<65 67 63 74> 55 33<586.5 600 586.5 600> 68 39<696 725> 199 34<268 268> 299 51
LayerCount: 2
Fore
SplineSet
123 107 m 0x1a70
 120 111 118 115 113 115 c 0
 109 115 90 112 82 111 c 0
 80 110 75 108 74 106 c 0
 66 91 53 69 53 65 c 0
 53 61 62 45 62 40 c 0
 62 36 61 36 61 36 c 1
 73 36 l 1
 88 50 108 71 117 85 c 0
 120 89 120 96 118 101 c 0
 120 103 123 106 123 107 c 0x1a70
353 697 m 0
 353 692 349 692 348 690 c 0
 347 686 349 681 350 675 c 0
 349 674 349 672 348 670 c 0
 353 654 347 635 345 622 c 0
 347 616 342 599 337 592 c 1
 335 575 331 556 326 540 c 0
 321 526 320 509 313 492 c 0
 311 486 305 479 304 473 c 0
 301 461 295 449 292 440 c 0
 285 411 275 387 268 366 c 0
 268 364 264 360 263 358 c 0
 262 353 262 344 260 338 c 0
 258 334 255 330 252 325 c 0
 251 322 251 317 250 314 c 0
 250 311 246 308 242 307 c 1
 246 303 l 1
 241 298 238 286 235 279 c 0
 234 279 233 279 231 277 c 0
 231 275 233 273 233 269 c 0
 233 265 225 248 218 238 c 1
 224 227 199 183 193 159 c 0x8a70
 192 154 181 146 181 142 c 0
 181 138 210 94 227 74 c 0
 233 68 254 53 268 42 c 0
 269 41 274 42 277 41 c 0
 284 38 293 34 301 28 c 1
 315 30 325 26 340 28 c 1
 340 26 344 23 344 19 c 0
 344 14 342 16 341 14 c 0
 341 5 336 1 336 -8 c 1
 334 -8 335 -7 330 -7 c 0
 325 -7 320 -11 315 -11 c 0
 311 -11 308 -9 303 -9 c 0x1b70
 299 -9 298 -12 293 -12 c 0
 275 -12 226 14 219 20 c 0
 216 21 214 27 211 30 c 0
 206 34 193 43 191 49 c 0
 177 58 168 73 159 73 c 0x1c70
 154 73 155 73 153 71 c 0
 151 68 152 62 150 59 c 0
 149 54 141 48 137 42 c 0
 137 40 136 36 133 33 c 0
 130 30 125 26 121 22 c 0
 119 20 116 11 110 6 c 0
 105 2 94 -1 90 -1 c 0
 86 -1 81 2 77 2 c 0
 73 2 68 -3 63 -3 c 0
 59 -3 60 1 55 1 c 0
 51 1 45 7 41 9 c 0
 38 11 31 11 28 14 c 0
 22 19 15 26 12 33 c 0
 7 43 7 63 7 67 c 0
 7 81 21 118 24 122 c 0
 28 128 35 138 44 144 c 0
 54 151 71 158 75 158 c 0
 79 158 81 156 86 156 c 0
 90 156 95 160 97 163 c 1
 98 160 100 160 105 160 c 0
 110 160 109 162 113 162 c 0
 118 162 138 152 143 152 c 0
 154 152 158 184 165 192 c 1
 163 201 167 205 171 213 c 0
 173 219 174 229 182 235 c 1
 179 243 191 263 199 268 c 0
 198 272 198 276 196 279 c 0
 208 293 201 312 212 320 c 1
 206 338 228 362 234 379 c 0
 235 381 233 383 231 385 c 1
 234 386 238 392 239 398 c 0
 241 402 240 409 243 415 c 0
 245 420 253 426 253 431 c 0
 253 436 249 442 246 446 c 1
 250 451 258 462 259 472 c 0
 261 489 262 503 272 515 c 0
 271 519 275 527 278 533 c 0
 277 535 276 537 276 537 c 1
 276 537 277 539 278 541 c 0
 279 543 278 546 278 550 c 0x1ab0
 278 557 284 564 286 572 c 0
 287 578 286 586 287 594 c 0
 289 611 296 627 299 644 c 0
 298 694 299 696 299 698 c 0
 297 704 298 714 297 722 c 0
 296 728 290 737 286 743 c 0
 284 746 282 752 279 756 c 0
 268 769 243 784 238 784 c 0
 234 784 204 784 187 781 c 0
 181 780 169 775 160 770 c 0
 157 769 155 767 152 764 c 0
 145 758 131 752 122 742 c 0x1a70
 113 731 110 714 105 701 c 0
 105 699 107 698 107 696 c 0
 103 684 108 672 99 664 c 1
 101 654 95 639 94 633 c 0
 93 621 96 604 88 590 c 0
 88 583 87 574 86 568 c 0
 83 560 75 558 71 558 c 0
 60 558 63 562 51 571 c 0
 51 573 55 578 56 581 c 0
 57 585 55 590 55 596 c 2
 55 596 55 598 55 600 c 1
 59 599 62 602 66 604 c 0
 65 607 61 611 60 614 c 0
 62 623 59 625 59 628 c 2
 61 631 l 1
 57 657 68 693 68 722 c 0x2b70
 68 728 74 735 75 740 c 0
 77 752 79 770 93 779 c 0
 95 781 102 786 107 789 c 0
 109 789 113 788 117 790 c 0
 122 793 126 801 131 803 c 0
 144 810 167 819 172 819 c 0
 176 819 174 817 179 817 c 0
 186 817 192 824 194 826 c 0
 199 824 210 826 214 826 c 0
 220 826 235 819 235 819 c 2
 240 819 235 821 240 821 c 0
 244 821 246 818 250 818 c 0
 269 817 287 805 298 798 c 0
 320 782 348 747 346 716 c 0
 346 711 353 704 353 697 c 0
EndSplineSet
Validated: 33
EndChar

StartChar: three
Encoding: 51 51 19
Width: 282
Flags: MW
HStem: -11 21G -7 33<103.5 126.5> -3 29<88 108 160.5 165.5> 489 36<167 195> 743 41<61 67.5 65 79 79 80 38 92> 762 27
VStem: 24 28<185 194 194 194> 45 12<236 237 235.5 239> 213 48<276 365 365 365>
LayerCount: 2
Fore
SplineSet
276 772 m 0x8a80
 276 768 274 762 273 757 c 0
 267 736 256 714 249 694 c 0
 249 692 245 689 243 686 c 0
 239 680 234 670 232 664 c 0
 228 650 222 633 213 621 c 0
 212 614 213 605 208 599 c 0
 205 599 202 597 200 594 c 0
 191 563 180 559 180 540 c 0
 180 530 185 525 193 525 c 0
 197 525 193 526 197 526 c 0
 201 526 213 512 218 512 c 0
 222 512 217 513 221 513 c 0
 226 513 237 505 242 496 c 0
 245 491 250 479 252 472 c 0
 254 468 254 463 256 461 c 0
 256 443 255 404 263 397 c 1
 257 397 l 1x5a80
 256 392 257 383 261 380 c 1
 261 177 l 2
 261 173 259 171 258 168 c 0
 257 168 254 166 252 164 c 1
 254 163 255 163 257 163 c 0
 259 152 261 135 261 130 c 0
 261 119 263 124 252 110 c 1
 252 97 250 83 251 68 c 1
 245 58 228 45 234 35 c 1
 230 31 222 26 220 21 c 0
 219 20 216 16 216 12 c 1
 215 12 211 10 207 10 c 0
 202 10 203 12 201 12 c 0
 198 6 187 -7 182 -7 c 0
 178 -7 168 -3 163 -3 c 0
 158 -3 139 -11 134 -11 c 0
 130 -11 129 -7 124 -7 c 0
 120 -7 102 -1 97 -1 c 0
 93 -1 95 -3 91 -3 c 0
 85 -3 51 18 49 21 c 0
 48 24 43 29 40 35 c 0
 32 46 29 62 23 75 c 0
 22 77 24 81 25 85 c 0
 22 91 25 101 25 109 c 0
 25 116 19 127 19 131 c 0
 19 132 25 133 22 143 c 0
 24 148 23 153 23 159 c 0
 23 163 24 165 24 170 c 2
 24 194 l 1
 30 198 33 203 28 208 c 1
 28 208 28 209 28 211 c 0
 32 213 36 215 38 218 c 0
 38 219 43 222 46 224 c 0
 47 228 45 233 45 239 c 0
 47 241 54 239 57 237 c 0
 57 234 55 228 56 222 c 1
 56 222 59 225 59 220 c 0
 59 215 56 210 52 207 c 1
 52 185 l 1
 67 179 59 161 60 150 c 0
 61 140 65 126 64 113 c 1
 72 104 66 84 67 70 c 0
 68 63 72 53 80 45 c 0
 87 38 101 26 106 26 c 0
 110 26 106 28 110 28 c 0x2a80
 114 28 115 23 120 23 c 0
 125 23 127 25 129 25 c 0
 138 24 154 26 158 26 c 0
 177 26 195 62 199 72 c 0
 202 81 210 92 212 103 c 0
 218 133 220 190 220 195 c 0
 220 199 219 215 219 222 c 0
 218 237 216 257 215 273 c 1x8a80
 215 273 213 271 213 276 c 2
 213 365 l 1
 215 365 217 368 220 370 c 0
 219 374 211 377 210 383 c 0
 205 414 220 469 186 491 c 1
 186 491 185 491 183 491 c 0
 181 489 183 488 183 486 c 1
 181 488 179 489 174 489 c 0
 160 489 137 447 122 447 c 0
 118 447 104 453 96 456 c 1
 96 465 l 1
 102 470 105 479 109 485 c 0
 110 488 110 495 112 498 c 0
 122 519 134 539 144 559 c 0x2a80
 145 561 145 564 144 568 c 0x8980
 149 585 168 607 168 622 c 0
 170 627 173 636 179 643 c 0
 184 649 191 657 195 663 c 0x3680
 198 667 197 674 197 679 c 0
 198 680 200 679 202 681 c 1
 198 684 196 687 196 691 c 0
 196 695 209 717 216 728 c 0
 217 730 215 731 213 733 c 0
 215 738 220 747 220 751 c 0
 220 756 217 753 217 755 c 0
 217 757 215 758 214 759 c 0
 210 760 207 762 202 762 c 0
 197 762 174 749 170 749 c 0
 166 749 155 750 144 752 c 0
 136 750 126 749 118 748 c 0
 116 748 113 745 109 744 c 0
 105 742 96 743 92 743 c 0
 87 743 70 743 65 743 c 0
 57 743 26 757 26 768 c 0
 26 775 35 784 38 784 c 0
 42 784 66 784 79 784 c 0
 81 784 82 780 86 780 c 0
 90 780 106 787 110 787 c 0
 114 787 115 786 120 786 c 0
 124 786 135 789 140 789 c 0
 144 789 155 789 159 789 c 0
 163 789 169 793 173 793 c 0
 178 793 219 802 223 802 c 0
 227 802 241 797 250 793 c 0
 253 792 264 796 270 788 c 0
 270 783 276 776 276 772 c 0x8a80
EndSplineSet
Validated: 33
EndChar

StartChar: four
Encoding: 52 52 20
Width: 355
Flags: MW
HStem: -2 21G<283 292.5> 426 42<100 146.5> 448 13
VStem: 47 56<583 588 583 667> 269 40<313 315 313 399> 277 40<507 543 543 543>
LayerCount: 2
Fore
SplineSet
343 448 m 1xd4
 335 447 324 441 315 437 c 0
 313 432 316 426 316 417 c 0
 315 397 314 377 309 356 c 0
 308 350 308 338 307 332 c 1
 307 332 304 335 304 330 c 0
 304 326 309 317 309 313 c 0
 310 300 310 286 307 273 c 0
 310 269 310 260 311 252 c 1
 311 252 308 253 308 249 c 0
 308 244 315 228 315 223 c 0
 315 219 308 209 308 203 c 0
 308 196 313 187 312 177 c 0
 311 163 310 134 310 119 c 0
 310 115 307 106 307 101 c 0
 307 82 308 61 310 43 c 1
 297 38 313 19 300 2 c 0
 299 2 295 -2 290 -2 c 0
 276 -2 271 15 267 15 c 0
 263 15 264 15 262 13 c 1
 260 18 258 27 258 31 c 0
 258 35 263 52 264 64 c 0
 264 70 260 84 260 89 c 0
 260 93 264 101 266 105 c 0
 269 111 268 121 276 125 c 1
 273 134 265 147 265 152 c 0
 265 156 276 203 276 207 c 0
 276 211 269 228 273 239 c 0
 271 241 274 247 273 252 c 0
 271 264 273 280 273 293 c 0
 273 295 269 298 269 303 c 2
 269 399 l 2
 269 403 273 417 277 434 c 1xb8
 273 436 270 437 266 437 c 0
 262 437 261 433 261 430 c 1
 258 430 255 428 251 428 c 0
 246 428 212 428 194 428 c 0
 192 429 191 431 187 431 c 0
 182 431 149 426 144 426 c 0
 139 426 97 428 92 428 c 0
 88 428 69 420 64 420 c 0
 60 420 43 428 33 432 c 0
 32 435 30 440 30 445 c 0
 30 449 30 453 33 455 c 0
 32 458 29 470 38 473 c 1
 36 475 32 476 32 480 c 0
 32 484 37 503 39 514 c 0
 42 536 39 559 47 575 c 1
 47 667 l 2
 47 672 45 671 44 673 c 0
 43 682 45 693 44 704 c 0
 43 721 38 737 34 754 c 0
 32 755 32 762 30 767 c 0
 27 771 12 783 12 792 c 0
 12 796 19 806 25 808 c 0
 29 810 33 809 38 809 c 0
 56 809 56 796 72 786 c 1
 74 779 80 769 81 762 c 0
 83 755 84 747 82 740 c 1
 86 734 88 727 90 721 c 0
 93 716 97 708 98 701 c 0
 100 678 101 656 100 634 c 1
 104 627 106 616 106 612 c 0
 106 608 103 602 101 598 c 0
 99 595 103 590 103 586 c 0
 103 580 104 569 101 561 c 0
 100 560 102 556 104 555 c 0
 103 549 100 542 97 539 c 0
 97 532 98 523 90 519 c 0
 90 515 90 512 95 510 c 1
 93 510 91 508 92 506 c 0
 91 500 88 485 88 480 c 0
 88 477 98 468 102 468 c 0
 107 468 170 472 175 472 c 0
 179 472 193 466 198 466 c 0xd8
 202 466 225 474 229 474 c 0
 238 474 265 472 270 470 c 1
 280 478 267 484 277 488 c 1
 277 543 l 1
 267 548 273 560 272 567 c 0
 271 572 269 580 269 584 c 0
 269 588 273 597 276 601 c 0
 275 608 277 618 277 627 c 1
 278 627 l 1
 278 632 271 638 271 642 c 0
 271 646 274 653 276 658 c 0
 278 665 279 680 286 688 c 1
 282 692 279 693 276 695 c 0
 277 697 275 699 273 704 c 0
 271 711 275 721 278 730 c 0
 280 738 279 749 270 754 c 1
 269 762 265 777 265 782 c 0
 265 786 267 790 267 796 c 1
 269 796 273 798 276 798 c 0
 281 798 283 796 287 795 c 0
 289 794 286 790 290 790 c 0
 295 790 291 792 296 792 c 0
 305 792 310 783 316 777 c 1
 315 777 313 775 314 773 c 0
 319 766 321 758 321 751 c 0
 321 746 315 727 315 715 c 0
 315 707 319 689 319 684 c 2
 319 615 l 2
 319 611 310 593 310 590 c 0
 310 585 313 586 314 586 c 0
 315 579 317 568 317 564 c 2
 317 507 l 1
 315 507 313 505 310 502 c 1
 318 496 314 484 316 479 c 0xd4
 323 474 332 466 334 461 c 1xb4
 339 462 l 1
 339 459 341 452 343 448 c 1xd4
EndSplineSet
Validated: 33
EndChar

StartChar: five
Encoding: 53 53 21
Width: 376
Flags: MW
HStem: -26 24 -13 21G<259 263.5> -8 21G -2 21G<96 100.5 180 189 187 191.5> 657 50<214 218.5> 757 47<106 150> 772 44<211 261>
VStem: 44 48 54 22 64 9 293 46<114 143> 302 49<476.5 480.5 476.5 482>
LayerCount: 2
Fore
SplineSet
73 316 m 1x1a90
 73 307 l 1
 71 307 66 310 64 310 c 1
 66 311 71 316 73 316 c 1x1a90
351 478 m 0
 351 475 349 464 348 460 c 0
 346 449 350 436 349 425 c 0
 348 421 346 416 345 410 c 0
 344 406 347 402 347 397 c 0
 346 395 344 395 343 393 c 0
 344 391 346 390 347 386 c 0
 344 374 344 354 343 334 c 0
 342 332 340 332 338 330 c 2
 338 323 l 1
 343 321 347 304 347 295 c 0
 347 292 344 278 340 273 c 0x2a90
 340 271 340 271 340 266 c 0
 340 262 342 262 341 260 c 0
 344 255 342 247 343 240 c 0
 344 232 347 222 347 217 c 0
 347 213 341 170 339 143 c 0
 339 134 340 119 338 108 c 1
 343 100 339 80 334 75 c 0
 334 73 336 71 336 70 c 0
 331 56 326 36 318 27 c 0
 311 17 296 5 285 -3 c 0
 281 -7 266 -13 261 -13 c 0
 257 -13 249 -8 245 -8 c 0
 241 -8 230 -21 225 -21 c 0
 221 -21 225 -19 221 -19 c 0
 216 -19 200 -26 196 -26 c 0x8a90
 191 -26 196 -24 191 -24 c 0
 187 -24 185 -30 181 -30 c 0
 176 -30 176 -28 174 -27 c 0
 165 -26 152 -26 148 -26 c 0
 143 -26 128 -27 120 -22 c 0
 115 -18 107 -9 102 -3 c 1
 102 -3 103 -2 98 -2 c 0
 94 -2 97 -4 92 -4 c 0
 77 -4 54 52 52 55 c 0
 54 58 53 64 52 69 c 0
 46 88 42 108 41 127 c 0
 40 131 42 137 43 142 c 1
 40 143 l 2
 40 145 47 144 43 154 c 0x1a90
 44 156 42 160 41 160 c 1
 46 171 45 191 43 204 c 0
 46 206 46 212 48 216 c 0
 48 218 46 221 46 224 c 0
 46 233 59 239 51 247 c 1
 53 249 57 251 58 253 c 0
 59 257 52 261 62 266 c 1
 58 271 55 278 55 282 c 0
 55 286 57 290 59 293 c 0
 61 295 70 295 65 299 c 1
 66 299 71 298 77 298 c 1
 78 281 74 262 76 245 c 0
 76 242 79 238 79 234 c 0
 79 228 79 221 78 214 c 1
 79 214 85 206 77 200 c 0
 77 198 80 197 84 196 c 1
 84 143 l 2
 85 138 83 141 81 139 c 0
 83 135 81 127 81 119 c 0
 81 116 83 110 82 104 c 0
 81 102 77 100 77 96 c 0
 77 92 81 82 83 77 c 0
 89 60 92 28 112 13 c 2
 114 11 l 2
 117 12 122 7 128 6 c 0
 136 4 147 6 156 5 c 0
 163 4 175 -2 180 -2 c 0
 184 -2 185 -2 189 -2 c 0
 194 -2 197 5 202 5 c 0
 207 5 205 4 210 4 c 0
 213 4 224 9 233 12 c 0
 248 17 260 13 277 27 c 0
 276 31 273 32 273 37 c 0
 273 41 281 45 282 47 c 0
 287 62 292 84 295 103 c 0x2a90
 295 106 293 112 293 116 c 0
 293 121 294 129 298 136 c 1
 296 146 301 164 306 175 c 0
 307 177 305 181 305 183 c 0
 308 186 311 190 314 193 c 1
 310 195 305 196 300 196 c 1
 299 200 304 206 304 210 c 0
 305 219 307 232 307 237 c 0
 307 241 303 242 304 243 c 0
 307 249 305 248 304 256 c 1
 299 260 296 266 296 271 c 0
 296 275 303 295 304 308 c 0
 305 313 305 321 304 328 c 0
 303 339 309 357 309 362 c 0x4aa0
 309 365 301 369 299 375 c 0
 299 384 301 395 300 404 c 0
 296 427 301 444 302 467 c 0
 302 497 299 545 291 565 c 0
 289 571 292 597 288 611 c 0
 286 615 282 618 280 621 c 0
 279 622 279 626 278 630 c 0
 270 635 265 644 255 649 c 0
 244 656 221 657 216 657 c 0
 212 657 206 653 202 652 c 0
 176 647 148 645 121 632 c 0
 119 631 118 628 117 626 c 0
 101 615 72 590 68 590 c 0
 63 590 66 592 61 592 c 0
 57 592 56 589 54 587 c 2
 48 587 l 2
 45 589 39 591 36 591 c 0
 28 597 20 617 12 625 c 1
 18 625 l 1
 22 635 27 645 30 654 c 1
 21 668 39 679 32 689 c 1
 46 721 48 756 44 792 c 1
 49 795 56 798 61 799 c 0
 72 802 91 802 106 804 c 1
 107 802 l 1
 111 802 l 1
 124 807 147 813 152 813 c 0
 156 813 159 811 163 811 c 0
 168 811 163 814 168 814 c 0
 173 814 168 813 173 813 c 0x1d10
 177 813 186 820 191 820 c 0
 196 820 209 816 213 816 c 0
 218 816 245 820 249 820 c 0
 254 820 271 816 283 814 c 0
 284 812 284 811 286 809 c 0x1b10
 287 809 290 811 295 811 c 0
 301 811 314 804 314 797 c 0
 314 785 299 776 293 776 c 0
 289 776 283 781 279 781 c 0
 275 781 263 772 259 772 c 0
 255 772 219 772 201 769 c 0
 199 768 198 766 196 765 c 1
 196 766 197 768 193 768 c 0x1d10
 188 768 152 757 148 757 c 0
 143 757 132 759 127 759 c 0
 123 759 116 755 110 753 c 0x1a50
 108 750 106 744 104 739 c 0
 103 737 99 737 98 736 c 0
 98 732 93 726 92 723 c 0
 92 719 94 715 94 711 c 2
 92 710 l 1
 92 705 99 712 92 699 c 1
 92 697 l 2
 93 695 95 692 100 692 c 0
 104 692 139 694 159 699 c 0
 179 708 192 707 210 707 c 0
 245 707 311 679 319 649 c 0
 324 645 331 636 336 629 c 0
 339 623 343 609 342 599 c 0
 342 587 340 577 342 566 c 1
 342 566 344 564 345 562 c 0
 346 553 345 541 346 532 c 0
 348 516 351 483 351 478 c 0
EndSplineSet
Validated: 33
EndChar

StartChar: six
Encoding: 54 54 22
Width: 367
Flags: MW
HStem: 13 42 295 47<226.5 274>
VStem: 23 46 54 40<345 369 345 372> 98 32<116 133.5> 296 42<242 266.5>
LayerCount: 2
Fore
SplineSet
296 244 m 0xec
 296 260 289 295 259 295 c 0
 254 295 229 288 215 282 c 0
 211 279 207 272 204 270 c 0
 197 265 186 261 183 258 c 0
 164 234 140 194 136 182 c 0
 132 170 127 146 127 143 c 0
 127 138 130 134 130 133 c 0
 130 115 129 90 131 74 c 0
 134 71 176 55 182 55 c 0
 198 55 223 61 237 74 c 0
 244 80 252 90 256 100 c 0
 257 103 257 108 259 111 c 0
 263 118 270 127 272 133 c 0
 275 144 281 155 284 166 c 0
 286 176 286 192 289 202 c 0
 291 211 295 228 293 237 c 0
 294 239 296 240 296 244 c 0xec
342 230 m 0
 342 225 338 200 337 187 c 0
 336 176 328 159 326 146 c 0
 326 141 328 133 326 127 c 0
 321 112 312 95 304 77 c 0
 302 73 296 68 295 64 c 0
 294 60 292 50 287 46 c 0
 261 23 254 14 234 14 c 0
 229 14 221 16 217 16 c 0
 214 16 209 12 206 10 c 2
 202 14 l 1
 195 12 183 14 174 13 c 0
 172 14 173 16 169 16 c 0
 160 16 148 20 138 24 c 0
 125 29 103 36 89 46 c 0
 85 49 83 54 80 57 c 0
 74 65 53 84 50 92 c 0
 49 96 43 100 41 104 c 0
 35 112 34 124 31 135 c 0
 30 139 24 148 24 154 c 0
 23 167 18 190 18 194 c 0
 18 199 20 195 21 196 c 0
 18 207 21 219 26 230 c 0
 29 239 26 247 27 256 c 0
 27 260 27 270 30 276 c 0
 34 286 40 296 43 306 c 0
 44 309 42 315 42 320 c 0
 42 324 46 330 51 334 c 0
 52 339 52 348 54 354 c 0
 54 357 53 363 54 369 c 0
 54 375 60 386 62 393 c 0
 65 404 62 415 74 426 c 1
 71 438 88 461 89 478 c 0
 93 480 96 483 98 487 c 0
 97 491 97 498 98 500 c 0
 106 513 115 530 125 548 c 0
 126 550 128 560 132 565 c 0
 133 566 133 570 134 574 c 0xcc
 135 579 138 592 143 600 c 0
 145 604 150 608 153 611 c 0
 153 613 153 615 152 617 c 0
 157 625 159 639 173 641 c 1xec
 170 652 186 671 191 678 c 0
 199 688 210 703 221 715 c 0
 226 721 229 734 235 739 c 0
 240 742 246 749 250 749 c 0
 259 749 281 735 281 724 c 0
 281 720 277 709 274 705 c 0
 273 703 266 701 262 700 c 0
 260 698 259 693 256 690 c 0
 253 688 247 684 245 683 c 0
 235 664 214 639 200 614 c 0
 193 603 191 586 185 574 c 0
 169 540 147 499 130 462 c 0
 124 448 122 427 114 409 c 1
 112 387 104 357 94 345 c 1
 94 345 96 343 97 343 c 1
 95 334 94 322 91 313 c 0
 90 309 86 306 85 302 c 0
 84 294 85 280 82 272 c 0
 74 251 73 233 70 205 c 0
 70 203 66 205 66 200 c 0
 66 196 69 186 70 182 c 0
 70 175 70 165 68 156 c 1
 75 143 84 127 93 110 c 1
 97 111 98 114 98 118 c 0
 98 123 92 127 91 131 c 0
 88 140 88 156 88 160 c 0
 88 164 89 181 91 191 c 0
 94 199 104 211 108 221 c 0
 112 230 117 246 124 258 c 0
 126 261 131 266 134 270 c 0
 137 271 144 276 145 278 c 0
 148 283 149 291 154 295 c 0xd4
 168 307 188 317 202 323 c 0
 209 327 220 342 233 342 c 0
 237 342 254 338 263 337 c 0
 267 337 273 332 277 331 c 0
 283 329 294 325 303 320 c 0
 312 315 324 302 330 293 c 0
 331 291 334 286 336 283 c 0
 337 279 338 270 338 263 c 0
 338 252 342 234 342 230 c 0
EndSplineSet
Validated: 33
EndChar

StartChar: seven
Encoding: 55 55 23
Width: 367
Flags: MW
HStem: 16 11<103 111> 31 7 743 43<31 49 44.5 62.5>
VStem: 102 18 126 31<376 396> 199 33
LayerCount: 2
Fore
SplineSet
344 770 m 0
 344 766 335 759 334 753 c 0
 326 723 307 728 302 705 c 0
 299 703 297 703 293 699 c 0
 292 694 290 686 287 679 c 1
 271 670 265 651 258 642 c 0
 257 642 254 638 251 636 c 0
 251 635 251 631 250 629 c 0
 244 623 239 610 232 607 c 1
 232 607 233 605 233 603 c 0
 226 592 223 585 216 577 c 0
 212 573 214 561 210 555 c 0
 196 533 186 506 179 488 c 0
 178 484 177 472 176 465 c 0
 171 446 163 420 157 396 c 0
 157 394 155 394 154 392 c 0
 156 385 151 365 149 359 c 0
 148 350 142 330 141 318 c 0
 138 300 138 272 135 248 c 0
 134 242 128 232 128 222 c 0
 127 211 129 198 126 185 c 1
 131 174 126 163 125 152 c 0
 126 143 125 131 125 122 c 0
 125 111 127 92 120 85 c 1
 125 80 127 74 127 67 c 0
 127 54 121 44 116 41 c 1
 119 38 l 2
 121 38 123 40 125 42 c 1
 125 40 122 37 120 33 c 2
 120 24 l 2
 122 23 125 21 127 21 c 1
 127 19 124 14 120 10 c 1
 120 10 120 12 118 14 c 0
 117 14 115 10 115 8 c 1
 112 12 107 15 103 16 c 1
 103 27 l 1
 111 27 l 1
 111 27 112 27 112 29 c 2
 109 32 l 1
 108 31 105 31 103 31 c 1
 104 42 103 53 102 66 c 0xac
 101 69 99 70 96 74 c 0
 103 109 92 104 92 111 c 0
 92 115 94 117 97 121 c 0
 98 122 95 126 96 130 c 0
 97 133 99 139 100 143 c 0
 101 147 98 152 98 156 c 0
 99 171 100 186 101 197 c 1
 114 203 91 218 114 224 c 1
 104 233 107 231 107 235 c 0
 107 239 110 248 112 254 c 0xb4
 113 259 108 265 109 271 c 0
 113 285 116 301 118 316 c 1
 113 321 118 344 125 349 c 0
 125 350 124 351 122 349 c 1
 125 355 126 373 126 379 c 0
 135 398 129 424 144 441 c 1
 143 446 143 452 145 458 c 0
 152 476 148 494 166 513 c 1
 166 513 164 514 162 514 c 1
 162 522 l 2
 162 526 165 532 167 535 c 0
 169 539 176 546 178 552 c 0
 183 564 185 578 189 591 c 0
 192 595 196 596 199 598 c 0
 198 602 198 606 200 610 c 0
 214 635 241 672 258 699 c 0
 261 703 259 712 263 718 c 0
 268 726 281 740 281 744 c 0
 281 748 280 749 276 753 c 1
 274 751 272 749 267 749 c 0
 262 749 229 753 224 753 c 0
 220 753 167 743 162 743 c 0
 158 743 119 743 114 743 c 0
 110 743 109 747 104 747 c 0
 99 747 98 742 94 742 c 0
 89 742 65 743 60 743 c 0
 56 743 48 738 44 738 c 0
 40 738 35 743 31 743 c 0
 30 745 31 748 33 751 c 1
 29 753 26 753 22 753 c 0
 20 758 23 765 16 772 c 1
 16 778 l 1
 20 780 29 777 28 785 c 1
 33 786 42 786 47 786 c 0
 51 786 53 779 58 779 c 0x74
 62 779 103 786 108 786 c 0
 112 786 129 782 133 782 c 0
 137 782 138 788 143 788 c 0
 147 788 182 782 186 782 c 0
 191 782 197 784 202 786 c 0
 204 784 206 780 209 779 c 0
 215 782 241 790 252 790 c 0
 257 790 252 786 257 786 c 0
 261 786 259 788 260 789 c 0
 266 788 276 791 284 793 c 1
 284 791 284 790 286 788 c 0
 288 787 290 790 294 793 c 0
 297 794 303 793 308 793 c 0
 312 793 316 790 321 790 c 0
 324 790 336 782 341 791 c 1
 341 790 340 787 338 785 c 0
 340 781 344 774 344 770 c 0
EndSplineSet
Validated: 33
EndChar

StartChar: eight
Encoding: 56 56 24
Width: 300
Flags: MW
HStem: -7 39<118.5 151> -3 21G<104 108.5> 693 50<174.5 178.5 174.5 180 172 178.5>
VStem: 18 45<118 133.5> 24 58<548 602> 90 31<296 323> 216 50<145 163.5>
LayerCount: 2
Fore
SplineSet
216 161 m 0xb2
 216 166 208 223 200 252 c 0
 197 263 193 277 190 287 c 0
 189 290 182 302 182 309 c 0x76
 173 324 168 338 164 350 c 0
 161 351 156 356 152 358 c 1
 145 347 137 337 130 328 c 0
 129 322 131 317 130 313 c 0
 129 307 121 301 121 296 c 0
 120 289 115 272 102 265 c 1
 104 265 105 265 107 263 c 0
 98 248 98 231 94 221 c 0
 89 210 84 203 80 197 c 1
 84 190 77 177 71 167 c 1
 70 150 63 121 63 118 c 2
 65 116 l 1
 66 101 70 81 73 67 c 0
 76 63 85 57 86 53 c 0
 93 37 109 32 128 32 c 0
 132 32 139 32 142 33 c 0
 147 34 153 40 157 40 c 0
 162 40 163 37 165 37 c 1
 163 39 163 40 163 42 c 0
 170 48 180 53 182 57 c 0
 187 64 192 74 196 78 c 0
 198 83 206 86 207 91 c 0
 205 93 203 93 202 95 c 0
 209 117 216 157 216 161 c 0xb2
252 661 m 1
 229 685 214 692 192 692 c 0
 188 692 186 692 184 690 c 2
 180 693 l 2
 179 693 174 693 172 693 c 0
 163 690 153 683 145 681 c 0
 136 678 113 662 102 655 c 1
 96 639 89 622 82 608 c 0x6a
 81 606 81 603 82 602 c 0
 82 593 79 581 74 578 c 2
 70 578 l 1
 76 559 76 544 82 531 c 0
 86 522 97 510 103 501 c 0
 106 497 117 490 121 483 c 0x72
 120 481 120 480 120 480 c 1
 126 478 134 471 142 466 c 1
 145 471 150 480 153 485 c 0
 157 493 162 502 167 511 c 0
 171 518 180 526 182 533 c 0
 183 536 183 541 185 544 c 0
 192 552 211 580 215 590 c 0
 219 601 224 617 228 627 c 0
 229 629 233 631 234 631 c 0
 237 640 248 653 252 661 c 1
309 702 m 0
 309 698 307 692 306 687 c 0x72
 306 681 300 677 296 674 c 0
 294 655 285 632 277 611 c 0
 273 602 260 587 256 575 c 0
 233 517 207 487 195 446 c 0
 192 437 183 416 183 411 c 0
 183 407 198 393 202 387 c 1
 202 387 202 387 200 385 c 0
 201 381 205 378 206 374 c 0
 207 367 209 359 209 352 c 0
 211 350 213 349 214 348 c 0
 218 338 228 324 232 313 c 0
 234 310 233 303 235 298 c 0
 237 295 241 289 243 284 c 0
 246 277 244 266 247 260 c 0xb2
 253 246 258 226 259 213 c 0
 260 211 254 197 264 197 c 1
 264 180 266 152 266 147 c 0
 266 143 261 114 258 98 c 0
 257 96 255 94 255 92 c 0
 252 79 246 64 241 50 c 1
 223 48 231 22 214 13 c 0
 211 11 204 6 197 3 c 0
 183 -2 153 -7 149 -7 c 0
 136 -7 128 -5 113 -2 c 0
 112 -1 111 -3 106 -3 c 0
 102 -3 101 0 97 2 c 0x72
 91 5 78 7 73 11 c 0
 59 20 48 31 36 46 c 0
 34 47 34 54 32 57 c 0
 32 59 27 63 26 66 c 0
 22 88 13 112 21 122 c 0
 20 124 18 124 18 129 c 0
 18 138 25 129 19 154 c 1x76
 28 180 37 206 45 232 c 0
 48 234 52 236 56 237 c 0
 56 239 54 239 54 243 c 0
 54 252 70 269 71 271 c 0
 73 274 72 280 72 284 c 0
 76 286 76 289 74 291 c 1
 88 296 90 315 90 323 c 1
 94 326 95 332 101 341 c 0
 102 343 102 344 101 346 c 0
 107 365 124 395 124 400 c 0
 124 420 89 439 75 460 c 0
 51 495 24 529 24 567 c 0
 24 570 29 610 34 637 c 0
 39 644 48 658 48 669 c 1
 52 669 56 673 60 671 c 1
 60 671 61 672 61 674 c 0
 61 678 59 682 60 685 c 0x6a
 66 694 76 704 85 712 c 0
 89 715 89 720 93 722 c 0
 103 727 116 736 126 739 c 0
 141 743 172 743 177 743 c 0
 180 743 207 741 221 737 c 0
 224 736 228 729 231 727 c 0
 239 722 252 720 255 708 c 0
 257 708 257 706 262 706 c 0
 266 706 271 713 276 715 c 0
 283 717 294 719 303 721 c 1x72
 303 716 309 706 309 702 c 0
EndSplineSet
Validated: 33
EndChar

StartChar: nine
Encoding: 57 57 25
Width: 314
Flags: MW
HStem: 379 46<140 141.5 129 144.5> 697 43<152.5 179.5> 723 15
VStem: 15 52 238 51<599 627> 239 40<73.5 80.5> 240 52<417 418>
LayerCount: 2
Fore
SplineSet
238 601 m 0xc2
 238 605 236 639 235 658 c 1
 230 663 226 670 222 676 c 0
 218 681 209 687 204 689 c 0
 195 692 182 697 177 697 c 0
 173 697 125 661 101 641 c 0
 101 639 102 635 102 634 c 0
 97 626 89 617 88 613 c 0
 85 603 78 589 74 582 c 0
 72 579 70 572 70 569 c 0
 68 563 69 557 64 556 c 1
 70 548 65 535 67 522 c 0
 64 521 63 516 62 515 c 1xd2
 68 511 63 499 64 496 c 0
 65 489 69 478 70 472 c 0
 74 459 84 444 90 433 c 0
 91 431 100 428 107 427 c 0
 116 427 127 425 131 425 c 0xa2
 152 425 168 442 187 457 c 0
 189 459 189 465 190 466 c 0xd8
 193 471 200 473 202 476 c 0
 213 492 224 522 228 553 c 0
 231 557 233 559 234 566 c 0
 236 577 238 597 238 601 c 0xc2
297 315 m 0
 297 311 293 276 292 259 c 0
 292 258 288 254 288 250 c 0
 287 227 294 187 281 159 c 0
 282 155 282 152 282 149 c 0
 280 126 281 100 279 76 c 0
 279 71 281 64 281 59 c 0
 281 44 278 27 277 13 c 0
 273 10 265 6 261 6 c 0
 254 6 240 20 240 24 c 0
 239 29 239 36 241 45 c 0
 241 46 239 48 238 50 c 0
 237 59 238 71 239 80 c 0
 239 81 236 85 233 86 c 0
 232 88 232 91 232 95 c 0
 232 99 238 117 238 126 c 0
 238 129 236 132 236 137 c 0
 236 141 238 149 240 154 c 0
 241 155 245 155 249 159 c 1
 246 160 238 171 238 178 c 0
 238 182 244 187 242 202 c 0xc2
 235 245 245 257 240 276 c 1
 241 276 243 276 245 278 c 1
 245 278 243 279 242 279 c 0
 240 315 241 375 240 417 c 0
 240 419 239 421 235 425 c 1
 229 416 213 400 206 396 c 0
 188 385 147 379 142 379 c 0
 138 379 124 382 116 383 c 0
 115 384 112 382 107 382 c 0
 103 382 77 394 64 400 c 0
 61 405 52 410 49 415 c 0
 40 430 26 456 18 477 c 0
 17 481 17 487 20 491 c 1
 17 498 15 507 15 512 c 0
 15 516 17 554 20 570 c 0
 20 573 25 575 26 580 c 0
 26 583 24 587 25 591 c 0
 34 619 44 648 64 677 c 0
 70 686 85 699 93 706 c 1
 93 706 93 708 92 709 c 1xc4
 115 727 139 740 166 740 c 0
 184 740 216 735 237 717 c 1
 245 722 244 727 250 735 c 1
 259 736 273 738 277 738 c 0
 282 738 282 736 283 735 c 0
 289 725 295 719 295 710 c 0
 295 705 286 677 286 672 c 0
 286 667 288 670 289 669 c 0
 288 655 289 634 289 620 c 0
 289 617 289 613 292 609 c 0
 291 602 288 588 288 583 c 0
 288 579 292 570 292 565 c 0
 292 553 291 536 292 522 c 0
 292 517 295 508 295 504 c 0
 295 499 293 501 292 500 c 0
 291 487 289 471 291 457 c 0
 291 456 288 456 288 452 c 0
 288 448 292 439 292 433 c 0
 292 420 292 405 292 391 c 0
 292 382 292 370 292 361 c 0
 293 352 295 333 294 320 c 0
 295 319 297 319 297 315 c 0
240 729 m 1
 242 723 l 1xa2
 239 723 l 1
 237 728 l 1
 240 729 l 1
EndSplineSet
Validated: 33
EndChar

StartChar: question
Encoding: 63 63 31
Width: 306
Flags: MW
HStem: 3 43<88.5 93.5> 3 793<88.5 161.5> 24 18<64 77.5>
VStem: 13 57 25 52 60 50<223 228> 63 46<11 30> 253 49<620.5 644>
LayerCount: 2
Fore
SplineSet
109 21 m 2x83
 109 11 l 1
 104 9 96 3 91 3 c 0
 86 3 92 7 87 7 c 0
 83 7 85 5 81 5 c 0
 76 5 78 5 77 6 c 0
 72 9 69 18 64 24 c 2
 64 24 63 24 63 28 c 0
 63 32 71 42 75 42 c 0
 80 42 75 40 80 40 c 0
 84 40 84 46 88 46 c 0
 99 46 109 24 109 21 c 2x83
302 642 m 0
 302 626 300 613 295 600 c 0
 293 593 292 584 291 571 c 0
 290 556 281 528 271 515 c 0
 257 497 238 477 222 468 c 0x45
 218 466 210 468 205 464 c 0
 199 458 191 447 183 441 c 0x49
 178 436 162 429 155 427 c 1
 155 427 154 426 154 425 c 0
 132 408 112 371 112 352 c 1
 112 352 111 350 110 350 c 1
 110 159 l 1
 107 160 101 163 96 162 c 0
 89 161 84 159 80 159 c 0
 77 159 69 159 66 161 c 0
 63 166 64 172 64 178 c 0
 63 185 62 196 64 202 c 0
 65 209 60 220 60 226 c 0
 60 230 59 232 59 236 c 0
 59 240 63 250 64 256 c 0
 67 271 67 288 66 304 c 0
 67 306 71 308 71 312 c 0
 71 317 63 324 63 329 c 0
 63 333 68 341 68 347 c 0
 68 348 71 353 74 356 c 0x51
 75 360 71 364 70 367 c 0
 71 369 73 372 74 376 c 0
 74 381 74 388 77 393 c 0
 79 399 90 408 94 416 c 0
 97 420 98 430 101 434 c 0
 108 444 125 447 136 455 c 0
 139 457 144 466 147 469 c 0
 153 476 162 481 169 486 c 0
 171 486 175 486 177 487 c 0x49
 190 497 204 507 214 517 c 1
 214 517 213 519 211 519 c 1
 221 519 224 530 229 538 c 0
 232 541 232 547 233 553 c 0
 239 559 246 576 245 588 c 1
 251 593 253 606 259 612 c 0x83
 258 615 253 619 253 622 c 0
 253 639 254 656 254 672 c 1
 254 672 256 672 258 674 c 1
 248 682 253 703 240 718 c 0
 232 728 219 741 206 751 c 0
 202 754 194 754 188 760 c 1
 171 753 156 757 140 748 c 0
 137 746 128 747 124 743 c 0
 113 733 91 717 91 706 c 1
 86 702 81 692 74 687 c 0
 73 685 77 683 77 679 c 0
 79 667 74 654 73 641 c 0
 72 637 70 632 70 628 c 0
 70 627 71 623 72 619 c 0
 73 608 71 596 69 585 c 0
 66 570 65 554 61 537 c 1
 62 514 63 497 53 472 c 1
 43 471 23 475 12 478 c 0
 6 479 4 493 4 498 c 0
 4 502 8 512 13 519 c 0
 13 520 12 525 12 528 c 0
 12 532 15 537 14 541 c 2
 14 541 13 543 12 544 c 0
 11 552 13 566 14 574 c 0
 15 580 13 587 14 595 c 0
 14 602 19 613 20 623 c 0
 21 641 22 661 25 682 c 0x23
 24 684 22 688 23 689 c 0
 28 699 32 710 36 721 c 0
 37 723 42 723 44 727 c 0
 47 731 48 738 53 743 c 0
 59 751 67 760 77 767 c 0
 78 768 81 770 84 770 c 0
 90 775 96 781 104 784 c 0
 110 786 120 782 127 785 c 0
 135 788 145 794 149 794 c 0
 154 794 149 792 154 792 c 0
 158 792 155 796 159 796 c 0
 164 796 179 796 186 795 c 0
 188 795 191 788 195 788 c 0
 199 788 197 792 202 792 c 0
 208 792 246 776 249 772 c 0
 254 767 260 759 266 755 c 0
 268 753 269 746 271 743 c 0
 272 741 279 739 281 734 c 0
 289 714 296 699 298 682 c 0
 299 670 302 646 302 642 c 0
EndSplineSet
Validated: 33
EndChar

StartChar: at
Encoding: 64 64 32
Width: 432
Flags: MW
HStem: 155 30<202 212.5 208 212.5 208 226> 244 46<319 323 321 325 308 335> 252 42<174 207.5> 457 39 559 28<249.5 280>
VStem: 20 39 46 24<232 260> 233 52<409 427.5> 366 46<412.5 417>
LayerCount: 2
Fore
SplineSet
238 449 m 0xdd80
 238 453 236 455 234 457 c 0
 221 452 204 447 197 441 c 0
 175 427 150 385 150 362 c 0
 150 350 146 333 146 329 c 0
 146 324 146 322 146 321 c 0xbd80
 155 315 169 294 179 294 c 0
 183 294 195 301 198 304 c 0
 205 308 211 320 215 328 c 0
 223 344 229 366 232 378 c 0
 234 387 234 397 236 405 c 0
 235 406 233 408 233 410 c 0
 235 417 234 427 235 434 c 0
 236 437 234 441 235 445 c 0
 236 447 238 444 238 449 c 0xdd80
412 425 m 2
 412 367 l 2
 412 363 410 362 410 358 c 0
 409 345 405 325 402 312 c 0
 401 305 392 294 389 285 c 0
 387 282 389 275 385 270 c 0
 375 257 347 244 335 244 c 0xdd80
 330 244 325 244 321 244 c 0
 317 244 294 249 281 254 c 0
 280 255 278 259 276 262 c 0
 268 265 261 272 256 276 c 1
 250 274 249 266 243 263 c 0
 232 257 210 252 205 252 c 0
 201 252 185 252 172 254 c 0
 163 255 154 261 144 263 c 0
 142 265 140 269 140 272 c 0xbd80
 127 275 114 291 112 302 c 0
 111 306 106 312 102 317 c 0
 100 319 99 326 98 332 c 0
 99 375 98 377 98 379 c 0
 102 384 103 394 106 397 c 0
 116 417 125 434 137 449 c 0
 136 451 138 452 138 454 c 0
 140 458 147 463 153 469 c 0
 157 472 165 473 170 476 c 0
 174 478 180 487 187 490 c 0
 201 495 226 496 231 496 c 0
 236 496 255 495 264 485 c 0
 266 483 274 483 277 480 c 0
 281 476 287 463 289 455 c 0
 292 445 285 432 285 423 c 0
 285 406 289 390 289 374 c 0
 290 358 291 332 294 315 c 1
 294 315 294 314 292 312 c 1
 296 308 304 290 312 290 c 0
 338 290 362 341 363 347 c 0
 364 365 366 410 366 415 c 0
 366 419 363 440 360 453 c 0
 360 454 362 456 364 458 c 0
 361 464 359 475 354 480 c 0
 355 484 353 489 352 495 c 0
 346 500 344 508 339 512 c 0
 339 515 339 519 338 523 c 0
 331 541 309 546 295 552 c 0
 294 552 291 556 288 556 c 0
 265 556 271 559 266 559 c 0
 233 559 169 548 147 521 c 0
 145 517 125 512 122 502 c 1
 96 492 99 460 79 445 c 1
 79 438 76 427 74 421 c 0
 72 416 66 408 65 401 c 0
 65 397 67 392 65 389 c 0xdd80
 62 381 58 369 57 360 c 0
 57 356 59 353 59 349 c 0
 59 341 55 328 55 323 c 0
 55 319 59 290 63 273 c 0
 66 270 68 264 70 260 c 0
 70 258 70 257 70 255 c 0
 83 242 95 225 112 215 c 0
 123 209 138 206 150 201 c 0
 162 196 182 189 196 189 c 0
 200 189 196 190 200 190 c 0
 204 190 206 185 210 185 c 0
 215 185 233 194 237 194 c 0
 239 194 250 192 251 191 c 2
 251 190 l 1
 256 190 254 194 259 194 c 0
 263 194 263 190 268 190 c 0
 273 190 272 192 276 192 c 0
 280 192 283 186 286 184 c 1
 284 182 282 178 280 174 c 1
 276 178 l 1
 272 175 269 175 266 173 c 0
 263 171 259 165 258 162 c 0
 257 161 253 162 251 161 c 1
 254 163 252 165 248 165 c 0
 243 165 231 155 226 155 c 0
 222 155 208 155 204 155 c 0
 200 155 199 161 195 163 c 1
 191 159 189 159 186 155 c 1
 182 158 179 161 174 161 c 0
 170 161 173 159 169 159 c 0
 166 159 136 169 122 176 c 0
 114 181 97 190 88 195 c 0
 88 197 85 200 83 201 c 0xdb80
 76 205 65 209 58 215 c 0
 53 219 51 228 46 232 c 0
 46 233 46 237 45 241 c 0
 44 243 40 245 39 248 c 0
 37 252 36 261 36 267 c 0
 35 269 31 273 30 274 c 0
 27 287 22 312 22 316 c 0
 22 321 25 323 26 327 c 0
 27 331 27 339 29 345 c 0
 27 347 24 347 20 346 c 1
 21 357 22 372 28 384 c 0
 29 386 25 388 25 390 c 0
 28 403 28 417 31 429 c 0
 33 435 42 445 47 455 c 0
 48 457 48 460 48 462 c 0
 50 464 51 467 55 469 c 1
 53 471 52 470 50 470 c 0
 49 483 68 495 73 501 c 0
 83 515 95 544 114 544 c 0
 119 544 118 542 120 542 c 0
 122 544 120 546 120 547 c 0
 127 552 137 554 144 557 c 0
 146 558 146 563 150 565 c 0
 159 572 174 579 179 579 c 0
 184 579 181 577 185 577 c 0
 190 577 198 583 203 583 c 0
 208 583 205 581 210 581 c 0
 214 581 240 592 245 592 c 0
 249 592 274 587 279 587 c 0
 281 587 283 585 293 589 c 1
 297 583 306 577 310 577 c 0
 315 577 310 579 314 579 c 0
 318 579 323 572 325 568 c 0
 327 568 329 570 334 570 c 0
 337 570 342 564 343 559 c 1
 354 559 361 552 367 545 c 0
 376 531 384 512 389 497 c 0xdd80
 391 493 395 490 397 486 c 0
 404 466 412 430 412 425 c 2
EndSplineSet
Validated: 33
EndChar

StartChar: A
Encoding: 65 65 33
Width: 346
Flags: MW
HStem: -15 21G<43 49 47 62> -10 21G<325 326> 360 25<144 194.5>
VStem: 37 55 70 54<267 269> 99 46<472 521> 110 43<610 613> 214 28<402 434.5 416.5 434.5> 233 27<288.5 301> 299 27<-10 11>
LayerCount: 2
Fore
SplineSet
221 393 m 1x6540
 217 395 214 399 214 402 c 0
 214 408 214 414 214 419 c 0
 213 432 209 447 208 460 c 0x64c0
 208 471 206 486 204 494 c 0
 201 502 194 522 194 526 c 0
 191 555 183 596 179 623 c 0
 178 633 183 643 179 651 c 0
 175 659 167 668 162 673 c 1
 162 662 160 648 158 637 c 0
 157 631 153 617 153 613 c 0
 153 607 158 594 151 591 c 0
 152 588 151 584 151 582 c 0
 150 578 146 573 147 572 c 0
 148 568 149 563 149 560 c 0
 149 547 146 529 145 521 c 0
 145 511 148 497 146 486 c 0
 145 484 145 482 144 480 c 0
 143 467 145 452 144 439 c 0
 143 432 136 422 136 418 c 0
 136 415 139 420 138 400 c 0
 138 395 141 387 144 385 c 0
 153 386 170 385 175 385 c 0
 179 385 199 392 203 392 c 0
 208 392 204 388 209 388 c 2
 219 388 l 1
 219 390 221 393 221 393 c 1x6540
326 -3 m 1
 326 -10 l 1
 324 -10 321 -12 317 -12 c 0
 313 -12 304 -2 297 2 c 0
 297 4 299 4 299 9 c 0
 299 13 297 19 295 22 c 0
 295 24 291 26 290 28 c 0
 291 50 270 64 278 83 c 1
 266 93 264 115 260 128 c 0
 259 131 262 137 261 143 c 0
 261 144 256 148 255 152 c 0
 252 161 258 173 252 176 c 1
 251 188 249 202 248 215 c 1
 240 217 240 236 244 246 c 1
 233 266 233 280 233 297 c 0
 233 301 229 312 229 319 c 0
 228 327 220 343 225 356 c 1
 216 362 198 360 191 360 c 0
 187 360 143 353 130 348 c 1
 130 339 133 328 133 317 c 0
 133 309 129 298 127 291 c 0
 125 285 124 275 124 265 c 0
 124 253 121 249 120 237 c 0
 118 226 121 182 110 163 c 0
 109 159 113 156 112 152 c 0
 111 145 111 134 109 126 c 0
 104 108 94 88 92 63 c 0
 92 59 93 55 94 49 c 0
 95 45 91 41 90 35 c 0
 89 27 92 14 89 6 c 0x68c0
 87 1 69 -15 62 -15 c 0
 57 -15 51 -15 47 -15 c 0
 39 -15 21 -4 21 3 c 0
 21 18 37 12 36 32 c 0
 36 39 38 47 38 54 c 1
 38 54 39 54 41 56 c 0
 48 94 50 129 54 163 c 0
 55 169 60 179 61 189 c 0xb140
 62 196 61 206 62 215 c 0
 63 220 67 251 70 267 c 0
 70 271 74 276 75 280 c 0
 82 321 88 380 96 430 c 0
 97 430 101 434 102 436 c 0
 102 438 99 440 98 441 c 0
 95 445 95 454 95 459 c 0
 95 463 97 463 97 465 c 0
 97 467 95 469 96 471 c 0
 97 471 99 471 99 473 c 0
 100 489 101 508 105 526 c 1
 98 554 110 579 110 608 c 0
 110 618 112 636 114 648 c 0
 116 649 117 648 119 650 c 0
 117 654 115 666 115 668 c 0
 115 671 121 659 117 682 c 0
 117 687 118 687 123 689 c 1
 119 693 l 1
 133 715 129 739 131 760 c 0
 132 762 134 761 135 763 c 0
 130 769 140 794 149 804 c 0
 153 806 156 809 161 809 c 0
 165 809 171 801 174 797 c 0
 184 780 193 761 198 743 c 0
 203 723 204 702 207 682 c 0
 208 680 210 678 211 676 c 0
 212 669 212 660 212 652 c 0x6940
 213 651 215 651 216 649 c 0
 218 639 225 617 219 609 c 1
 228 585 229 558 232 528 c 0
 234 519 232 507 236 491 c 0x6540
 236 489 234 487 233 485 c 0
 233 482 236 478 237 475 c 0
 238 471 234 467 234 463 c 0
 234 460 238 454 240 449 c 0
 241 444 242 437 242 432 c 0x6340
 242 425 248 412 244 408 c 1
 247 398 245 387 249 378 c 1
 246 354 256 327 260 301 c 1
 260 301 260 300 258 298 c 0
 261 293 262 280 261 273 c 1
 270 259 267 249 271 230 c 1
 271 230 271 230 270 228 c 0
 272 205 277 174 282 149 c 0
 289 122 300 85 309 58 c 0
 314 42 320 19 326 -3 c 1
EndSplineSet
Validated: 33
EndChar

StartChar: B
Encoding: 66 66 34
Width: 257
Flags: MW
HStem: -6 15 -6 21G<50 60.5> 409 7<86 86> 773 36<126 129 121 131>
VStem: 33 53<241 409 390 409> 41 42 196 43<630.5 663 630.5 676> 205 34
LayerCount: 2
Fore
SplineSet
205 255 m 1x7a
 204 255 200 258 199 260 c 0
 196 267 195 278 195 282 c 0
 195 286 200 295 202 299 c 1
 198 301 196 304 195 306 c 0
 194 308 198 312 197 313 c 0
 194 317 190 321 188 325 c 0
 186 330 188 338 186 343 c 0
 185 349 170 357 174 371 c 1
 167 375 160 383 155 386 c 0
 147 391 128 398 124 398 c 0
 120 398 121 396 117 396 c 0
 112 396 95 403 86 409 c 1
 86 396 87 384 85 376 c 0
 85 363 82 350 82 339 c 0
 82 333 86 330 84 321 c 0
 83 317 84 313 83 312 c 0
 82 310 78 309 78 304 c 0
 78 299 84 280 85 272 c 2x76
 82 37 l 1
 84 37 85 35 90 35 c 0
 95 35 128 50 142 58 c 0
 146 63 155 67 160 74 c 0
 166 80 170 90 175 93 c 1
 176 100 183 113 186 119 c 1
 183 130 198 158 199 174 c 0
 201 202 199 223 205 255 c 1x7a
196 663 m 0
 196 665 192 662 196 676 c 1x7a
 191 687 186 700 182 713 c 0
 180 719 182 725 182 728 c 0
 181 738 174 750 172 758 c 1
 159 762 133 773 129 773 c 2
 121 773 l 1
 118 760 93 769 84 764 c 1
 83 756 76 743 76 739 c 0
 76 735 79 706 80 689 c 0
 81 684 84 676 83 671 c 0
 82 665 80 659 80 656 c 0
 83 638 91 587 91 583 c 2
 91 525 l 2
 91 517 84 508 80 504 c 1
 87 497 l 1
 80 488 90 482 80 476 c 1
 85 473 85 455 84 449 c 0
 83 438 86 425 86 416 c 1
 93 416 l 1
 90 428 101 431 104 431 c 0
 108 431 108 429 112 429 c 0
 117 429 128 439 135 441 c 1
 137 446 143 451 147 454 c 0
 150 456 154 472 155 478 c 0
 158 482 167 488 172 489 c 1
 173 498 176 511 180 522 c 0
 184 533 182 548 184 554 c 0
 188 567 192 588 191 600 c 0
 193 602 193 606 194 607 c 0
 192 623 190 634 196 650 c 0
 197 654 196 659 196 663 c 0
241 207 m 0
 241 190 235 158 228 146 c 0
 228 144 230 143 229 141 c 0
 228 135 226 127 222 121 c 1
 225 111 217 101 212 91 c 0
 209 85 208 77 205 72 c 0
 202 67 189 60 190 50 c 1
 184 45 169 31 157 22 c 0
 155 20 146 22 142 19 c 0
 139 17 130 9 125 9 c 0
 120 9 124 11 120 11 c 0
 116 11 117 7 114 4 c 0
 96 1 63 -6 58 -6 c 0
 42 -6 53 -3 34 9 c 1
 40 36 32 38 32 49 c 0
 32 53 33 49 34 50 c 0
 35 63 37 78 41 93 c 1
 41 185 l 2
 41 190 39 187 38 189 c 0
 39 198 41 211 39 219 c 0
 37 227 33 237 33 241 c 2
 33 390 l 2
 35 391 37 393 38 395 c 0
 37 400 36 406 36 412 c 0
 37 415 43 420 43 424 c 0
 43 428 35 435 34 441 c 0
 33 450 32 465 32 470 c 0
 32 474 33 476 34 478 c 0x75
 33 493 33 510 36 522 c 1
 33 532 35 552 41 554 c 1
 41 609 l 2
 38 610 34 615 34 619 c 0
 32 646 34 674 31 696 c 0
 31 698 33 702 33 706 c 0
 31 717 28 738 28 743 c 0
 28 747 31 752 33 758 c 0
 34 764 31 774 32 784 c 0
 33 793 52 803 56 803 c 0
 59 803 62 796 67 796 c 0
 71 796 86 805 91 805 c 0
 95 805 107 801 111 801 c 0
 115 801 123 809 129 809 c 0
 133 809 134 803 138 803 c 0
 167 804 216 771 219 732 c 0
 219 726 225 719 226 713 c 0
 230 697 229 680 232 663 c 0xb5
 234 656 239 637 239 633 c 0
 239 628 237 628 236 626 c 0
 235 588 225 548 220 513 c 0
 219 511 217 511 215 509 c 0
 215 506 214 502 212 498 c 0
 210 495 211 489 209 483 c 0
 206 478 201 472 197 465 c 0
 194 461 194 450 188 444 c 0
 181 436 172 430 165 422 c 1
 171 414 180 409 187 401 c 0
 195 392 209 379 214 369 c 0
 220 357 224 341 227 326 c 0
 229 319 230 307 230 298 c 0xb6
 230 277 246 260 236 245 c 1x75
 239 233 241 211 241 207 c 0
EndSplineSet
Validated: 33
EndChar

StartChar: C
Encoding: 67 67 35
Width: 281
Flags: MW
HStem: -8 37<145 149.5> 5 24 746 48<154.5 180.5>
VStem: 33 47<359 369.5 445 447> 35 41<188.5 197 243 246> 198 8 213 47 223 40<191 211>
LayerCount: 2
Fore
SplineSet
267 653 m 0xa9
 267 649 262 639 260 631 c 0
 259 628 263 622 263 617 c 2
 263 617 263 617 262 615 c 0
 271 592 259 566 235 566 c 0
 233 566 228 570 230 576 c 1
 226 576 223 575 219 575 c 0
 214 575 212 579 210 581 c 1
 206 577 l 1
 203 581 198 585 198 589 c 0
 198 593 205 599 207 606 c 0
 213 629 213 674 213 679 c 0
 213 702 195 746 166 746 c 0
 162 746 143 743 133 738 c 0
 124 733 117 724 106 716 c 1
 104 701 94 686 91 665 c 0
 90 655 88 641 88 630 c 0
 88 623 94 614 92 607 c 0
 90 602 84 595 84 589 c 0
 84 585 87 576 87 571 c 0
 87 480 84 513 80 495 c 0
 79 491 82 485 82 480 c 0
 82 473 81 463 78 454 c 0
 78 452 80 449 80 445 c 0
 81 437 79 430 79 422 c 0
 78 402 80 380 80 359 c 0
 78 354 74 350 74 346 c 0
 74 334 85 327 85 305 c 0
 85 302 82 298 84 291 c 0
 82 286 82 280 83 274 c 0
 82 272 78 268 76 267 c 2
 76 121 l 1xad
 76 121 78 119 79 117 c 0
 80 106 79 95 79 84 c 0
 79 79 80 69 84 62 c 0xb2
 88 54 91 42 98 39 c 0
 113 31 143 29 147 29 c 0
 171 29 189 48 196 60 c 0
 204 75 212 94 216 112 c 0
 222 137 222 179 223 208 c 0
 223 214 219 225 221 232 c 0xa9
 223 241 230 260 238 266 c 1
 250 262 257 242 255 234 c 1
 259 230 258 218 257 215 c 0
 260 208 263 205 263 197 c 0
 263 185 262 163 256 154 c 0
 257 152 261 151 263 149 c 0
 262 141 256 131 254 124 c 0
 253 119 259 110 258 104 c 0
 255 89 248 72 242 56 c 0
 240 55 238 55 237 54 c 0
 233 52 230 48 228 44 c 0
 225 38 228 29 225 22 c 1
 211 19 215 16 212 7 c 0
 211 6 207 3 205 2 c 0
 190 0 152 -8 147 -8 c 0
 143 -8 119 -2 103 2 c 0
 103 5 98 7 94 7 c 0
 89 7 92 5 87 5 c 0
 75 5 51 30 49 39 c 0
 47 45 43 56 44 63 c 0
 41 65 39 68 36 71 c 0
 36 83 35 103 38 117 c 0
 37 121 35 124 32 128 c 0
 33 132 32 136 32 140 c 0
 32 146 38 159 38 165 c 0xb1
 39 173 35 186 35 191 c 0
 35 203 37 218 43 226 c 1
 38 228 35 242 35 244 c 0
 35 248 37 255 40 260 c 0
 41 260 43 259 45 261 c 1x69
 34 267 42 284 40 296 c 1
 28 306 45 325 33 339 c 1
 33 472 l 2
 33 476 38 484 38 489 c 0
 39 495 33 512 43 519 c 1
 41 521 37 524 36 526 c 0
 35 535 33 547 36 558 c 0
 37 562 39 567 40 570 c 0
 33 579 33 596 33 605 c 0
 33 613 36 614 35 624 c 0
 34 629 36 636 36 641 c 0
 38 656 35 680 42 700 c 1
 34 711 50 725 58 736 c 0
 64 753 85 777 101 781 c 0
 108 783 114 791 124 793 c 0
 134 795 152 794 157 794 c 0xb1
 167 794 196 782 209 772 c 0
 212 769 221 767 226 763 c 0
 232 758 241 750 246 745 c 0
 250 741 252 735 255 728 c 0
 256 725 255 721 256 717 c 0
 257 713 261 708 262 704 c 0xaa
 265 697 262 684 260 673 c 1
 263 667 267 658 267 653 c 0xa9
EndSplineSet
Validated: 33
EndChar

StartChar: D
Encoding: 68 68 36
Width: 320
Flags: MW
HStem: -5 19 6 28<133.5 165.5> 21 24<169 195> 767 34
VStem: 24 44 45 43<601.5 622.5> 246 36
LayerCount: 2
Fore
SplineSet
256 574 m 0x3a
 256 579 255 580 253 582 c 0
 253 587 255 593 254 596 c 0
 251 608 252 619 252 628 c 0
 252 631 249 633 248 635 c 0
 249 640 249 646 249 650 c 0
 243 659 239 670 237 680 c 0
 234 694 231 705 224 721 c 0
 221 727 214 730 209 734 c 0
 208 736 208 737 207 739 c 0
 203 743 196 749 194 754 c 1
 184 756 164 767 160 767 c 0
 156 767 132 767 120 767 c 0
 111 767 100 766 92 763 c 0
 88 761 87 756 87 754 c 0
 87 737 89 715 88 702 c 0
 88 693 88 680 85 672 c 1
 88 668 88 664 88 663 c 0
 88 646 88 630 88 615 c 0
 88 613 87 611 87 611 c 2x9a
 88 600 92 593 87 584 c 1
 93 578 87 560 87 554 c 0
 85 543 89 531 87 522 c 0
 86 521 84 517 83 516 c 0
 83 515 84 513 85 511 c 0
 84 500 82 488 82 478 c 0
 81 476 79 475 79 475 c 1
 81 459 79 449 81 439 c 1
 75 423 85 413 74 400 c 1
 75 365 71 330 71 294 c 0
 71 290 74 287 74 285 c 0
 76 274 74 262 74 252 c 0
 73 243 68 230 68 224 c 0
 67 202 71 170 71 150 c 0
 71 140 66 125 65 115 c 0
 72 89 64 111 62 22 c 0
 64 20 66 16 66 14 c 1
 72 14 75 16 77 16 c 1
 77 22 74 25 76 27 c 0
 80 27 86 31 90 31 c 0
 94 31 131 34 136 34 c 0x5a
 141 34 156 44 169 45 c 0
 176 45 183 46 186 48 c 0
 189 50 193 55 196 57 c 0
 197 59 199 62 199 64 c 0
 208 70 216 79 222 83 c 1
 225 101 229 117 239 133 c 0
 243 139 242 157 237 163 c 1
 241 193 250 162 246 254 c 0
 246 258 243 261 244 265 c 0
 245 269 249 272 249 272 c 1
 240 284 249 298 254 309 c 1
 250 325 258 342 250 354 c 0
 251 358 253 362 256 363 c 1
 253 366 249 369 248 372 c 0
 249 378 247 384 247 388 c 0
 247 393 250 409 252 420 c 0
 254 431 250 444 250 455 c 0
 250 459 253 465 252 469 c 0
 251 475 249 480 249 485 c 0
 250 492 254 501 254 505 c 0
 255 520 251 535 251 550 c 0
 251 557 256 570 256 574 c 0x3a
299 578 m 0x96
 299 573 297 575 296 574 c 0
 295 565 295 550 295 537 c 0
 295 530 292 522 293 511 c 0
 295 480 291 446 287 424 c 0
 286 415 291 400 291 389 c 0
 291 382 287 367 287 359 c 0
 286 352 293 338 285 329 c 1
 285 329 286 328 287 326 c 0
 286 317 285 302 285 289 c 0
 285 274 289 247 280 237 c 0
 278 231 279 224 278 217 c 1
 283 209 283 192 276 180 c 0
 277 176 277 170 276 164 c 0
 275 163 271 161 269 159 c 1
 271 157 275 156 277 154 c 2
 277 139 l 1x9a
 272 120 268 96 261 76 c 0
 260 71 256 62 249 57 c 0
 242 53 236 48 227 44 c 0
 227 42 227 38 226 37 c 0
 219 33 203 18 198 18 c 0
 193 18 197 21 193 21 c 0x3a
 188 21 168 6 163 6 c 0
 159 6 156 8 152 8 c 0x9a
 147 8 105 -5 100 -5 c 0
 96 -5 55 -1 37 3 c 0
 32 4 24 16 24 22 c 0
 25 28 23 35 25 43 c 0
 23 48 23 57 25 65 c 0
 25 67 23 66 23 70 c 2
 26 73 l 1
 25 87 24 100 24 117 c 0x96
 24 122 27 129 27 137 c 0
 27 152 28 174 30 193 c 0
 32 207 29 222 32 237 c 0
 31 239 27 238 27 243 c 0
 27 247 36 282 36 286 c 0
 36 290 29 308 29 313 c 0
 29 316 31 326 33 333 c 0
 32 335 31 339 31 341 c 0
 32 372 33 406 37 439 c 0
 39 454 36 459 41 472 c 0
 43 477 37 485 37 490 c 0
 36 494 38 504 38 509 c 0
 43 541 45 599 45 604 c 0
 45 608 43 609 43 613 c 0
 43 614 44 618 44 622 c 0
 43 633 42 646 39 657 c 0
 40 659 42 662 41 664 c 0
 40 666 40 670 38 672 c 0
 41 689 33 707 44 720 c 1
 42 724 35 727 35 731 c 0
 34 737 37 746 35 753 c 0
 33 764 26 780 29 793 c 0
 32 797 38 801 42 801 c 0
 46 801 42 797 46 797 c 0
 51 797 66 803 70 803 c 0
 74 803 75 799 81 799 c 0
 85 799 106 806 111 806 c 0
 116 806 112 804 117 804 c 0
 121 804 116 808 120 808 c 0
 125 808 126 804 127 804 c 2x9a
 132 808 l 2
 135 806 143 805 146 805 c 0
 150 805 152 799 156 799 c 0
 160 799 165 801 169 801 c 0
 174 801 174 797 176 796 c 0
 188 792 200 787 210 779 c 0
 212 778 215 778 217 778 c 0
 222 773 230 769 235 765 c 0
 257 747 268 714 274 695 c 0
 275 693 279 691 280 689 c 0
 281 685 281 682 281 678 c 0
 281 674 286 671 287 667 c 0
 289 657 289 643 290 631 c 0
 291 626 296 619 296 613 c 0
 298 602 299 582 299 578 c 0x96
EndSplineSet
Validated: 33
EndChar

StartChar: E
Encoding: 69 69 37
Width: 267
Flags: MW
HStem: -6 21G<48 52.5 50 63> -1 36<109 147.5 120.5 147.5> 388 37<111 113.5 105 115.5 113 113.5 105 150> 780 37<213.5 227>
VStem: 25 50<71.5 76> 51 54
LayerCount: 2
Fore
SplineSet
262 795 m 0xb4
 262 791 258 788 258 786 c 1
 251 788 236 790 232 790 c 0
 228 790 220 780 216 780 c 0
 211 780 195 779 190 779 c 0
 186 779 183 782 179 782 c 0
 174 782 173 780 171 779 c 0
 161 778 148 781 134 772 c 0
 126 767 126 750 124 744 c 0
 123 744 122 742 121 740 c 0xb4
 119 711 118 677 118 648 c 0
 118 640 112 626 112 618 c 0
 111 615 113 609 113 604 c 0
 112 583 109 563 108 542 c 0
 107 540 105 539 104 537 c 0
 105 530 105 523 105 515 c 0
 105 491 101 447 101 443 c 0
 101 433 99 425 111 425 c 0
 116 425 152 421 157 421 c 0
 161 421 183 425 187 425 c 0
 191 425 204 423 215 421 c 0
 219 420 227 412 234 406 c 0
 235 403 230 396 226 395 c 0
 203 389 155 388 150 388 c 0
 146 388 118 388 113 388 c 0
 109 388 101 384 98 377 c 0
 95 371 94 363 93 355 c 0
 95 340 96 316 93 302 c 0x78
 92 298 88 294 87 290 c 0
 86 287 88 281 88 276 c 0
 88 271 90 265 90 259 c 0
 90 257 88 253 87 252 c 0
 86 233 86 205 84 183 c 0
 83 172 75 151 75 146 c 2
 75 46 l 1
 87 19 114 45 126 29 c 1
 131 32 137 35 143 35 c 0
 152 35 170 38 174 38 c 0
 192 38 207 18 210 13 c 1
 181 7 127 -1 123 -1 c 0
 118 -1 120 3 115 3 c 0
 110 3 116 -1 111 -1 c 0
 107 -1 87 -1 74 -2 c 0
 71 -3 69 -6 63 -6 c 0
 59 -6 55 -6 50 -6 c 0
 46 -6 39 0 37 2 c 0
 28 9 27 23 27 33 c 0
 27 37 31 41 30 44 c 0
 28 53 25 69 25 74 c 0
 25 78 29 85 28 91 c 0xb8
 23 121 36 157 32 174 c 0
 35 178 38 184 38 189 c 0
 38 193 29 201 29 206 c 0
 29 209 37 244 36 262 c 0
 36 279 36 297 46 317 c 0
 44 320 40 322 37 322 c 1
 37 361 l 2
 36 365 39 381 39 393 c 0
 39 396 40 401 43 404 c 0
 44 406 40 406 40 411 c 0
 40 416 44 450 46 470 c 2
 51 734 l 2
 51 738 55 761 55 774 c 0
 55 783 54 793 55 802 c 0
 56 806 62 810 66 810 c 0
 71 810 83 804 87 804 c 0
 91 804 109 810 120 811 c 0
 154 815 218 817 223 817 c 0
 231 817 262 807 262 795 c 0xb4
EndSplineSet
Validated: 33
EndChar

StartChar: F
Encoding: 70 70 38
Width: 264
Flags: MW
HStem: -14 21G<60.5 66> 386 39<115 143.5> 749 54<186 221 211.5 219>
VStem: 40 40 55 45
LayerCount: 2
Fore
SplineSet
254 768 m 0xe8
 254 763 239 756 238 756 c 0
 233 756 238 758 233 758 c 0
 229 758 224 749 219 749 c 0
 215 749 193 749 188 749 c 0
 184 749 179 751 177 755 c 1xf0
 168 751 153 743 148 743 c 0
 144 743 143 747 139 747 c 0
 134 747 132 742 128 742 c 0
 123 742 117 745 110 747 c 1
 110 722 106 690 106 661 c 0
 105 659 101 659 97 655 c 0
 97 653 101 652 102 648 c 0
 103 630 101 602 100 579 c 0
 99 561 103 526 103 500 c 0
 103 480 102 452 99 432 c 0
 102 428 108 423 112 423 c 0
 117 423 135 425 140 425 c 0
 147 425 161 420 167 416 c 0
 170 414 177 412 181 408 c 0
 182 404 182 398 184 394 c 1
 155 384 147 388 132 385 c 0
 130 385 128 380 123 380 c 0
 118 380 122 386 117 386 c 0
 113 386 100 383 94 379 c 0
 95 375 94 366 93 361 c 0
 92 357 87 356 86 352 c 0
 84 339 85 286 85 257 c 0
 85 252 82 243 82 237 c 2
 82 189 l 2
 82 185 78 180 77 176 c 0
 76 167 78 156 80 145 c 0
 80 141 79 134 78 131 c 0
 68 116 72 107 70 92 c 0
 69 88 71 81 70 76 c 0
 69 75 66 76 66 71 c 0xe8
 66 67 71 50 72 41 c 0
 70 27 73 33 73 30 c 0
 73 26 66 34 72 19 c 1
 70 12 69 -14 63 -14 c 0
 58 -14 60 -18 58 -18 c 0
 56 -19 58 -23 58 -25 c 1
 30 -15 32 7 32 22 c 0
 32 26 36 33 37 37 c 0
 36 39 34 39 33 39 c 1
 34 42 36 46 36 50 c 0
 36 56 38 63 39 71 c 0
 40 72 36 71 36 76 c 0
 36 80 40 82 42 85 c 0
 42 95 49 105 49 108 c 0
 49 112 42 118 40 122 c 0
 43 202 42 203 41 203 c 1
 43 205 43 210 45 213 c 0
 45 215 43 218 43 219 c 0
 43 229 49 249 49 254 c 0
 49 257 42 265 42 269 c 0
 42 274 45 285 46 291 c 0
 46 295 55 298 55 303 c 0
 55 308 49 312 43 314 c 1
 43 324 l 2
 43 327 47 329 51 333 c 1
 47 334 43 339 43 343 c 0
 43 348 49 358 52 365 c 0
 56 372 58 381 58 391 c 0xf0
 58 394 54 398 53 402 c 0
 51 410 56 426 57 437 c 0
 58 448 60 450 61 456 c 0
 62 461 60 466 59 472 c 0
 58 476 61 481 62 487 c 0
 63 491 64 493 64 498 c 0
 64 509 55 528 55 532 c 2
 55 593 l 1
 62 594 58 597 61 604 c 1
 58 611 61 621 61 631 c 0
 61 637 56 645 56 649 c 0
 56 652 62 651 62 665 c 0
 62 668 58 671 58 676 c 0
 58 680 71 701 71 705 c 0
 71 710 62 722 62 726 c 0
 62 730 69 740 69 744 c 0
 69 749 60 777 60 781 c 0
 60 785 64 789 64 792 c 0
 64 794 62 797 62 801 c 1
 64 801 67 804 71 804 c 0
 76 804 99 799 104 799 c 0
 108 799 152 797 156 797 c 0
 160 797 172 801 178 801 c 0
 182 801 209 803 214 803 c 0
 228 803 222 801 243 798 c 1
 242 798 238 798 236 796 c 0
 241 788 254 777 254 768 c 0xe8
EndSplineSet
Validated: 33
EndChar

StartChar: G
Encoding: 71 71 39
Width: 317
Flags: MW
HStem: -15 36<135.5 139.5> -4 21G<190 190> 452 28<222 223.5> 802 41<149.5 173.5>
VStem: 26 27<88 88 88 89.5> 32 43 34 37<235 355> 37 35 230 51 253 35<171.5 197> 266 34<410 415>
LayerCount: 2
Fore
SplineSet
53 88 m 1x6820
 56 88 l 1
 56 94 l 1
 53 94 l 1
 53 88 l 1x6820
300 386 m 0
 299 378 298 364 296 358 c 0
 297 356 297 350 295 347 c 0
 302 339 296 324 291 318 c 1
 295 315 296 305 296 301 c 0
 296 297 289 280 288 266 c 1
 295 258 289 246 285 234 c 0
 285 233 287 229 288 227 c 0
 285 219 289 206 288 197 c 0
 288 186 286 168 280 156 c 0
 279 155 280 151 282 148 c 0
 282 141 281 127 279 118 c 0
 278 108 269 94 268 82 c 0
 266 63 261 39 237 33 c 1
 232 25 223 13 218 8 c 0
 212 2 190 9 194 -7 c 1
 190 -4 l 1
 187 -7 182 -7 178 -9 c 0
 167 -13 142 -15 137 -15 c 0
 134 -15 89 -2 68 6 c 0
 63 8 61 16 55 15 c 1
 48 21 38 32 34 42 c 0
 29 56 26 84 26 89 c 0
 26 90 32 104 36 105 c 0
 36 107 32 110 29 110 c 0
 28 115 24 121 24 126 c 0
 24 130 28 136 30 139 c 0
 32 148 22 160 34 168 c 1
 32 170 26 171 26 175 c 0
 26 180 28 177 29 179 c 0
 30 185 30 193 30 197 c 0
 30 205 28 212 29 220 c 0
 30 229 33 238 34 247 c 0x6120
 36 269 30 261 30 268 c 0
 30 272 39 292 45 303 c 0
 43 306 37 310 34 312 c 2
 34 355 l 2
 35 359 37 362 41 364 c 1
 37 368 35 372 32 375 c 1
 34 379 37 385 41 387 c 0
 42 389 37 391 34 391 c 1
 34 393 34 399 37 403 c 1
 37 403 35 404 34 406 c 0
 35 426 35 457 37 483 c 0
 37 484 32 487 32 492 c 2
 32 547 l 2
 32 550 37 560 38 566 c 0
 35 569 35 574 35 578 c 2
 38 580 l 2
 39 581 36 585 36 586 c 1
 38 586 41 590 40 593 c 0
 41 594 43 593 45 595 c 1
 39 597 30 610 38 618 c 1
 38 618 39 619 38 621 c 0
 37 632 34 656 34 660 c 0
 34 664 36 670 36 673 c 0
 36 703 42 730 58 756 c 1
 54 759 53 766 54 770 c 0
 62 786 71 805 84 818 c 0
 90 824 103 828 109 831 c 0
 113 832 144 843 155 843 c 0
 159 843 180 837 192 833 c 0
 197 831 203 822 209 819 c 0
 215 816 224 811 231 810 c 1xa120
 250 791 265 759 273 727 c 0
 276 717 276 701 277 688 c 0
 279 685 283 676 281 671 c 0
 278 667 266 659 262 659 c 0
 258 659 246 663 240 665 c 0
 236 667 231 673 228 673 c 1
 228 674 228 677 228 679 c 0
 225 694 230 690 230 693 c 0
 230 697 228 720 227 736 c 0
 224 745 220 756 215 767 c 0
 213 774 178 802 169 802 c 0
 155 802 148 787 126 787 c 1
 123 773 108 759 104 752 c 0
 101 746 97 730 90 723 c 1
 87 702 80 667 80 662 c 2
 80 593 l 2
 80 589 78 593 77 592 c 0
 78 571 76 545 75 521 c 0
 74 511 71 499 72 488 c 0
 73 475 72 460 73 447 c 0
 74 435 75 418 74 403 c 0x6420
 73 389 73 373 72 358 c 0
 71 355 68 351 67 347 c 0
 66 339 71 328 68 319 c 0
 67 319 65 318 63 316 c 1
 71 311 70 308 71 301 c 0x6220
 69 238 69 236 71 235 c 1
 68 231 66 228 65 223 c 0
 64 208 63 175 64 155 c 0x6420
 65 136 61 96 61 91 c 0
 61 76 69 45 76 41 c 0
 80 39 88 34 95 30 c 1
 100 33 l 1
 100 32 100 30 102 28 c 0
 132 18 128 21 143 21 c 0x6220
 157 21 170 31 174 34 c 0
 183 40 201 46 210 52 c 0
 217 57 217 67 221 74 c 0x6120
 225 80 230 83 235 87 c 0
 236 89 235 90 235 91 c 0x6220
 239 95 240 106 240 112 c 1
 240 112 241 112 243 114 c 1
 239 115 235 116 235 121 c 0
 235 127 246 133 248 135 c 0
 240 144 249 150 247 166 c 0
 249 168 253 170 253 173 c 0
 253 190 248 221 248 226 c 0x6120
 248 231 250 227 251 229 c 0x6220
 249 261 257 310 256 342 c 0x7120
 256 345 259 348 261 351 c 0
 261 353 259 357 260 359 c 0
 264 366 270 373 268 380 c 0
 267 384 263 388 264 392 c 0
 267 396 271 398 271 403 c 0x7480
 271 407 269 408 266 410 c 0
 266 420 269 421 269 422 c 0
 269 427 267 425 266 425 c 0
 264 432 263 442 265 451 c 1
 262 454 l 1
 249 452 226 452 221 452 c 0
 217 452 213 456 208 456 c 2
 208 456 201 450 188 448 c 1
 188 448 185 448 187 447 c 2
 187 447 189 445 189 443 c 1xa140
 185 443 182 439 178 439 c 0
 166 439 159 452 159 460 c 0
 159 465 160 466 160 468 c 0
 167 472 179 480 186 480 c 0
 195 480 209 483 214 483 c 0
 218 483 220 480 224 480 c 0
 229 480 233 483 237 483 c 0
 242 483 256 482 261 481 c 2
 276 481 l 1
 279 474 288 480 292 480 c 0
 296 465 296 447 300 432 c 1
 298 432 296 431 300 386 c 0
EndSplineSet
Validated: 33
EndChar

StartChar: H
Encoding: 72 72 40
Width: 400
Flags: MW
HStem: -13 21G<48 52> -5 21G 420 28<123 146.5> 803 20G
VStem: 22 50 56 87<796.5 800 796.5 820 796.5 820> 322 51 329 29<161.5 163 161.5 203>
LayerCount: 2
Fore
SplineSet
377 795 m 0x76
 377 790 372 775 372 766 c 0
 372 756 372 743 372 732 c 0
 372 727 370 720 370 712 c 0
 370 702 368 687 368 677 c 0
 368 671 370 660 369 653 c 0
 366 639 369 635 373 625 c 1
 373 538 l 2
 373 533 371 534 370 532 c 0
 370 502 368 468 364 425 c 0
 364 423 362 423 361 421 c 0
 362 416 364 407 364 402 c 0
 364 398 360 390 359 384 c 0
 358 381 360 375 361 370 c 0
 361 364 359 358 359 353 c 0
 359 341 360 326 361 314 c 0
 360 312 358 311 359 309 c 0
 367 284 358 254 358 227 c 0
 357 215 356 198 359 185 c 0
 360 183 356 179 357 176 c 0
 358 174 360 170 362 168 c 1
 360 166 358 164 358 162 c 0
 358 161 356 157 359 154 c 0
 357 137 359 116 359 96 c 0
 359 90 354 82 353 77 c 0
 353 75 356 72 356 68 c 2
 356 32 l 2
 353 30 348 30 344 26 c 1
 341 30 330 30 325 38 c 0
 322 43 323 55 324 62 c 0
 323 64 321 68 318 69 c 1
 329 84 318 118 329 129 c 1
 329 203 l 1
 319 209 327 224 326 232 c 0
 324 247 321 272 321 277 c 0
 321 281 329 301 329 305 c 0
 329 309 327 310 327 312 c 0
 327 316 321 321 317 325 c 1
 324 332 325 346 325 366 c 0
 325 368 323 370 321 372 c 1
 325 373 327 378 329 382 c 0
 327 384 323 386 321 386 c 1
 321 391 322 397 323 426 c 1
 316 424 302 424 289 425 c 1
 287 420 274 420 266 420 c 0
 261 420 212 419 207 419 c 0
 203 419 179 424 175 424 c 0
 170 424 171 423 172 421 c 1x7a
 167 421 157 419 153 419 c 0
 148 419 133 420 129 420 c 0
 117 420 115 420 102 410 c 1
 101 404 100 397 100 392 c 0
 101 367 94 344 88 316 c 0
 87 309 88 299 87 290 c 0
 87 285 81 277 82 271 c 0
 82 256 82 238 76 225 c 0
 75 222 75 216 77 214 c 0
 76 209 78 189 72 186 c 1
 73 182 75 177 74 173 c 0
 73 154 73 135 71 116 c 1
 80 91 68 98 68 92 c 0
 68 87 75 74 75 70 c 2
 75 43 l 1
 68 39 72 31 72 23 c 0xb9
 73 16 71 2 71 -7 c 1
 66 -9 54 -13 50 -13 c 0
 46 -13 36 -9 29 -5 c 1
 27 19 19 62 19 67 c 0
 19 71 22 77 22 81 c 0
 23 88 23 97 21 107 c 0
 21 108 25 112 26 114 c 0
 25 131 20 151 22 170 c 0
 22 172 26 175 26 179 c 0
 26 183 27 188 27 194 c 0
 28 207 26 223 27 238 c 0
 28 243 31 251 32 259 c 0
 32 261 31 264 29 266 c 0
 30 279 34 295 35 307 c 0
 36 342 41 353 43 373 c 0
 45 400 43 438 48 462 c 0
 50 469 47 490 48 505 c 0
 49 515 54 531 52 544 c 0
 47 591 55 615 52 644 c 0
 47 695 56 739 56 772 c 2
 56 820 l 1
 65 832 72 832 88 832 c 0
 108 832 99 835 128 823 c 0
 131 822 136 816 141 813 c 0
 141 809 143 802 143 798 c 0
 143 795 134 768 129 753 c 0
 123 734 128 718 114 701 c 1
 114 701 114 700 114 698 c 0
 116 696 117 694 118 694 c 0
 119 692 119 690 117 688 c 2
 117 688 119 686 119 684 c 2
 119 682 l 1
 117 682 116 682 114 680 c 0
 116 675 118 670 119 664 c 0
 120 657 119 647 117 640 c 0
 119 627 121 603 121 598 c 0
 121 594 115 581 114 575 c 0
 114 570 116 564 115 558 c 0
 114 556 112 554 108 553 c 1
 117 539 112 536 112 521 c 0
 112 503 112 483 111 462 c 0
 113 453 138 448 144 448 c 0
 149 448 162 452 167 452 c 0
 171 452 192 448 196 448 c 0
 200 448 233 448 248 448 c 0
 256 448 274 443 279 443 c 0
 283 443 284 445 289 445 c 0
 293 445 306 446 310 446 c 0
 314 446 317 446 319 443 c 0
 321 443 323 444 324 446 c 0
 325 451 325 456 322 462 c 0
 323 466 330 472 330 477 c 0
 330 481 327 494 324 508 c 1
 327 518 325 531 327 546 c 0
 325 571 323 606 322 632 c 0
 321 636 323 642 324 647 c 0
 326 654 321 664 321 665 c 0x79
 321 669 321 696 324 711 c 0
 325 712 327 714 329 716 c 1
 325 718 322 724 322 729 c 0
 322 745 324 762 326 779 c 0
 329 803 319 802 319 814 c 0
 319 821 331 828 334 828 c 0
 338 828 351 827 355 823 c 0
 365 815 377 805 377 795 c 0x76
EndSplineSet
Validated: 33
EndChar

StartChar: I
Encoding: 73 73 41
Width: 135
Flags: MW
HStem: -16 21G<64 68.5> -6 21G
VStem: 38 51<256 310 256 336 256 338> 42 48<89 110>
LayerCount: 2
Fore
SplineSet
116 783 m 4x60
 116 779 112 772 107 769 c 5
 107 754 103 740 104 723 c 4
 101 719 99 715 96 712 c 4
 95 710 102 707 102 703 c 4
 105 685 107 648 107 644 c 4
 107 639 101 637 100 634 c 4
 95 625 105 618 90 603 c 5
 94 598 97 591 97 586 c 4
 96 584 94 584 93 582 c 4
 89 574 96 564 97 555 c 4x50
 97 536 101 496 101 492 c 4
 101 488 97 477 93 470 c 5
 93 470 94 468 96 466 c 6x90
 96 466 96 464 95 434 c 4
 95 366 92 351 89 310 c 4
 89 295 88 275 89 256 c 4
 88 254 86 253 83 249 c 6x50
 83 225 l 6
 86 217 88 205 88 194 c 4
 88 187 84 176 86 170 c 4
 88 161 90 143 90 138 c 6
 90 25 l 6
 90 20 88 23 87 21 c 4
 86 14 84 3 86 -4 c 4
 86 -6 84 -9 84 -11 c 4
 79 -13 71 -16 66 -16 c 4
 62 -16 49 -10 43 -6 c 5
 41 32 42 68 42 110 c 5
 42 110 44 110 46 112 c 5
 46 112 44 113 42 113 c 5
 43 145 42 170 41 208 c 4
 40 210 38 211 38 216 c 6
 38 336 l 6
 38 340 41 355 41 364 c 4
 42 399 42 451 44 493 c 4
 42 497 42 655 42 658 c 4
 43 674 46 688 47 703 c 4
 47 705 49 707 47 786 c 4
 50 792 51 799 52 807 c 4
 55 811 60 817 65 817 c 4
 69 817 90 811 102 807 c 4
 106 805 109 800 111 797 c 4
 113 795 116 788 116 783 c 4x60
EndSplineSet
Validated: 33
EndChar

StartChar: J
Encoding: 74 74 42
Width: 332
Flags: MW
HStem: -19 37<132 136 136 136.5> -15 21G<118 120> 814 20G<263.5 268.5>
VStem: 32 54<100 107.5 107.5 112> 85 7 229 47 241 53<609 709>
LayerCount: 2
Fore
SplineSet
80 154 m 1xb4
 85 154 l 1
 85 157 l 1
 80 157 l 1
 80 154 l 1xb4
305 804 m 0
 305 799 292 770 292 766 c 0
 292 761 298 757 297 752 c 0
 296 742 296 725 294 709 c 0
 294 707 296 706 297 704 c 0
 296 683 296 659 297 643 c 0
 298 628 300 603 300 598 c 0
 300 594 296 557 292 539 c 0
 292 537 292 535 293 533 c 0
 293 529 289 512 281 509 c 1
 289 497 292 480 292 469 c 0
 292 456 287 439 278 428 c 0
 279 426 281 427 285 427 c 1
 284 412 287 385 287 380 c 0
 287 376 283 337 281 313 c 0
 279 311 278 307 276 305 c 0
 282 280 278 233 277 213 c 0
 276 206 274 198 275 191 c 0
 274 189 272 189 271 187 c 0
 275 177 273 160 271 144 c 0
 271 141 272 135 274 130 c 0
 274 128 274 126 276 87 c 1
 267 63 274 53 248 22 c 0
 242 15 229 10 220 8 c 0
 218 7 214 5 214 4 c 0
 212 3 208 4 205 2 c 0
 199 -1 192 -10 188 -12 c 0
 172 -17 139 -19 134 -19 c 0
 130 -19 122 -15 118 -15 c 0
 91 -14 90 -3 78 4 c 0
 75 6 70 6 67 9 c 0
 60 16 53 30 47 40 c 0
 41 53 29 73 32 89 c 0
 31 91 29 92 29 96 c 0
 29 101 31 98 32 100 c 0
 32 124 30 150 37 173 c 0
 39 176 36 182 37 185 c 0
 40 204 43 225 47 243 c 1
 54 246 63 255 66 255 c 0
 78 255 82 238 84 235 c 0
 85 234 85 230 84 228 c 0x6a
 88 223 92 205 92 193 c 0
 92 188 87 161 86 144 c 0
 85 127 86 115 86 100 c 0
 86 99 83 96 79 93 c 1
 88 88 87 77 89 67 c 0
 91 60 99 55 103 47 c 0
 107 38 125 18 130 18 c 0
 135 18 131 18 136 18 c 0
 146 18 183 34 189 36 c 0
 202 42 213 63 217 76 c 0
 219 81 222 87 223 93 c 0x74
 224 97 220 105 220 113 c 0
 220 121 222 128 224 135 c 1
 220 147 225 167 227 182 c 0
 228 184 229 181 229 186 c 0
 229 190 222 193 222 198 c 0
 222 203 224 200 225 202 c 0
 222 222 228 246 227 268 c 0
 226 279 231 292 232 305 c 1
 232 305 229 303 229 308 c 2
 229 365 l 2
 229 368 233 374 235 380 c 0
 233 406 231 456 231 461 c 0
 231 465 231 474 232 482 c 0
 232 485 235 489 237 493 c 2
 237 493 237 495 238 497 c 0
 239 498 239 498 239 503 c 0
 239 507 237 509 238 511 c 2
 238 513 l 2
 235 518 231 529 231 533 c 0
 231 537 235 548 235 555 c 0
 235 572 237 591 241 609 c 0
 241 611 239 612 241 672 c 1
 237 675 233 684 233 689 c 0
 233 698 237 684 235 716 c 0
 235 727 237 741 238 754 c 0
 238 757 242 764 242 768 c 0
 242 773 239 772 237 774 c 0
 236 778 239 785 240 791 c 0xac
 240 792 239 796 238 800 c 0
 237 803 235 807 235 812 c 0
 235 826 246 827 252 833 c 0
 256 834 261 834 266 834 c 0
 271 834 273 830 275 829 c 0
 283 827 305 814 305 804 c 0
EndSplineSet
Validated: 33
EndChar

StartChar: K
Encoding: 75 75 43
Width: 347
Flags: MW
HStem: -3 21G<307 311.5 309 332> 814 20G<50.5 55.5>
VStem: 32 37 34 41<628 679 679 682.5> 300 34<3 11.5>
LayerCount: 2
Fore
SplineSet
334 9 m 0xe8
 334 5 334 1 332 -3 c 0
 325 -4 314 -3 309 -3 c 0
 305 -3 303 1 300 3 c 2
 300 3 299 5 301 9 c 1
 292 9 l 1
 287 20 278 33 272 44 c 0
 271 45 272 50 271 53 c 0
 265 63 255 77 248 90 c 0
 246 93 246 100 245 105 c 0
 243 113 238 122 233 128 c 0
 232 129 234 133 234 135 c 0
 224 137 216 173 216 183 c 1
 212 189 206 198 203 207 c 0
 203 209 199 212 198 214 c 0
 192 227 184 240 180 251 c 0
 175 263 154 291 154 307 c 1
 138 316 127 356 114 373 c 0
 111 378 110 387 110 394 c 1
 98 404 91 434 76 440 c 1
 76 440 73 439 72 437 c 0
 71 430 73 422 74 415 c 0
 73 413 69 409 69 405 c 0
 69 401 73 396 74 393 c 0
 75 391 73 387 73 384 c 0
 75 382 75 378 75 376 c 0
 75 374 77 372 77 368 c 0
 77 363 75 343 72 331 c 0
 73 328 74 323 74 320 c 0
 74 316 75 307 74 301 c 0
 73 300 73 298 72 296 c 0
 73 265 73 226 70 198 c 0
 69 196 68 194 66 192 c 0
 69 184 69 168 69 163 c 2
 69 116 l 2
 69 112 67 116 67 115 c 0
 65 107 65 100 66 92 c 0
 65 91 62 87 62 84 c 0
 66 78 65 66 65 61 c 1
 65 61 64 61 62 59 c 0
 64 48 62 35 62 25 c 1
 58 20 59 18 60 13 c 0
 58 11 56 8 52 8 c 0
 48 8 39 16 33 22 c 0
 29 26 27 37 27 43 c 0
 27 46 28 60 30 102 c 0
 30 107 32 115 35 120 c 1
 32 126 34 137 32 146 c 0
 33 150 34 153 34 157 c 2
 33 159 l 2xd8
 33 163 32 167 32 170 c 0
 32 181 36 195 39 208 c 0
 40 209 38 213 37 215 c 0
 38 222 47 227 39 230 c 1xe8
 40 231 43 235 43 239 c 0
 43 242 36 251 34 257 c 0
 32 260 34 265 35 268 c 0
 34 270 32 272 32 277 c 1
 35 279 l 2
 36 283 33 290 33 296 c 0
 33 299 37 305 37 311 c 0
 37 331 36 354 35 376 c 0
 36 378 38 381 40 383 c 1
 31 389 37 412 35 422 c 0
 34 426 32 431 32 435 c 0
 32 440 34 447 40 448 c 1
 37 451 32 457 32 462 c 0
 32 465 34 483 35 493 c 0
 35 496 40 501 40 505 c 0
 40 510 36 509 35 511 c 0
 36 516 32 523 32 528 c 0
 32 532 42 546 42 551 c 0
 42 554 32 576 32 580 c 0
 32 585 38 601 39 611 c 0
 40 616 34 624 34 628 c 2
 34 679 l 2
 34 686 40 707 43 711 c 1
 39 714 36 716 36 720 c 0
 36 724 38 741 40 750 c 0
 42 752 45 752 45 756 c 0
 45 760 41 773 38 783 c 0
 37 788 40 795 39 803 c 0
 39 807 30 811 30 815 c 0
 30 819 41 826 48 833 c 0
 49 834 48 834 53 834 c 0
 58 834 76 812 80 810 c 1
 79 797 75 775 75 770 c 2
 75 593 l 2
 78 584 78 568 82 554 c 1xd8
 89 560 95 571 105 576 c 1
 104 580 108 581 111 586 c 0
 112 587 114 591 111 594 c 0
 118 610 130 625 142 637 c 1
 149 657 165 680 183 702 c 0
 182 705 184 713 187 715 c 0
 189 718 195 722 196 726 c 0
 201 742 214 762 226 773 c 1
 233 796 244 819 262 819 c 0
 276 819 301 799 304 795 c 0
 306 792 307 787 306 783 c 0
 308 780 312 778 312 773 c 0
 312 768 307 762 306 758 c 1
 304 760 305 760 301 760 c 0
 297 760 289 755 283 754 c 0
 282 754 280 749 279 746 c 0
 278 744 273 740 270 735 c 0
 266 730 263 712 251 707 c 1
 241 690 234 665 218 646 c 0
 216 644 216 636 213 633 c 0
 207 625 199 615 192 611 c 0
 188 608 179 603 173 596 c 0
 172 594 173 590 172 587 c 0
 170 579 164 566 156 555 c 0
 153 551 147 546 144 542 c 0
 143 540 143 538 143 536 c 0
 137 533 129 530 125 523 c 0
 121 517 116 506 116 502 c 0
 116 498 125 478 128 467 c 0
 133 460 142 448 148 441 c 0
 149 440 148 435 149 432 c 0
 160 410 173 383 180 363 c 0
 183 353 194 339 200 328 c 0
 202 324 204 314 207 308 c 0
 210 300 224 286 222 276 c 0
 223 274 227 273 228 272 c 0
 234 254 242 231 251 215 c 0
 255 209 264 195 269 186 c 0
 272 179 270 170 273 163 c 0
 283 146 297 114 299 98 c 0
 300 93 311 83 317 74 c 1
 315 69 314 61 313 56 c 0
 314 54 317 53 318 52 c 0
 321 49 329 37 326 31 c 1
 330 24 334 14 334 9 c 0xe8
EndSplineSet
Validated: 33
EndChar

StartChar: L
Encoding: 76 76 44
Width: 262
Flags: MW
HStem: 48 13
VStem: 26 36 38 37
LayerCount: 2
Fore
SplineSet
236 49 m 5xa0
 232 47 226 46 222 47 c 4
 216 43 211 37 206 37 c 4
 201 37 189 41 185 41 c 4
 180 41 185 37 180 37 c 4xa0
 176 37 151 34 147 34 c 4
 143 34 134 37 129 37 c 4
 125 37 120 34 115 34 c 4
 111 34 107 35 103 35 c 4
 99 35 75 30 70 30 c 4
 66 30 43 37 35 47 c 4
 30 51 27 64 26 73 c 4
 25 133 28 157 29 164 c 4
 30 167 32 171 32 175 c 4xc0
 32 181 30 189 30 194 c 4
 30 197 31 209 39 213 c 4
 38 216 34 217 34 221 c 4
 34 226 38 235 36 240 c 4
 38 242 39 242 41 244 c 4
 37 249 36 257 36 260 c 4
 36 264 37 271 39 277 c 4
 40 283 38 295 41 301 c 4
 41 303 39 307 40 309 c 4
 43 315 41 329 42 340 c 4
 41 342 41 343 40 345 c 4
 39 349 42 353 42 357 c 4
 44 364 39 379 44 387 c 5
 45 402 44 420 44 440 c 4
 44 443 45 447 45 451 c 4
 46 456 45 462 45 468 c 4
 45 473 42 479 42 484 c 4
 42 495 51 512 51 517 c 4
 51 521 41 526 41 530 c 4
 41 534 45 553 49 564 c 4
 47 565 43 566 40 569 c 4
 40 573 42 579 41 582 c 4
 38 588 36 599 36 603 c 4
 36 607 39 612 39 616 c 4
 39 620 38 629 38 636 c 4
 38 638 41 642 42 644 c 4
 41 649 45 657 45 662 c 4
 45 666 41 671 40 677 c 4
 39 686 41 695 42 705 c 4
 43 721 40 742 42 760 c 4
 42 765 38 772 38 777 c 4
 38 779 41 795 49 795 c 4
 56 795 71 790 74 786 c 4
 81 779 80 765 79 758 c 4
 76 740 78 721 76 703 c 5
 85 682 75 686 75 682 c 6
 84 483 l 6
 84 479 80 436 76 416 c 5
 76 373 78 372 78 368 c 4
 78 364 75 362 75 358 c 4
 74 336 74 312 71 290 c 4
 70 279 69 264 70 251 c 5
 65 238 71 221 61 203 c 5
 62 186 64 166 61 155 c 4
 62 144 62 132 61 120 c 4
 60 111 62 97 62 88 c 4
 62 84 58 82 58 77 c 6
 58 66 l 5
 65 65 76 59 81 59 c 4
 86 59 113 67 118 67 c 4
 123 67 141 58 146 58 c 4
 151 58 193 67 198 67 c 4
 202 67 203 61 207 61 c 4
 212 61 220 61 224 61 c 4
 227 58 234 54 236 49 c 5xa0
EndSplineSet
Validated: 33
EndChar

StartChar: M
Encoding: 77 77 45
Width: 401
Flags: MW
HStem: -11 21G<67.5 72.5> -7 21G<345.5 351.5> -3 21G
VStem: 28 54 35 58<353 354> 55 42<644 648.5> 121 42 315 44 322 48<290 294 290 294>
LayerCount: 2
Fore
SplineSet
381 556 m 0x3280
 381 551 377 528 377 514 c 0
 376 500 381 476 370 469 c 1
 372 457 374 442 373 427 c 0
 372 399 370 369 369 342 c 0
 368 341 366 340 364 338 c 0
 364 336 368 333 369 331 c 0
 370 325 370 317 372 310 c 2
 372 310 370 308 370 290 c 2
 371 267 l 1
 371 267 372 254 371 253 c 0
 368 251 367 245 367 240 c 0
 366 220 368 197 366 175 c 0
 365 169 359 150 356 140 c 1
 364 132 353 112 353 110 c 0
 353 106 355 95 359 88 c 1
 355 78 365 37 365 34 c 0
 365 29 361 9 360 -3 c 0
 357 -5 354 -7 349 -7 c 0
 342 -7 323 0 321 5 c 0
 312 32 318 48 318 68 c 0
 317 69 318 73 319 77 c 0
 318 79 315 79 315 84 c 0
 315 87 317 119 318 138 c 0
 318 152 317 170 319 184 c 0x3280
 319 188 322 194 322 197 c 0
 320 205 320 216 322 223 c 0
 322 246 322 270 322 294 c 0
 324 296 326 296 328 298 c 0
 328 300 324 303 320 306 c 1
 322 386 320 388 320 390 c 0
 324 406 328 429 328 447 c 0
 329 448 331 450 332 451 c 0
 333 455 331 459 331 462 c 2
 333 463 l 2
 333 467 332 471 332 475 c 0
 331 480 326 486 326 491 c 0
 326 495 334 509 332 516 c 0
 329 539 333 556 332 575 c 1
 333 575 335 577 337 579 c 1x53
 333 582 328 586 328 590 c 0
 326 608 325 629 326 649 c 1
 323 652 l 1
 319 650 316 646 313 643 c 0
 313 641 313 640 313 638 c 0
 311 634 308 629 306 623 c 0
 304 620 305 616 305 612 c 0
 305 609 299 605 296 601 c 0
 291 591 288 573 284 560 c 0
 283 555 276 548 274 543 c 0
 272 536 274 528 271 522 c 0
 270 518 268 514 263 508 c 1
 265 507 266 505 268 505 c 1
 267 502 263 500 260 497 c 0
 258 484 253 462 242 451 c 0
 242 449 244 446 248 443 c 0
 248 440 252 437 252 433 c 0
 252 420 240 429 250 415 c 1
 248 415 247 413 242 413 c 0
 217 413 190 470 191 479 c 1
 186 486 176 500 180 510 c 0
 180 517 176 524 173 534 c 1
 149 550 148 584 139 606 c 0
 138 609 139 614 139 618 c 0
 133 642 113 657 124 675 c 0
 124 680 118 686 118 693 c 1
 111 699 105 705 97 711 c 1
 95 704 94 695 94 691 c 0
 94 687 97 675 97 670 c 0
 97 662 96 649 97 640 c 0
 98 632 102 625 102 618 c 0
 102 616 102 577 101 573 c 0
 100 568 98 561 96 556 c 0
 96 555 98 551 98 547 c 0
 98 539 96 527 95 516 c 0
 94 505 100 488 95 477 c 1x5280
 96 461 96 451 98 438 c 1
 89 418 97 392 95 377 c 0
 95 373 90 369 90 364 c 0
 90 361 93 357 93 353 c 0
 92 337 91 326 89 310 c 0
 88 300 88 285 87 271 c 0
 86 253 89 233 79 216 c 1
 89 212 82 196 82 186 c 0
 82 171 87 146 87 142 c 0
 87 138 85 134 84 131 c 0
 82 114 79 91 81 73 c 0
 81 68 89 59 76 51 c 1
 78 49 79 49 81 48 c 0
 79 38 85 17 85 12 c 0
 85 8 85 3 84 -3 c 0
 82 -6 75 -11 70 -11 c 0x2a80
 65 -11 63 -9 62 -8 c 0
 56 -9 38 -5 35 6 c 0
 35 11 35 20 36 25 c 0
 35 27 35 30 34 32 c 0
 33 40 35 49 34 58 c 0
 33 60 30 64 28 64 c 1
 30 69 35 78 35 83 c 0
 35 87 28 105 28 109 c 0
 28 113 33 167 34 195 c 1
 34 195 33 197 32 199 c 0
 34 220 28 246 39 270 c 1
 39 270 39 271 39 273 c 0
 39 275 37 278 36 280 c 0
 35 282 35 345 35 349 c 0
 35 359 37 372 40 383 c 0
 41 385 39 388 37 392 c 0
 37 393 39 394 40 396 c 0
 41 398 39 399 37 399 c 1
 39 409 37 423 37 436 c 0
 37 442 39 453 40 462 c 0
 41 470 37 483 44 492 c 1
 44 492 43 493 41 493 c 1
 41 502 41 514 41 523 c 1
 41 523 39 520 39 525 c 0
 39 526 47 531 42 547 c 1
 44 559 44 579 45 594 c 0
 47 607 48 622 51 638 c 0
 54 640 55 642 55 646 c 0
 55 651 52 652 50 654 c 0
 48 669 44 697 44 702 c 0
 44 706 46 720 48 733 c 0
 49 737 53 739 53 744 c 0
 53 748 50 747 49 747 c 0
 48 758 46 757 46 758 c 0
 46 763 50 764 50 766 c 0
 48 769 46 776 49 779 c 0
 58 793 66 798 77 798 c 0
 86 798 98 784 102 779 c 0
 109 770 121 760 127 749 c 0
 133 736 137 718 143 703 c 0
 148 696 152 684 153 679 c 0
 156 673 167 658 163 647 c 1
 174 625 180 610 191 582 c 0
 193 581 192 577 192 573 c 0
 197 560 210 539 214 523 c 0
 216 513 221 494 229 483 c 0
 231 483 231 485 232 487 c 0
 235 503 245 523 249 537 c 0
 250 538 248 542 246 546 c 0x9280
 253 556 255 572 258 582 c 0
 259 583 261 585 262 587 c 0
 263 590 262 596 263 599 c 0
 266 607 271 616 274 624 c 0x2680
 279 634 283 650 287 662 c 0
 291 672 300 684 304 697 c 0
 303 699 302 701 302 703 c 0
 306 709 310 716 314 722 c 0
 316 725 321 744 329 748 c 1
 325 753 318 763 318 768 c 0
 318 772 326 780 328 786 c 0
 333 789 343 791 348 791 c 0
 352 791 358 790 360 788 c 0
 375 776 377 752 370 740 c 0
 372 738 372 736 370 655 c 0
 372 621 381 560 381 556 c 0x3280
EndSplineSet
Validated: 33
EndChar

StartChar: N
Encoding: 78 78 46
Width: 361
Flags: HMW
HStem: -15 9 -15 21G<65 69.5> -8 21G<310.5 316.5> -3 21G -1 21G<55 55>
VStem: 30 20 34 50 44 46 282 40<309.5 334> 282 44<111.5 331 150 150.5 309.5 318>
LayerCount: 2
Fore
SplineSet
50 -6 m 1x0940
 56 -4 l 1
 55 -1 l 1
 50 -4 l 1x8440
 50 -6 l 1x0940
330 356 m 0x0980
 330 352 328 347 329 341 c 0
 328 339 326 336 322 334 c 1
 326 331 l 1
 326 150 l 1
 321 145 325 139 323 134 c 0
 321 131 319 128 319 124 c 0
 319 119 320 121 322 119 c 0
 320 109 322 95 323 82 c 0
 323 79 328 73 328 69 c 0x0980
 328 65 324 63 320 60 c 1
 331 46 322 22 330 6 c 1
 326 2 319 -8 314 -8 c 0
 307 -8 285 4 284 14 c 0
 283 20 285 30 286 37 c 0
 287 41 290 53 285 58 c 1x0940
 286 63 285 71 287 77 c 0
 287 79 285 82 284 84 c 0
 285 93 282 109 282 114 c 0
 282 118 285 131 289 138 c 0x2180
 290 140 286 141 282 143 c 1
 282 158 282 175 278 245 c 1
 285 254 282 275 284 290 c 0x2140
 285 296 282 307 282 312 c 0x0a40
 282 324 284 351 289 358 c 1
 284 365 276 374 271 382 c 0
 268 385 265 390 264 395 c 0
 262 398 257 399 254 400 c 0
 246 406 239 417 236 424 c 0
 233 427 221 437 227 445 c 0
 226 447 222 448 219 450 c 0
 217 453 213 458 214 462 c 0
 211 465 204 469 206 474 c 0
 203 477 194 490 192 496 c 0
 185 501 180 511 171 517 c 1
 171 528 150 549 147 562 c 0
 145 571 137 577 129 585 c 0
 123 591 122 602 120 610 c 0
 119 612 116 613 113 613 c 0
 108 621 104 633 92 633 c 1
 91 621 91 601 90 584 c 0
 89 583 85 579 85 575 c 0
 85 571 91 565 91 560 c 0
 92 541 93 506 93 502 c 0
 93 497 89 493 88 488 c 0
 95 469 90 428 90 399 c 0
 90 397 85 393 82 388 c 1
 82 388 81 387 83 385 c 1x0940
 84 387 85 382 85 380 c 0
 87 373 89 364 91 356 c 2
 91 287 l 2
 91 283 87 271 86 262 c 1
 86 262 85 262 83 260 c 1
 87 257 89 241 89 235 c 0
 89 231 83 229 83 225 c 0
 84 221 85 215 83 212 c 2x0a40
 85 121 l 2
 84 109 82 93 81 80 c 0
 79 64 86 34 83 12 c 0x0940
 82 10 79 6 79 3 c 0
 79 -1 80 -4 79 -9 c 0x4240
 76 -11 72 -15 67 -15 c 0
 63 -15 43 -8 36 -3 c 1
 36 9 30 38 30 43 c 0
 30 47 34 80 38 97 c 0
 37 100 34 104 34 108 c 2
 34 158 l 2
 34 163 35 160 36 162 c 0
 35 169 38 178 38 186 c 0
 38 193 40 202 40 212 c 0
 40 217 37 225 40 232 c 1
 40 232 37 231 37 236 c 0x1240
 37 240 36 271 40 290 c 0
 40 294 48 299 48 303 c 0
 48 308 45 310 43 311 c 0
 43 315 45 321 45 327 c 0
 45 332 39 338 39 342 c 0
 39 347 42 351 42 354 c 0
 42 367 38 378 45 386 c 1
 44 397 43 408 45 417 c 0
 44 426 48 440 48 445 c 0
 48 449 49 450 45 452 c 0x0940
 45 454 47 458 46 459 c 0
 40 468 43 486 45 499 c 0
 45 502 43 506 42 510 c 0
 41 545 41 582 44 619 c 0
 41 620 40 624 40 628 c 0x0a40
 39 635 43 643 40 650 c 0
 35 664 38 675 38 688 c 0
 36 708 28 748 28 752 c 0
 28 766 51 774 54 774 c 0x0940
 63 774 86 751 90 744 c 0
 94 736 98 723 101 712 c 0
 103 706 116 689 114 682 c 1x0a80
 130 672 134 655 139 642 c 1
 153 624 169 603 178 584 c 0x0940
 182 577 197 564 198 557 c 0
 211 538 221 521 231 503 c 0
 232 501 238 497 242 493 c 0
 257 476 266 453 279 433 c 1
 282 439 285 452 285 456 c 0
 285 460 280 461 280 465 c 0
 280 471 278 478 278 483 c 0
 278 491 281 491 287 493 c 1
 275 505 278 521 277 536 c 0
 277 546 276 559 282 573 c 1
 282 739 l 2
 282 743 272 755 272 760 c 0
 272 767 279 781 292 781 c 0
 296 781 311 776 318 771 c 0
 322 768 328 757 328 752 c 0
 328 747 324 744 321 741 c 0
 320 734 325 727 323 719 c 0
 322 709 317 694 317 690 c 0
 317 686 319 684 320 680 c 0
 322 670 322 649 324 634 c 0
 324 627 320 618 321 610 c 0
 322 605 324 599 324 594 c 0
 324 590 320 589 319 587 c 0
 324 565 321 538 319 519 c 0
 318 506 320 491 320 480 c 0
 321 471 322 463 321 452 c 0
 321 449 315 444 315 440 c 0
 315 436 321 426 323 419 c 0x0980
 326 413 327 404 327 397 c 0
 325 388 327 376 328 371 c 0
 328 369 328 365 327 364 c 0x0940
 328 362 330 361 330 356 c 0x0980
EndSplineSet
Validated: 33
EndChar

StartChar: O
Encoding: 79 79 47
Width: 398
Flags: MW
HStem: -7 21G<178 182> -7 37<178 192> 722 52<222.5 251>
VStem: 21 53<425.5 458> 34 39<349 391 362 391 373 391 375 391> 76 15 309 45 321 50<557 563.5>
LayerCount: 2
Fore
SplineSet
321 559 m 0xb1
 321 568 323 588 317 599 c 1
 316 611 317 623 312 638 c 0xb1
 307 655 301 673 291 688 c 0
 283 698 272 707 267 716 c 0
 262 718 253 722 249 722 c 0
 245 722 203 724 185 720 c 0
 168 715 149 703 136 695 c 0
 130 691 120 690 114 681 c 0
 108 671 100 656 94 651 c 1
 95 651 97 649 97 648 c 0
 91 631 82 606 84 585 c 0
 83 583 84 579 81 577 c 0
 80 561 81 541 74 522 c 0
 71 513 78 496 69 490 c 1
 73 488 74 484 74 481 c 0
 74 470 74 461 74 455 c 0
 74 451 72 447 71 445 c 0
 72 442 72 430 69 427 c 0
 75 401 68 411 68 405 c 1
 70 403 l 2xa9
 70 401 69 397 69 397 c 2
 69 396 73 392 73 390 c 0
 71 388 68 384 68 382 c 0
 71 376 75 376 75 371 c 0
 75 367 71 353 69 343 c 1xb1
 78 335 70 323 70 317 c 0
 71 316 72 314 72 314 c 1
 73 304 74 296 73 288 c 0
 71 287 70 285 68 285 c 1
 72 276 69 274 70 269 c 0
 71 266 73 262 72 259 c 0xa9
 72 255 68 251 68 249 c 0
 67 240 69 230 68 224 c 0
 72 217 74 208 70 197 c 1xb1
 74 191 77 181 79 171 c 2
 79 157 l 2
 77 155 76 154 76 152 c 1
 79 155 77 148 82 145 c 0
 81 142 80 138 81 134 c 0
 87 128 95 112 88 103 c 1
 94 96 99 85 102 75 c 0
 104 70 104 62 107 58 c 0
 111 52 122 46 126 41 c 1
 146 39 186 30 190 30 c 0
 194 30 247 56 273 71 c 1
 272 80 271 92 281 97 c 0
 282 99 282 101 284 103 c 0
 279 116 287 130 291 142 c 0
 292 145 290 151 291 155 c 0
 299 182 303 212 305 236 c 0
 305 241 311 243 313 247 c 0
 316 252 311 259 309 261 c 0
 312 279 310 297 311 314 c 0
 312 318 316 323 316 325 c 0
 316 333 310 341 311 347 c 0
 312 360 312 375 316 386 c 1x65
 316 425 317 464 318 501 c 0
 318 518 321 555 321 559 c 0xb1
371 594 m 2
 371 451 l 2
 371 447 362 410 361 395 c 0
 360 362 362 329 361 297 c 0
 360 284 361 271 359 258 c 0
 358 253 354 245 354 238 c 0
 354 228 359 211 349 202 c 0
 349 201 351 198 352 196 c 0
 349 163 337 136 331 110 c 0
 328 108 325 103 321 99 c 1
 321 99 323 98 325 98 c 1
 321 80 312 65 292 43 c 0
 291 43 289 43 288 42 c 0xb1
 284 37 279 28 271 25 c 0
 261 20 241 12 226 7 c 0
 225 6 221 0 217 -1 c 0
 206 -5 184 -7 180 -7 c 0
 176 -7 158 2 148 5 c 0
 138 8 125 5 114 10 c 0
 106 14 94 23 85 27 c 1
 79 37 64 52 59 64 c 0
 55 72 52 87 50 97 c 0
 47 106 42 120 38 132 c 0
 37 140 38 151 37 160 c 0
 37 164 32 170 31 173 c 0xaa
 33 175 36 181 35 184 c 0
 35 188 28 198 27 203 c 0
 25 216 23 238 23 243 c 0
 23 247 27 263 28 271 c 1
 36 278 32 282 38 286 c 1
 34 288 34 289 31 292 c 0
 32 295 34 299 34 304 c 0
 34 308 33 310 29 312 c 1
 29 317 27 325 27 330 c 0
 27 334 31 344 34 349 c 1
 30 361 34 361 34 362 c 0
 34 366 28 361 34 373 c 1
 34 375 l 2
 34 379 29 379 27 384 c 0
 23 398 21 423 21 428 c 0
 21 432 25 479 26 505 c 0
 27 505 29 507 30 509 c 0
 31 512 31 516 32 520 c 0
 32 521 29 525 29 529 c 0
 29 533 31 542 31 548 c 0
 32 549 34 553 36 555 c 1
 36 555 35 556 33 556 c 0
 31 558 31 562 30 564 c 0
 32 578 27 576 27 577 c 0
 27 582 29 579 30 581 c 0
 28 586 30 594 31 601 c 0
 32 613 35 626 37 640 c 0
 38 647 41 657 44 666 c 0
 45 668 50 670 52 674 c 0
 57 682 60 693 64 701 c 0
 67 707 77 712 81 715 c 0
 83 717 85 723 88 726 c 0
 101 735 115 745 129 753 c 0
 133 755 140 754 143 757 c 0
 152 759 163 763 174 765 c 0
 177 766 181 771 185 772 c 0
 198 773 220 774 225 774 c 0
 228 774 254 769 269 764 c 0
 270 764 272 759 276 756 c 0
 278 755 283 756 286 755 c 0
 291 752 299 742 307 735 c 0
 318 724 328 716 335 705 c 0
 337 701 345 697 346 690 c 0
 351 672 361 658 362 642 c 0
 362 640 360 638 358 636 c 1
 360 634 364 633 365 631 c 0
 366 621 371 598 371 594 c 2
EndSplineSet
Validated: 33
EndChar

StartChar: P
Encoding: 80 80 48
Width: 291
Flags: MW
HStem: -5 21G<62.5 65> 323 33<79 83.5> 488 8 705 28
VStem: 26 47 38 39 217 13 218 52<509 510 479 512 509 510 479 516.5>
LayerCount: 2
Fore
SplineSet
230 570 m 1xf9
 227 568 223 570 221 572 c 0
 221 583 217 603 217 607 c 0
 217 612 221 622 223 627 c 1
 210 637 205 658 200 669 c 0
 175 722 116 700 81 705 c 1
 79 700 78 691 77 686 c 0
 77 684 79 682 78 558 c 0
 79 495 78 494 78 494 c 2
 79 470 77 445 77 423 c 0
 77 412 77 401 76 390 c 0
 76 386 73 384 73 380 c 0
 73 375 80 362 79 356 c 1
 85 356 l 1
 89 359 l 1
 99 361 110 365 115 365 c 0
 119 365 118 363 122 363 c 0
 127 363 128 367 130 368 c 0
 133 369 137 369 141 369 c 0
 143 371 145 374 147 375 c 0
 150 376 156 378 159 381 c 0
 161 387 163 385 171 394 c 0
 173 395 174 395 176 395 c 0
 208 419 206 456 218 485 c 0
 217 493 218 504 218 512 c 0
 218 521 221 538 221 542 c 0
 221 546 217 546 219 548 c 0
 221 548 223 551 225 551 c 1
 223 553 221 554 222 556 c 0
 223 558 227 560 228 560 c 1
 227 564 230 569 230 570 c 1xf9
277 553 m 1
 274 550 l 2
 273 544 274 533 272 527 c 0
 271 522 274 516 270 510 c 0
 270 508 275 500 267 496 c 1
 271 494 271 490 275 488 c 1
 271 486 270 483 270 479 c 0
 269 464 269 447 265 430 c 0
 259 406 252 395 244 386 c 0
 242 383 236 375 229 369 c 0
 210 351 193 346 176 340 c 0
 157 332 117 322 113 322 c 0
 108 322 91 323 76 323 c 1
 73 309 75 293 72 279 c 0
 71 274 74 268 73 199 c 0
 73 186 67 167 66 155 c 0
 66 146 69 134 69 125 c 0
 69 122 66 120 66 116 c 0
 66 111 69 114 70 112 c 0
 69 110 68 108 67 107 c 0
 68 95 68 82 68 71 c 0
 68 66 67 59 68 53 c 0
 69 49 73 46 73 42 c 0
 73 37 71 40 71 38 c 0
 71 35 70 31 70 27 c 0
 69 17 67 6 65 -5 c 1
 60 -5 51 -7 46 -7 c 0
 34 -7 25 4 31 19 c 1
 21 30 32 49 31 60 c 0
 29 64 23 66 23 71 c 0
 23 74 30 98 32 101 c 1
 32 101 31 102 29 102 c 1
 29 108 29 114 25 120 c 1
 31 124 31 132 32 136 c 2
 32 170 l 2
 32 174 28 173 27 177 c 0
 25 186 23 203 23 208 c 0
 23 212 26 221 26 227 c 0
 26 235 24 247 25 257 c 0
 26 260 29 265 30 272 c 0
 30 275 31 279 28 281 c 0
 29 284 32 288 32 293 c 0
 32 297 25 311 25 316 c 0
 25 320 30 333 31 340 c 0
 31 353 28 369 28 383 c 0
 28 389 31 399 32 405 c 0
 32 411 30 421 31 429 c 0
 31 432 35 437 35 444 c 0
 36 453 33 467 31 477 c 0
 29 486 35 500 37 510 c 1
 32 523 32 532 37 545 c 1
 34 555 36 569 35 581 c 0
 35 590 40 605 42 616 c 1
 32 633 45 667 45 685 c 0
 45 696 31 718 31 727 c 0
 34 731 40 737 44 737 c 0xf6
 49 737 55 733 60 733 c 0
 65 733 130 746 135 746 c 0
 139 746 151 744 157 744 c 0
 158 742 159 741 161 739 c 0
 169 739 176 741 185 741 c 1
 189 737 l 1
 195 737 201 729 204 728 c 0
 211 726 220 723 226 716 c 0
 227 714 227 711 227 709 c 0
 233 706 243 699 248 690 c 0
 252 685 257 672 259 664 c 0
 260 661 259 655 260 651 c 0
 271 630 268 608 270 586 c 0
 271 583 274 579 274 575 c 0
 275 570 273 562 274 557 c 0
 275 555 277 553 277 553 c 1
EndSplineSet
Validated: 33
EndChar

StartChar: Q
Encoding: 81 81 49
Width: 471
Flags: MW
HStem: -6 38 -6 41<149.5 173 149.5 202> 15 20 18 41<403.5 444> 133 32<251 252> 729 41<253 269.5>
VStem: 32 46 44 41 393 51<525 590.5 558 590.5>
LayerCount: 2
Fore
SplineSet
308 78 m 0x8e80
 308 79 295 102 289 102 c 0
 284 102 286 100 286 100 c 1
 288 105 280 113 276 125 c 1
 267 129 254 133 250 133 c 0
 245 133 226 121 224 118 c 0
 214 101 212 75 211 60 c 0
 210 52 204 38 200 32 c 1
 218 35 236 35 252 40 c 0
 266 44 277 55 287 62 c 0
 293 66 308 70 308 78 c 0x8e80
401 486 m 0
 399 488 397 491 396 493 c 0
 400 502 397 517 393 525 c 1
 393 538 393 552 393 564 c 0
 393 580 392 596 392 608 c 0
 386 629 381 649 374 667 c 1
 357 680 331 715 304 719 c 0
 300 719 296 726 292 726 c 0
 288 726 290 724 285 724 c 0
 280 724 272 729 267 729 c 0
 263 729 238 727 224 725 c 0
 209 723 190 719 180 712 c 0
 175 709 168 706 166 704 c 0
 151 693 134 675 119 662 c 1
 120 656 119 655 115 651 c 0
 107 629 98 602 95 584 c 0
 93 575 91 566 91 558 c 0
 90 556 88 555 87 553 c 0
 86 551 88 548 89 547 c 0
 90 537 91 526 89 517 c 0
 86 499 86 479 84 464 c 0
 81 452 83 436 82 427 c 0
 80 417 76 407 71 399 c 1
 84 378 74 340 75 327 c 0
 77 308 84 286 85 267 c 0
 85 252 84 233 85 221 c 0
 85 215 90 210 91 204 c 0
 93 193 91 182 92 171 c 0
 93 165 96 159 96 154 c 0
 96 137 102 114 106 95 c 1
 113 85 136 35 163 35 c 0x8e80
 169 35 172 42 172 51 c 0
 173 52 176 54 178 54 c 1
 178 75 l 2
 175 77 173 80 173 82 c 0
 179 87 178 94 179 99 c 0
 182 109 193 119 201 125 c 0
 199 128 201 132 200 134 c 0
 206 140 212 146 218 151 c 0
 225 156 235 156 238 158 c 0
 238 160 241 163 243 164 c 0
 247 164 249 165 253 165 c 0
 257 165 278 159 287 157 c 0
 303 151 319 122 335 104 c 0
 336 104 339 104 339 104 c 1
 343 109 348 117 350 121 c 0
 352 126 349 132 350 135 c 0
 366 157 351 185 373 200 c 1x4d80
 371 206 366 213 366 217 c 0
 366 221 373 266 377 290 c 1
 370 327 390 371 390 401 c 0
 390 409 384 427 394 434 c 1x4e80
 397 450 384 462 401 486 c 0
458 45 m 0
 458 41 456 41 456 39 c 1
 452 39 449 37 445 36 c 1
 447 34 449 34 451 34 c 1
 447 35 445 33 441 32 c 0
 439 31 441 30 441 28 c 1
 439 28 437 28 435 29 c 0
 426 29 432 20 422 20 c 0
 418 20 410 18 405 18 c 0
 402 18 378 20 366 24 c 0
 360 27 351 35 340 40 c 0
 337 41 333 39 326 40 c 0
 323 38 321 36 322 32 c 0
 311 25 297 16 284 11 c 0
 258 3 206 -6 202 -6 c 0
 198 -6 175 -6 171 -6 c 0
 166 -6 150 -2 137 0 c 0
 130 3 121 4 114 8 c 0
 114 9 118 15 113 15 c 0
 108 15 114 13 109 13 c 0
 105 13 103 20 100 21 c 0
 99 26 97 31 93 35 c 0
 61 67 43 125 48 152 c 0
 47 154 45 158 44 160 c 0
 44 171 41 185 40 197 c 0
 39 209 40 220 35 234 c 1
 37 241 34 247 34 254 c 0x1e80
 33 265 29 285 29 290 c 2
 29 334 l 2
 29 338 35 361 37 373 c 0
 39 390 32 385 32 395 c 2
 32 465 l 2
 32 469 38 474 39 477 c 0
 45 493 36 495 36 502 c 0
 36 507 40 510 40 517 c 0
 42 518 44 520 45 521 c 0
 45 523 44 524 42 525 c 0
 41 528 42 535 43 540 c 0
 43 541 40 544 40 549 c 0
 40 553 45 590 48 608 c 0
 48 612 54 616 58 619 c 1
 56 660 85 681 105 710 c 1
 113 714 125 719 135 726 c 0x4e80
 140 729 152 744 157 744 c 0
 161 744 160 742 166 742 c 0
 170 742 171 745 174 746 c 0
 178 748 185 754 192 756 c 0
 200 759 211 761 220 763 c 0
 231 765 251 770 255 770 c 0
 259 770 299 766 319 762 c 0
 323 761 327 760 330 758 c 0
 334 756 335 751 339 748 c 0
 367 747 399 711 420 679 c 0
 424 673 429 660 432 651 c 0
 434 642 435 624 436 614 c 0
 438 606 444 595 444 586 c 0
 444 564 447 522 447 518 c 2
 447 469 l 2
 447 466 440 460 440 456 c 0
 440 443 439 423 437 406 c 0
 437 403 439 397 439 393 c 0
 438 383 431 362 430 349 c 0
 429 342 429 334 428 326 c 0
 427 323 423 317 422 312 c 0x2e80
 420 303 423 291 422 280 c 0x1d80
 421 278 419 275 419 273 c 0
 420 270 416 263 416 258 c 0
 416 254 420 249 419 245 c 0
 418 237 414 230 411 223 c 1
 414 217 412 211 412 204 c 1
 401 191 406 176 405 162 c 0
 404 152 398 134 396 123 c 0
 395 122 391 119 389 117 c 0
 388 113 388 109 384 108 c 0
 384 104 386 100 385 97 c 0
 379 87 373 77 367 69 c 1
 375 64 400 55 404 55 c 0
 408 55 435 59 440 59 c 0
 448 59 458 52 458 45 c 0
EndSplineSet
Validated: 37
EndChar

StartChar: R
Encoding: 82 82 50
Width: 297
Flags: MW
HStem: -14 21G<62 66.5> -10 21G -3 35<219 243> 0 21G<199 200> 430 28 736 46<82 159>
VStem: 27 42<100 107 107 109> 44 40 242 50<593 594>
LayerCount: 2
Fore
SplineSet
242 591 m 0x2d80
 242 597 236 592 241 609 c 1
 236 622 237 640 236 650 c 0
 234 667 225 683 219 695 c 0
 210 710 179 736 150 736 c 0
 146 736 111 736 82 736 c 1
 79 721 77 701 77 696 c 0
 77 692 79 688 82 686 c 0
 81 637 83 587 84 537 c 0
 85 504 85 468 85 434 c 1
 109 448 137 445 158 449 c 0
 161 450 166 457 169 458 c 0
 172 458 177 458 181 461 c 0
 182 462 184 466 186 467 c 0
 200 473 213 491 218 505 c 0
 220 507 223 511 225 513 c 0
 229 533 235 553 241 572 c 0
 242 576 242 586 242 591 c 0x2d80
292 595 m 0
 292 591 289 576 288 565 c 2
 288 565 288 563 289 561 c 0
 288 557 288 551 288 546 c 0
 285 533 281 518 275 504 c 0
 275 502 275 500 275 498 c 0
 270 488 260 477 250 471 c 0
 247 468 249 462 247 457 c 0
 242 447 232 438 219 431 c 0
 215 429 206 431 201 430 c 0
 199 427 197 421 193 420 c 0
 179 415 154 406 149 406 c 0
 145 406 139 406 134 408 c 0
 132 406 131 406 131 402 c 0
 131 398 142 378 144 367 c 0
 148 347 157 320 158 304 c 0
 158 297 164 286 165 280 c 0
 167 268 171 252 173 237 c 0
 176 206 177 174 180 143 c 0
 181 138 185 130 186 122 c 0
 188 102 190 82 200 61 c 0
 201 59 208 34 217 34 c 0
 221 34 236 32 241 32 c 0
 245 32 251 36 256 36 c 0
 260 36 263 31 265 27 c 1
 265 27 267 29 267 30 c 1
 268 29 270 29 270 24 c 0
 270 19 268 21 268 20 c 0
 268 18 254 -1 249 -1 c 0
 245 -1 225 -3 221 -3 c 0
 217 -3 208 -2 200 0 c 0
 198 0 195 4 192 6 c 0
 188 9 181 9 174 15 c 0
 167 20 163 27 159 35 c 0
 157 40 157 48 156 55 c 0
 152 59 146 65 148 72 c 1
 144 77 141 89 146 95 c 1
 140 109 133 131 133 136 c 0
 133 140 133 154 136 161 c 0
 137 165 140 168 142 172 c 1
 122 189 123 199 128 213 c 0
 127 217 125 220 124 224 c 2x2d80
 124 224 124 227 126 228 c 0
 130 229 125 231 126 233 c 0
 125 237 127 241 128 244 c 0
 125 250 124 255 124 261 c 1
 113 266 119 286 115 294 c 0
 112 302 108 313 106 324 c 0
 106 327 107 333 106 337 c 0
 105 344 100 353 98 359 c 0
 96 366 98 376 96 383 c 0
 94 387 93 387 89 392 c 0
 87 392 85 389 85 385 c 0x1d80
 82 359 84 313 78 282 c 0
 79 280 81 278 81 276 c 0
 81 274 79 272 78 270 c 0x8e80
 74 228 72 182 69 131 c 0
 70 120 70 109 69 100 c 0
 72 90 73 80 67 70 c 1
 74 49 69 14 70 -10 c 0
 68 -11 69 -14 64 -14 c 0
 60 -14 52 -12 46 -11 c 1
 43 -5 36 4 34 11 c 0
 35 18 37 28 36 37 c 0x4d80
 35 45 31 54 27 63 c 1
 27 107 l 2
 27 111 31 130 33 144 c 0
 31 150 29 156 29 160 c 0
 29 164 31 168 31 172 c 0
 31 181 31 194 33 202 c 0
 34 206 40 210 40 213 c 0
 40 218 33 224 33 229 c 0
 33 233 42 272 48 294 c 0
 46 296 44 296 40 296 c 1
 40 307 l 2
 40 311 47 328 46 337 c 0
 45 348 42 369 42 374 c 0
 42 379 49 423 49 428 c 0
 49 432 44 440 44 445 c 2
 44 600 l 1
 38 606 38 614 38 622 c 0
 37 630 38 643 38 652 c 0
 38 658 35 671 35 676 c 2
 35 720 l 2
 35 724 38 748 37 761 c 0
 40 765 45 770 48 770 c 0
 83 777 152 782 157 782 c 0x4e80
 161 782 187 771 192 771 c 0
 197 771 191 773 196 773 c 0
 199 773 216 761 224 756 c 0
 227 754 230 750 232 746 c 0
 234 745 236 745 238 744 c 0
 242 742 246 736 249 731 c 0
 249 730 251 726 252 722 c 0
 253 721 255 721 256 720 c 0
 262 714 269 702 274 691 c 0
 278 681 281 665 284 655 c 0
 288 635 292 600 292 595 c 0
EndSplineSet
Validated: 33
EndChar

StartChar: S
Encoding: 83 83 51
Width: 342
Flags: MW
HStem: 18 34<155.5 170.5 155.5 202> 731 46<211 215>
VStem: 26 61<570 601 554.5 603 597.5 601 554.5 603> 61 16 259 49<660 686> 260 60
LayerCount: 2
Fore
SplineSet
324 188 m 0xd4
 324 184 320 182 318 178 c 0
 319 177 317 173 317 169 c 0
 325 137 312 123 308 91 c 1
 302 83 292 70 283 58 c 0
 271 47 258 35 239 24 c 0
 229 19 206 18 202 18 c 0
 197 18 173 18 168 18 c 0
 164 18 146 24 141 24 c 0
 137 24 139 20 133 20 c 0
 128 20 128 24 124 24 c 0xd4
 119 24 119 22 115 22 c 0
 111 22 90 31 78 39 c 0
 75 42 66 49 61 52 c 0
 54 58 45 69 41 78 c 0
 39 83 39 92 39 100 c 1
 39 100 41 98 43 98 c 0
 44 105 40 107 37 113 c 0
 33 124 28 144 28 149 c 0
 28 153 32 162 32 167 c 0
 33 179 30 192 32 203 c 0
 33 214 37 227 37 240 c 0
 40 244 43 255 42 259 c 1
 48 261 55 263 61 263 c 0
 63 266 61 274 63 276 c 0
 74 274 75 251 79 245 c 1
 76 213 78 175 77 140 c 0
 80 129 81 116 82 105 c 1
 82 105 83 103 84 101 c 0
 86 90 93 73 105 67 c 0
 115 61 150 52 161 52 c 0
 165 52 198 56 209 61 c 0
 221 67 234 78 244 90 c 0
 251 100 255 117 262 132 c 0
 261 136 260 138 260 141 c 0
 260 145 262 151 263 156 c 0
 267 178 261 195 268 212 c 1
 258 218 259 235 263 247 c 1
 256 261 261 274 258 287 c 0
 253 313 234 334 220 354 c 0
 215 361 192 364 187 373 c 1
 176 376 157 387 153 387 c 0
 148 387 152 385 147 385 c 0
 143 385 109 398 93 404 c 0
 89 405 87 414 84 417 c 0
 82 420 50 428 61 445 c 0
 59 447 58 448 56 449 c 0
 49 448 36 464 35 469 c 0
 35 471 37 474 36 478 c 0
 35 480 33 484 32 486 c 0
 32 493 29 502 29 510 c 0
 28 530 26 565 26 570 c 0
 26 574 26 592 26 603 c 1
 30 608 33 615 33 620 c 0
 33 625 28 629 26 632 c 1
 32 636 35 652 39 662 c 0
 40 665 46 670 47 673 c 0
 50 680 50 691 56 699 c 0
 58 702 63 705 66 707 c 0
 67 709 66 712 67 714 c 0
 87 740 117 759 134 763 c 0
 135 763 138 768 141 769 c 0
 156 774 182 779 187 779 c 0
 191 779 195 776 200 776 c 0
 204 776 205 777 210 777 c 0
 238 777 291 743 293 721 c 0
 293 718 304 706 306 697 c 0
 307 694 308 688 308 684 c 0
 308 678 303 671 306 664 c 0xe8
 307 660 313 654 313 650 c 0
 313 646 309 632 306 623 c 0
 307 618 311 607 311 603 c 2
 311 539 l 2
 308 533 304 524 296 519 c 0
 293 517 286 516 281 516 c 0
 277 516 269 520 265 520 c 0
 254 520 240 536 240 537 c 0
 240 541 244 544 245 545 c 0
 250 584 259 658 259 662 c 0
 259 666 257 685 256 695 c 0
 256 699 253 706 249 711 c 0
 246 715 240 722 232 727 c 0
 227 730 217 731 213 731 c 0
 209 731 185 729 171 723 c 0
 166 721 159 713 150 708 c 0
 144 704 137 698 129 690 c 0
 124 685 116 677 111 669 c 0
 105 657 98 643 93 632 c 0
 90 626 87 612 87 601 c 0
 87 587 87 571 87 556 c 0
 87 553 82 547 82 543 c 0
 82 534 83 524 84 515 c 1
 83 515 79 515 79 510 c 0
 79 506 91 483 95 473 c 0
 97 470 94 466 95 462 c 0
 103 453 112 446 118 443 c 0
 123 442 128 441 132 440 c 0
 133 438 133 437 134 435 c 0
 145 433 157 432 168 429 c 0
 185 423 205 413 221 408 c 0
 227 407 231 399 236 396 c 0
 268 383 288 353 293 327 c 0
 294 325 298 321 299 320 c 0
 301 312 307 297 309 286 c 1
 306 278 310 272 311 267 c 0
 311 258 313 247 310 236 c 1
 313 230 316 225 317 219 c 0
 317 214 320 205 321 199 c 0
 322 195 324 192 324 188 c 0xd4
EndSplineSet
Validated: 33
EndChar

StartChar: T
Encoding: 84 84 52
Width: 392
Flags: MW
HStem: -12 21G 0 21G 730 45<26 49.5 59.5 64 26 133> 755 55<314 333>
VStem: 173 60 179 46<327 371> 184 36<96 300>
LayerCount: 2
Fore
SplineSet
381 780 m 0x62
 381 776 379 771 376 768 c 0
 356 763 345 755 321 755 c 0
 317 755 316 756 312 756 c 0
 308 756 263 749 238 743 c 0
 233 742 226 738 226 731 c 0
 226 727 227 728 228 726 c 0
 230 719 229 710 230 704 c 0
 232 674 237 651 233 615 c 1x64
 234 614 l 1
 232 611 l 1
 235 599 236 577 233 561 c 0
 230 544 238 521 228 509 c 0
 227 507 229 504 230 502 c 0
 230 496 228 491 224 485 c 1
 228 472 228 459 227 448 c 0
 225 413 225 372 225 330 c 0
 225 324 220 305 220 300 c 2
 220 117 l 2
 222 111 224 100 222 93 c 0
 224 91 225 91 227 91 c 1
 227 66 l 1
 223 61 223 56 224 52 c 0x62
 214 43 226 26 225 13 c 0
 224 5 222 -3 220 -12 c 1
 204 -9 205 -17 198 -17 c 1xa4
 196 -12 189 -4 182 0 c 0
 182 4 179 16 179 20 c 0
 179 25 185 52 186 69 c 0
 186 72 184 75 184 80 c 0
 185 82 189 81 189 86 c 0
 189 90 184 94 184 98 c 0
 184 106 183 115 185 120 c 0xa2
 182 128 179 127 176 133 c 1
 178 142 178 155 180 163 c 0x62
 177 182 178 226 180 257 c 0x68
 180 261 177 264 176 268 c 0
 174 279 180 291 179 302 c 0
 178 307 175 313 174 318 c 0
 174 322 177 328 177 331 c 0
 177 340 179 350 179 359 c 0
 179 383 175 407 175 431 c 0
 175 436 174 444 173 452 c 0
 173 455 174 461 174 464 c 2
 172 467 l 2
 172 471 176 468 176 470 c 0
 176 472 174 476 172 477 c 0
 174 494 179 524 179 529 c 0x62
 179 533 176 541 176 546 c 0
 175 567 175 592 177 611 c 0x68
 178 627 174 681 173 727 c 0
 171 732 167 735 164 735 c 0
 156 736 146 736 141 736 c 0
 137 736 138 730 133 730 c 0
 128 730 52 730 47 730 c 0x62
 39 730 13 750 13 760 c 0
 13 769 24 775 28 775 c 0
 33 775 35 771 40 771 c 0
 44 771 57 775 62 775 c 0
 66 775 85 782 90 782 c 0x68
 94 782 92 780 97 780 c 0
 101 780 107 784 113 785 c 0
 138 790 168 795 195 796 c 0
 201 796 212 796 219 798 c 0
 227 799 237 804 241 804 c 0
 246 804 246 801 251 801 c 0
 255 801 256 804 256 805 c 0x52
 274 806 312 810 316 810 c 0
 320 810 335 806 343 806 c 0
 345 805 345 799 349 799 c 0
 353 799 353 801 358 801 c 0
 368 801 381 792 381 780 c 0x62
EndSplineSet
Validated: 33
EndChar

StartChar: U
Encoding: 85 85 53
Width: 367
Flags: MW
HStem: -9 40 0 31<100.5 128.5>
VStem: 31 39<145 210> 54 37 285 44 313 41<648.5 690> 315 35
LayerCount: 2
Fore
SplineSet
354 688 m 0x98
 354 676 345 649 351 629 c 0
 352 626 350 619 350 616 c 0x98
 350 606 348 594 347 588 c 0
 345 569 345 543 342 521 c 0
 341 520 339 519 338 517 c 2
 338 517 339 516 341 514 c 0
 339 501 339 488 337 475 c 0x68
 339 470 339 464 339 459 c 0
 339 455 337 442 336 436 c 0
 334 426 336 411 335 401 c 0
 335 397 329 391 329 388 c 0
 330 365 332 343 331 321 c 0
 330 314 328 303 327 293 c 0
 325 278 329 260 327 243 c 0
 326 234 322 214 322 203 c 0
 321 202 319 198 316 196 c 0
 315 191 320 186 319 180 c 0
 317 158 312 132 309 108 c 1x98
 309 108 308 108 306 106 c 0
 305 104 308 100 310 97 c 1
 308 97 306 95 305 93 c 0
 303 84 298 68 294 56 c 0
 289 43 277 29 264 17 c 0
 261 14 252 12 246 8 c 0
 241 5 226 -9 211 -9 c 0
 206 -9 142 -8 138 -8 c 0
 133 -8 118 2 114 2 c 0
 110 2 113 0 109 0 c 0
 92 0 83 15 83 15 c 2
 78 15 84 13 79 13 c 0
 75 13 53 35 44 45 c 0
 43 47 43 50 42 52 c 0
 42 55 34 59 33 63 c 0
 31 68 29 77 29 82 c 0
 28 97 25 121 28 138 c 0
 29 150 30 143 25 147 c 0
 27 150 29 157 29 162 c 0
 29 169 32 180 32 188 c 0
 32 193 31 198 31 208 c 0
 31 212 34 215 34 219 c 0
 35 228 35 239 36 251 c 0
 37 254 35 259 36 262 c 0
 37 264 41 265 41 269 c 0
 41 274 34 300 34 304 c 0
 34 308 36 319 38 325 c 0
 39 337 38 358 41 368 c 0
 41 371 38 374 38 378 c 0
 38 383 45 401 51 412 c 0
 49 415 43 418 43 423 c 0
 43 427 47 447 45 458 c 0xa8
 47 460 49 462 51 464 c 0
 49 467 47 471 45 474 c 0
 45 476 47 480 47 482 c 0
 45 492 47 505 47 516 c 0
 48 528 43 550 43 554 c 0
 43 559 45 556 45 558 c 0
 43 567 43 575 52 586 c 1
 52 586 51 587 49 587 c 1
 49 591 51 597 52 603 c 0
 52 604 51 608 49 610 c 0
 49 615 50 618 52 625 c 0
 50 628 47 635 47 640 c 0
 47 643 51 650 52 656 c 0
 53 686 54 742 54 747 c 0
 54 756 47 760 47 765 c 0
 47 776 58 785 63 785 c 0
 77 785 89 768 91 754 c 0
 89 667 89 665 90 664 c 0
 88 659 91 649 84 643 c 0
 84 641 86 638 86 634 c 0
 86 630 85 623 85 617 c 0
 85 616 86 612 86 608 c 0
 86 603 88 595 87 590 c 0
 88 588 86 585 84 584 c 0
 84 582 86 578 86 577 c 0x94
 82 547 91 498 81 480 c 0
 80 478 82 477 83 477 c 1
 81 468 80 456 79 447 c 0
 80 445 80 442 81 440 c 0
 81 425 78 408 77 393 c 0
 76 391 75 389 74 388 c 0
 75 351 73 297 73 251 c 0
 71 237 70 217 70 199 c 0
 70 182 69 164 70 145 c 0
 69 140 65 131 65 127 c 0
 65 122 69 105 70 97 c 0
 71 94 69 90 69 86 c 0
 76 82 77 68 81 60 c 0
 86 50 95 51 102 47 c 0
 107 44 113 40 115 35 c 0
 118 35 122 31 126 31 c 0
 131 31 176 29 180 29 c 0
 184 29 185 33 188 34 c 0
 194 36 201 37 207 37 c 0
 209 38 209 42 212 46 c 0
 215 48 221 51 226 55 c 0
 227 57 229 61 229 62 c 0
 232 64 239 68 241 73 c 0
 247 93 255 118 261 140 c 0
 262 143 262 149 260 153 c 1
 268 158 263 159 265 166 c 0
 265 169 269 174 270 177 c 0
 274 186 273 203 276 218 c 0
 276 219 277 223 279 225 c 0
 279 236 278 250 278 260 c 0x92
 278 271 281 292 284 308 c 0
 285 312 282 315 281 319 c 0
 284 326 285 336 286 345 c 0
 287 355 283 372 284 382 c 0
 285 386 289 391 291 397 c 0
 292 403 289 414 289 421 c 0
 299 442 293 469 296 491 c 0
 300 495 301 501 303 506 c 0
 302 516 300 530 307 538 c 1
 308 553 310 570 314 584 c 0
 316 588 321 590 325 592 c 1
 323 601 317 612 316 621 c 0
 314 630 313 646 313 651 c 0
 313 661 318 689 321 694 c 0
 321 696 320 705 325 710 c 1
 309 710 316 729 312 738 c 1
 318 744 315 759 315 767 c 0x94
 315 771 319 789 318 797 c 0
 321 801 328 809 332 809 c 0
 337 809 341 807 345 807 c 0
 346 801 350 794 350 790 c 0
 350 785 349 765 347 754 c 0
 347 751 343 748 343 743 c 0
 343 739 345 742 346 741 c 0
 345 733 344 723 345 714 c 0
 347 706 354 692 354 688 c 0x98
EndSplineSet
Validated: 33
EndChar

StartChar: V
Encoding: 86 86 54
Width: 352
Flags: MW
HStem: -6 21G<156 163> 802 20G<304.5 309>
VStem: 118 23<266.5 279> 119 33 144 21<15 34> 165 20<123 145> 201 32 264 43 299 29<795.5 820 795.5 820>
LayerCount: 2
Fore
SplineSet
328 798 m 0xd3
 328 793 326 795 326 793 c 0
 324 784 325 773 324 763 c 0
 323 760 321 754 319 749 c 0
 318 743 318 743 314 741 c 1
 317 725 307 708 307 693 c 0
 307 672 302 670 300 658 c 0
 293 624 281 566 274 526 c 0xd3
 273 524 271 522 269 521 c 0
 267 514 265 505 266 497 c 0
 265 495 263 491 262 489 c 0
 265 471 253 448 251 432 c 0
 249 419 247 401 245 387 c 1
 240 381 237 371 234 362 c 0
 232 354 234 340 233 332 c 0
 233 328 226 312 223 302 c 0
 222 298 223 289 222 282 c 0
 221 277 217 271 216 265 c 0
 214 260 217 254 216 249 c 0
 214 234 206 216 206 203 c 0
 206 199 200 197 199 191 c 0
 199 189 200 186 202 186 c 1
 200 172 201 149 185 145 c 0
 185 143 186 139 188 136 c 2
 188 134 l 1xd7
 181 119 189 123 189 121 c 0
 189 117 183 124 187 110 c 1
 189 108 l 1
 187 100 187 85 178 78 c 1
 179 73 181 71 184 70 c 1
 181 65 172 58 175 51 c 0
 176 49 178 49 179 49 c 1
 178 42 178 34 175 27 c 0
 172 24 167 21 165 17 c 0
 165 13 165 4 169 -3 c 1
 169 -9 l 1
 167 -9 165 -6 161 -6 c 0
 151 -6 150 11 151 16 c 0
 151 18 147 21 144 22 c 0xcb
 143 26 146 30 144 34 c 0
 142 38 140 43 138 49 c 0
 137 53 141 58 139 60 c 1xd3
 139 60 141 60 143 62 c 1
 141 64 138 63 136 63 c 1
 136 65 134 69 133 69 c 0
 132 77 131 83 134 88 c 1xe3
 131 98 132 112 129 123 c 0
 119 159 122 186 119 214 c 0
 121 216 123 217 122 219 c 0
 117 229 127 234 124 241 c 0
 121 244 117 249 115 253 c 0
 117 256 113 260 114 264 c 0
 115 267 118 273 118 276 c 0
 118 282 115 287 116 293 c 1
 112 297 114 305 114 314 c 0
 114 317 114 322 110 326 c 0
 110 328 112 332 113 334 c 0
 112 339 107 349 110 353 c 1
 108 358 106 363 103 369 c 0
 104 376 102 385 105 391 c 0
 104 393 100 392 100 397 c 0
 100 402 108 422 108 427 c 0
 108 430 98 443 97 451 c 0
 95 475 91 500 88 526 c 0
 86 532 82 538 81 543 c 0
 78 550 78 558 79 564 c 2
 79 564 78 565 78 566 c 0
 77 586 73 610 70 628 c 0
 69 637 65 650 60 660 c 0
 60 661 62 665 61 667 c 0
 60 672 53 679 51 686 c 0
 49 692 47 701 46 708 c 0
 44 716 46 728 44 736 c 0
 42 745 37 756 35 767 c 0
 33 778 25 797 25 802 c 0
 25 807 28 818 37 818 c 0
 41 818 57 810 62 805 c 0
 66 802 68 792 65 787 c 0
 69 767 76 743 81 721 c 0
 84 702 94 676 100 647 c 0
 102 634 104 612 105 597 c 0
 106 588 108 571 112 560 c 1
 112 560 112 558 111 556 c 0
 114 545 116 532 118 519 c 0
 119 501 120 476 123 458 c 0
 126 442 136 419 129 402 c 1
 132 392 134 376 133 367 c 0
 138 353 136 330 135 316 c 0xd3
 137 310 136 300 137 293 c 0
 138 287 141 277 141 267 c 0
 141 266 137 262 138 259 c 0
 141 255 145 249 145 243 c 0
 143 236 143 222 145 214 c 0
 144 194 151 173 152 154 c 0
 152 151 149 147 150 143 c 0
 151 132 149 118 156 105 c 1
 156 105 156 105 158 106 c 0
 160 111 165 121 165 125 c 0
 165 129 158 134 158 139 c 0
 158 143 168 159 172 168 c 0
 173 171 170 175 170 178 c 0
 170 181 175 192 178 195 c 1xd7
 176 199 169 201 169 205 c 0
 169 209 176 217 178 223 c 0
 179 228 176 237 178 242 c 0
 180 252 180 255 188 260 c 1
 186 264 182 268 182 272 c 0
 182 276 186 282 189 288 c 0
 191 292 190 299 190 308 c 0
 190 313 193 322 196 327 c 0
 203 334 202 339 197 343 c 1
 202 351 204 362 207 371 c 0xd3
 208 373 206 376 205 376 c 0
 202 385 212 402 207 412 c 0
 208 417 215 425 216 432 c 0
 220 449 223 465 225 482 c 1
 216 493 228 497 229 506 c 1
 224 514 235 526 236 538 c 0
 237 545 235 555 238 564 c 0
 239 567 246 572 248 575 c 0
 252 580 249 585 247 589 c 0
 244 598 250 617 253 623 c 0
 253 627 250 631 249 635 c 0
 253 644 261 659 265 673 c 0
 266 679 262 688 264 695 c 0
 265 699 271 708 273 714 c 0
 279 732 282 753 289 771 c 0
 289 773 287 777 287 778 c 0
 292 790 299 806 299 812 c 2
 299 820 l 1
 301 820 302 822 307 822 c 0xd280
 311 822 318 818 322 815 c 0
 326 811 328 802 328 798 c 0xd3
EndSplineSet
Validated: 33
EndChar

StartChar: W
Encoding: 87 87 55
Width: 393
Flags: MW
HStem: -14 21G<232.5 237.5 235 258> -11 21G
VStem: 34 52 55 44<196 303.5> 138 71<302 342.5> 189 40 207 51<-14 18> 292 34<352 366 353.5 374> 321 33 351 30 364 30<748 750.5>
LayerCount: 2
Fore
SplineSet
394 768 m 2x5520
 394 731 l 2
 394 727 388 726 387 723 c 0
 384 717 383 707 382 698 c 0
 381 692 380 686 381 677 c 0
 382 673 385 669 384 666 c 0
 382 661 376 655 376 646 c 0
 373 609 367 574 356 540 c 0x5520
 355 536 354 528 354 522 c 0
 352 505 345 486 341 470 c 0x5540
 338 455 338 443 334 427 c 0
 332 420 337 399 327 399 c 1
 333 392 332 383 330 371 c 0
 329 370 327 368 326 366 c 0
 326 341 317 303 309 275 c 0
 308 271 311 264 309 259 c 0x54a0
 305 246 301 233 299 222 c 0
 296 201 291 185 288 161 c 0
 287 157 289 153 288 149 c 0
 285 142 283 135 280 129 c 1
 284 119 276 97 276 91 c 1
 283 86 269 63 267 55 c 0
 271 39 261 25 258 5 c 0
 258 2 261 0 261 -5 c 2
 258 -14 l 1
 248 -6 240 -14 235 -14 c 0
 230 -14 215 -7 209 -1 c 0
 205 3 207 13 207 18 c 0
 206 29 204 42 205 53 c 0
 206 67 187 86 197 107 c 1
 190 113 190 130 192 137 c 1
 189 142 188 148 191 153 c 1
 188 160 189 166 189 172 c 0
 189 173 188 175 188 179 c 0
 187 183 183 187 181 190 c 0x9320
 179 196 179 203 177 211 c 0
 177 212 177 214 174 215 c 1
 169 198 161 182 168 174 c 1
 156 167 155 145 154 138 c 0
 152 112 142 81 135 57 c 0
 135 55 138 51 137 47 c 0
 132 32 125 10 119 -10 c 0
 114 -13 101 -18 97 -18 c 0
 92 -18 94 -18 89 -18 c 0
 86 -18 77 -10 72 -8 c 0
 70 -4 68 5 68 13 c 0
 70 15 72 15 73 17 c 0
 74 19 73 20 73 25 c 0
 67 30 66 34 66 39 c 0
 66 43 70 57 71 64 c 1
 71 64 74 62 74 66 c 0x9520
 74 71 72 68 70 68 c 0
 69 91 70 117 67 138 c 0
 67 143 72 151 69 157 c 0
 68 159 66 161 65 166 c 0
 64 170 67 179 67 185 c 0
 67 190 68 198 65 203 c 1
 71 224 56 263 64 272 c 1
 64 288 l 2
 63 291 59 293 55 293 c 1
 55 314 54 345 52 375 c 0
 52 379 50 386 49 392 c 0
 48 394 46 398 42 399 c 1
 47 417 45 440 45 455 c 0
 45 460 48 468 48 472 c 2
 48 518 l 2
 46 520 44 521 43 522 c 0
 39 534 41 554 40 568 c 0
 40 576 34 592 34 603 c 0
 34 624 34 646 35 668 c 0
 36 675 31 685 31 692 c 0
 31 701 33 712 34 722 c 0
 35 728 27 740 27 744 c 0
 27 748 35 754 41 759 c 0
 44 760 49 760 54 760 c 0
 58 760 60 754 62 750 c 0x6520
 62 748 64 748 65 748 c 0
 71 736 79 726 78 716 c 0
 75 698 76 679 78 661 c 0
 78 659 82 655 82 651 c 0
 82 646 81 640 82 635 c 0
 82 634 86 629 86 625 c 0
 86 612 86 595 88 579 c 0
 88 577 86 573 85 572 c 0
 87 566 94 501 94 479 c 0
 94 475 93 474 91 470 c 0
 89 466 92 461 92 457 c 0
 92 452 91 445 91 437 c 0
 91 428 90 414 90 401 c 0
 90 398 86 395 86 390 c 0
 86 386 88 387 89 386 c 0
 90 376 95 360 96 348 c 0
 97 337 98 318 97 303 c 0
 97 300 99 295 99 291 c 2
 99 196 l 1
 103 193 l 2
 104 193 107 194 108 196 c 0
 112 207 116 218 122 230 c 1
 125 256 133 285 138 302 c 0
 138 305 136 309 137 313 c 0
 142 330 149 348 154 364 c 0
 153 370 155 377 157 381 c 0
 158 383 164 383 166 386 c 0
 171 390 174 395 177 400 c 0
 178 400 180 400 185 400 c 0
 195 400 197 383 198 381 c 0
 206 367 209 348 209 337 c 0
 210 316 218 291 217 279 c 0
 217 271 227 219 230 185 c 0
 231 175 231 163 229 150 c 1
 232 150 236 156 238 159 c 0
 245 177 251 194 255 211 c 0
 255 216 259 222 258 228 c 1
 263 233 261 231 268 235 c 1
 266 237 262 236 261 236 c 1x5920
 263 238 267 242 269 245 c 0
 271 248 273 253 275 257 c 0
 270 269 270 285 277 302 c 0
 280 310 283 324 286 335 c 0
 287 340 286 350 289 356 c 1
 292 352 l 1
 296 352 l 1
 296 358 292 367 292 372 c 0
 292 376 295 386 296 400 c 0
 297 406 295 416 296 424 c 0
 297 429 302 438 304 444 c 1
 304 444 303 445 302 446 c 0
 305 463 305 481 317 491 c 1
 313 503 321 504 323 516 c 0
 324 522 322 529 321 536 c 1
 332 552 329 568 333 584 c 0
 334 589 338 594 341 600 c 1x5520
 338 616 347 638 349 655 c 0
 350 665 348 693 355 700 c 1
 353 701 351 701 351 706 c 0
 351 710 358 724 360 731 c 0x54a0
 361 736 362 742 364 748 c 0
 364 753 361 760 363 765 c 0
 364 768 367 772 368 776 c 1
 373 776 381 774 390 774 c 1x5540
 390 776 394 773 394 768 c 2x5520
EndSplineSet
Validated: 33
EndChar

StartChar: X
Encoding: 88 88 56
Width: 345
Flags: MW
HStem: -3 21G 769 23
VStem: 18 31 119 36 160 27 179 36
LayerCount: 2
Fore
SplineSet
334 769 m 2xf0
 334 765 321 733 313 717 c 0
 312 716 310 716 309 715 c 0
 300 692 291 670 285 648 c 1
 272 632 262 604 256 583 c 0
 254 579 247 573 244 565 c 0
 238 550 230 517 220 489 c 0
 219 485 213 477 210 470 c 0
 209 467 210 461 209 456 c 0
 208 450 205 441 205 436 c 0
 205 432 208 434 206 425 c 1
 210 417 215 408 215 398 c 0
 215 385 215 366 222 360 c 0xe8
 223 358 222 354 222 350 c 0
 223 335 231 320 228 308 c 1
 232 303 232 293 236 287 c 1
 234 274 251 245 241 237 c 0
 241 235 245 234 246 234 c 0
 248 227 251 217 255 209 c 0
 258 203 258 192 257 186 c 1
 257 186 258 184 259 183 c 0
 260 177 260 168 261 162 c 0
 262 160 266 158 267 154 c 0
 272 136 273 117 281 99 c 0
 284 91 286 71 288 56 c 1
 301 37 300 16 311 -3 c 1
 306 -11 312 -18 314 -22 c 0
 311 -24 307 -25 303 -25 c 0xe4
 297 -25 273 -8 272 -7 c 0
 266 4 262 19 259 32 c 0
 257 45 252 58 249 71 c 0
 247 84 239 104 235 119 c 0
 232 132 231 151 226 165 c 0
 209 218 205 248 196 278 c 0
 187 307 185 337 179 366 c 1
 175 365 172 363 170 359 c 0
 165 351 163 338 161 328 c 0
 159 318 149 304 150 294 c 0
 147 291 145 283 141 276 c 0
 134 267 122 258 132 250 c 1
 129 245 115 231 127 226 c 1
 109 220 115 191 103 187 c 1
 105 185 105 184 105 182 c 0
 101 167 96 150 91 136 c 0
 92 134 92 129 91 126 c 0
 88 117 79 106 76 96 c 0
 75 87 75 76 74 67 c 0
 73 66 68 64 66 59 c 0xe8
 62 49 62 35 56 23 c 0
 51 11 51 -8 49 -24 c 0
 47 -24 47 -26 43 -26 c 0
 38 -26 40 -21 35 -21 c 0
 31 -21 27 -23 23 -24 c 1
 23 -23 20 -21 18 -21 c 1
 18 19 l 2
 18 23 38 95 44 115 c 0
 50 135 61 161 69 186 c 0
 80 222 91 262 101 299 c 0
 102 302 108 308 109 312 c 0
 115 324 119 337 124 351 c 0
 131 372 144 396 149 417 c 0
 153 430 159 446 158 461 c 0
 157 465 160 470 160 474 c 0
 160 479 154 499 152 508 c 0
 148 527 140 558 134 582 c 0
 133 585 132 591 129 596 c 0
 128 598 131 602 130 605 c 0
 122 613 119 638 119 650 c 0
 119 654 113 660 111 665 c 0
 106 672 107 686 107 696 c 0
 105 703 99 710 98 718 c 0
 94 722 88 730 87 737 c 1
 87 737 88 737 90 739 c 1
 86 741 75 762 75 769 c 0
 75 774 85 792 98 792 c 0
 102 792 111 787 116 786 c 0
 131 776 136 736 137 723 c 0
 139 706 149 686 146 669 c 1
 156 668 150 649 157 638 c 0
 156 637 154 634 155 632 c 0
 167 608 173 580 178 556 c 1
 187 545 184 533 187 520 c 1
 192 526 198 538 200 545 c 0
 205 561 210 579 214 595 c 0
 217 597 221 603 224 605 c 0
 229 619 234 638 242 651 c 0
 245 655 252 663 256 669 c 0
 257 672 256 679 257 683 c 0
 258 688 267 697 270 703 c 0
 279 720 286 739 296 756 c 2
 296 756 302 792 319 792 c 0
 325 792 334 769 334 769 c 2xf0
EndSplineSet
Validated: 33
EndChar

StartChar: Y
Encoding: 89 89 57
Width: 317
Flags: MW
HStem: -4 26<144 145.5 141 148.5> 226 10 396 35<161.5 194.5>
VStem: 30 17 44 10 50 49<586 639> 253 29 259 44<651 684.5 680 708>
LayerCount: 2
Fore
SplineSet
303 682 m 0xf2
 303 678 300 676 299 673 c 0
 298 654 298 630 298 608 c 0
 298 597 293 566 293 562 c 2
 295 560 l 1
 293 548 305 529 297 521 c 0
 291 514 301 514 301 514 c 2
 301 509 299 499 295 492 c 0
 297 490 295 447 296 443 c 0
 295 441 295 439 294 437 c 0
 295 421 298 393 291 376 c 1
 290 361 293 342 293 327 c 0
 293 323 291 317 287 313 c 1
 288 312 288 308 288 307 c 0
 290 303 287 300 286 295 c 0
 285 288 293 270 282 265 c 1
 288 256 288 241 288 234 c 0
 288 230 285 181 285 164 c 0
 284 159 282 150 282 143 c 0
 282 132 279 118 277 104 c 0
 276 92 278 72 268 56 c 0
 266 51 258 40 257 34 c 0
 250 24 235 22 228 18 c 0
 226 17 225 13 224 12 c 0
 218 10 209 9 197 5 c 0
 195 4 195 0 191 0 c 0
 186 0 184 4 180 4 c 0
 176 4 173 -2 167 -2 c 0
 163 -2 151 -4 146 -4 c 0
 142 -4 136 -1 131 1 c 0
 124 4 114 1 105 4 c 0
 83 13 86 18 75 25 c 0
 71 28 63 31 59 36 c 0
 52 43 44 63 44 71 c 0
 40 83 27 92 33 106 c 1
 23 126 38 131 34 139 c 0
 23 159 28 168 26 180 c 0
 25 183 23 187 23 191 c 0
 23 204 36 219 36 220 c 0
 36 225 33 226 31 226 c 0
 30 228 30 232 33 236 c 1
 30 240 29 241 29 246 c 0
 29 251 31 251 31 255 c 1
 32 255 37 257 41 257 c 0
 45 247 47 233 48 223 c 0
 49 218 47 206 46 197 c 0
 45 188 54 171 45 162 c 1
 47 160 49 161 51 161 c 1
 51 150 47 131 47 127 c 0
 47 122 54 117 54 114 c 0xf1
 54 107 52 97 55 88 c 0
 61 69 70 55 84 43 c 0
 88 39 95 35 100 32 c 0
 114 24 139 22 143 22 c 0
 148 22 182 22 198 28 c 0
 212 33 225 48 237 59 c 0
 238 61 236 64 236 68 c 0
 238 77 246 86 250 96 c 0
 257 109 248 122 249 134 c 0
 250 138 253 142 255 144 c 0
 257 147 256 152 256 155 c 0
 256 160 249 192 249 197 c 0
 249 201 253 208 253 214 c 0
 254 224 254 238 255 247 c 0
 256 254 260 267 260 272 c 0
 260 276 253 291 253 296 c 0
 253 301 255 302 254 304 c 0
 258 314 255 328 257 336 c 0
 257 339 260 346 262 351 c 0
 262 353 260 354 262 395 c 0
 260 397 259 396 257 397 c 0
 255 400 250 408 253 413 c 0
 251 415 251 421 249 426 c 0
 247 428 250 428 245 428 c 0
 241 428 224 412 215 404 c 0
 206 397 200 396 189 396 c 0
 184 396 165 398 160 398 c 0
 155 398 156 394 154 392 c 0
 152 392 150 396 148 397 c 0
 138 400 118 411 111 416 c 0
 108 417 100 416 96 419 c 0
 91 423 84 432 81 440 c 1
 70 447 54 466 52 478 c 0
 51 487 51 497 49 506 c 0
 49 512 47 522 47 527 c 0
 47 531 49 560 53 576 c 0
 51 580 50 584 50 588 c 0
 50 608 53 631 51 651 c 0
 53 653 55 656 55 658 c 0
 52 672 60 678 60 684 c 0
 60 689 58 686 58 687 c 0
 56 696 59 707 58 715 c 0xea
 55 734 49 767 49 772 c 0
 49 776 51 781 51 785 c 0
 60 786 75 789 80 789 c 0
 84 789 99 781 107 773 c 0
 108 772 110 772 110 767 c 0
 110 763 108 753 103 747 c 1
 108 733 106 718 107 701 c 0
 107 699 106 695 104 691 c 0
 106 682 105 668 104 658 c 0
 103 654 104 649 103 645 c 0
 103 643 101 641 99 639 c 0
 99 611 103 584 102 557 c 0
 102 550 95 533 95 528 c 0
 95 524 99 512 98 503 c 0
 102 488 110 472 116 457 c 1
 122 456 130 448 136 442 c 0
 136 440 137 437 139 435 c 0
 147 435 159 431 164 431 c 0
 168 431 180 436 190 443 c 0
 195 446 201 455 205 460 c 0
 207 461 210 461 214 461 c 0
 217 469 224 480 229 486 c 0xf2
 230 492 231 501 235 503 c 1
 233 516 241 525 243 531 c 0
 245 536 244 548 246 555 c 0
 251 573 257 592 253 608 c 0
 250 625 256 633 257 645 c 1
 257 645 257 647 255 647 c 1
 257 647 258 649 259 651 c 0
 259 653 256 658 259 664 c 0
 262 669 257 684 257 693 c 0
 257 697 259 702 259 708 c 0
 260 716 257 723 258 730 c 0xe5
 260 755 261 782 278 800 c 1
 281 796 288 794 293 792 c 1
 294 783 295 779 300 775 c 1
 301 757 303 687 303 682 c 0xf2
143 443 m 1
 149 439 l 1xe5
 148 436 l 1
 141 440 l 1
 143 443 l 1
EndSplineSet
Validated: 33
EndChar

StartChar: Z
Encoding: 90 90 58
Width: 349
Flags: MW
HStem: -6 63 -2 59<181.5 201> 1 56<154 201> 744 40
VStem: 24 329 32 54
LayerCount: 2
Fore
SplineSet
353 764 m 0x58
 353 760 349 749 346 742 c 0
 340 730 333 714 328 700 c 1
 328 700 325 696 323 695 c 1
 327 687 313 672 312 665 c 0
 309 649 300 626 292 611 c 0
 290 607 291 599 289 594 c 0
 285 583 276 572 272 563 c 0
 270 558 268 546 265 537 c 0
 265 535 260 532 259 528 c 0
 257 509 247 491 241 470 c 0
 240 464 238 449 234 441 c 0
 229 430 219 418 213 404 c 0
 210 393 207 370 201 350 c 0
 198 342 187 339 191 330 c 1
 188 326 186 318 185 313 c 0
 181 294 170 278 165 261 c 0
 164 254 165 241 160 233 c 0
 138 202 144 198 138 181 c 0
 135 174 123 162 120 152 c 0
 119 147 118 140 117 135 c 0
 113 124 106 106 102 93 c 0
 100 85 86 69 86 64 c 0
 86 55 103 53 106 53 c 2
 198 57 l 2
 204 57 202 51 206 51 c 0
 211 51 208 53 212 53 c 0
 217 53 220 48 224 48 c 0
 229 48 224 51 229 51 c 0
 233 51 254 51 265 55 c 1
 274 38 290 41 290 27 c 0
 290 18 284 7 275 7 c 0
 271 7 264 7 258 9 c 1
 254 5 l 1
 245 7 230 9 225 9 c 0
 221 9 216 4 210 2 c 0
 203 -1 188 -2 184 -2 c 0x54
 179 -2 161 1 156 1 c 0
 152 1 145 -4 140 -4 c 0
 136 -4 113 -6 109 -6 c 0
 105 -6 98 -2 93 -2 c 0
 88 -2 68 -8 63 -8 c 0
 59 -8 53 -6 50 -3 c 0
 49 3 36 8 32 9 c 0
 31 11 27 13 26 13 c 1
 26 15 24 16 24 21 c 0
 24 25 27 36 32 43 c 0
 30 47 30 51 31 54 c 0
 35 61 42 69 44 74 c 0
 41 83 55 99 60 112 c 0
 61 114 61 117 60 118 c 1
 65 123 63 127 64 130 c 0
 65 136 72 147 75 154 c 0
 79 167 85 176 94 189 c 0x38
 94 191 94 193 93 195 c 0
 96 210 108 235 113 252 c 0
 114 257 119 259 121 262 c 0x98
 125 269 126 282 130 290 c 0x54
 131 293 136 297 139 302 c 0
 138 308 138 313 137 319 c 0x94
 138 321 138 323 139 325 c 0
 143 335 151 344 158 356 c 0
 164 366 168 380 174 393 c 0
 172 398 173 407 175 414 c 0
 179 429 189 447 193 463 c 0
 197 478 200 493 210 508 c 0
 214 513 215 530 218 538 c 0
 226 556 235 574 241 591 c 0
 243 595 239 601 241 606 c 0
 244 619 253 631 260 643 c 0
 264 650 262 664 265 673 c 0
 269 684 278 697 283 710 c 0
 286 716 288 726 295 730 c 0
 296 734 294 741 298 748 c 0
 296 750 296 753 291 753 c 0
 287 753 259 745 245 744 c 0
 228 743 184 744 165 744 c 0
 160 744 152 739 145 739 c 0
 134 739 113 736 109 736 c 0
 105 736 97 738 94 741 c 0
 85 748 72 760 72 765 c 0
 72 769 79 776 83 782 c 1
 98 781 119 783 135 783 c 0
 137 784 139 784 141 786 c 0
 149 787 164 785 173 784 c 0
 175 783 181 786 186 786 c 0
 190 786 194 785 198 785 c 0
 202 785 208 790 212 790 c 0
 217 790 225 785 230 785 c 0
 234 785 236 792 241 792 c 0
 246 792 243 788 248 788 c 0
 252 788 273 792 278 792 c 0
 283 792 309 799 313 799 c 0
 336 799 353 790 353 764 c 0x58
EndSplineSet
Validated: 33
EndChar

StartChar: a
Encoding: 97 97 64
Width: 346
Flags: MW
HStem: -15 21G<43 49 47 62> -10 21G<325 326> 360 25<144 194.5>
VStem: 37 55 70 54<267 269> 99 46<472 521> 110 43<610 613> 214 28<402 434.5 416.5 434.5> 233 27<288.5 301> 299 27<-10 11>
LayerCount: 2
Fore
SplineSet
221 393 m 1x6540
 217 395 214 399 214 402 c 0
 214 408 214 414 214 419 c 0
 213 432 209 447 208 460 c 0x64c0
 208 471 206 486 204 494 c 0
 201 502 194 522 194 526 c 0
 191 555 183 596 179 623 c 0
 178 633 183 643 179 651 c 0
 175 659 167 668 162 673 c 1
 162 662 160 648 158 637 c 0
 157 631 153 617 153 613 c 0
 153 607 158 594 151 591 c 0
 152 588 151 584 151 582 c 0
 150 578 146 573 147 572 c 0
 148 568 149 563 149 560 c 0
 149 547 146 529 145 521 c 0
 145 511 148 497 146 486 c 0
 145 484 145 482 144 480 c 0
 143 467 145 452 144 439 c 0
 143 432 136 422 136 418 c 0
 136 415 139 420 138 400 c 0
 138 395 141 387 144 385 c 0
 153 386 170 385 175 385 c 0
 179 385 199 392 203 392 c 0
 208 392 204 388 209 388 c 2
 219 388 l 1
 219 390 221 393 221 393 c 1x6540
326 -3 m 1
 326 -10 l 1
 324 -10 321 -12 317 -12 c 0
 313 -12 304 -2 297 2 c 0
 297 4 299 4 299 9 c 0
 299 13 297 19 295 22 c 0
 295 24 291 26 290 28 c 0
 291 50 270 64 278 83 c 1
 266 93 264 115 260 128 c 0
 259 131 262 137 261 143 c 0
 261 144 256 148 255 152 c 0
 252 161 258 173 252 176 c 1
 251 188 249 202 248 215 c 1
 240 217 240 236 244 246 c 1
 233 266 233 280 233 297 c 0
 233 301 229 312 229 319 c 0
 228 327 220 343 225 356 c 1
 216 362 198 360 191 360 c 0
 187 360 143 353 130 348 c 1
 130 339 133 328 133 317 c 0
 133 309 129 298 127 291 c 0
 125 285 124 275 124 265 c 0
 124 253 121 249 120 237 c 0
 118 226 121 182 110 163 c 0
 109 159 113 156 112 152 c 0
 111 145 111 134 109 126 c 0
 104 108 94 88 92 63 c 0
 92 59 93 55 94 49 c 0
 95 45 91 41 90 35 c 0
 89 27 92 14 89 6 c 0x68c0
 87 1 69 -15 62 -15 c 0
 57 -15 51 -15 47 -15 c 0
 39 -15 21 -4 21 3 c 0
 21 18 37 12 36 32 c 0
 36 39 38 47 38 54 c 1
 38 54 39 54 41 56 c 0
 48 94 50 129 54 163 c 0
 55 169 60 179 61 189 c 0xb140
 62 196 61 206 62 215 c 0
 63 220 67 251 70 267 c 0
 70 271 74 276 75 280 c 0
 82 321 88 380 96 430 c 0
 97 430 101 434 102 436 c 0
 102 438 99 440 98 441 c 0
 95 445 95 454 95 459 c 0
 95 463 97 463 97 465 c 0
 97 467 95 469 96 471 c 0
 97 471 99 471 99 473 c 0
 100 489 101 508 105 526 c 1
 98 554 110 579 110 608 c 0
 110 618 112 636 114 648 c 0
 116 649 117 648 119 650 c 0
 117 654 115 666 115 668 c 0
 115 671 121 659 117 682 c 0
 117 687 118 687 123 689 c 1
 119 693 l 1
 133 715 129 739 131 760 c 0
 132 762 134 761 135 763 c 0
 130 769 140 794 149 804 c 0
 153 806 156 809 161 809 c 0
 165 809 171 801 174 797 c 0
 184 780 193 761 198 743 c 0
 203 723 204 702 207 682 c 0
 208 680 210 678 211 676 c 0
 212 669 212 660 212 652 c 0x6940
 213 651 215 651 216 649 c 0
 218 639 225 617 219 609 c 1
 228 585 229 558 232 528 c 0
 234 519 232 507 236 491 c 0x6540
 236 489 234 487 233 485 c 0
 233 482 236 478 237 475 c 0
 238 471 234 467 234 463 c 0
 234 460 238 454 240 449 c 0
 241 444 242 437 242 432 c 0x6340
 242 425 248 412 244 408 c 1
 247 398 245 387 249 378 c 1
 246 354 256 327 260 301 c 1
 260 301 260 300 258 298 c 0
 261 293 262 280 261 273 c 1
 270 259 267 249 271 230 c 1
 271 230 271 230 270 228 c 0
 272 205 277 174 282 149 c 0
 289 122 300 85 309 58 c 0
 314 42 320 19 326 -3 c 1
EndSplineSet
Validated: 33
EndChar

StartChar: b
Encoding: 98 98 65
Width: 257
Flags: MW
HStem: -6 15 -6 21G<50 60.5> 409 7<86 86> 773 36<126 129 121 131>
VStem: 33 53<241 409 390 409> 41 42 196 43<630.5 663 630.5 676> 205 34
LayerCount: 2
Fore
SplineSet
205 255 m 1x7a
 204 255 200 258 199 260 c 0
 196 267 195 278 195 282 c 0
 195 286 200 295 202 299 c 1
 198 301 196 304 195 306 c 0
 194 308 198 312 197 313 c 0
 194 317 190 321 188 325 c 0
 186 330 188 338 186 343 c 0
 185 349 170 357 174 371 c 1
 167 375 160 383 155 386 c 0
 147 391 128 398 124 398 c 0
 120 398 121 396 117 396 c 0
 112 396 95 403 86 409 c 1
 86 396 87 384 85 376 c 0
 85 363 82 350 82 339 c 0
 82 333 86 330 84 321 c 0
 83 317 84 313 83 312 c 0
 82 310 78 309 78 304 c 0
 78 299 84 280 85 272 c 2x76
 82 37 l 1
 84 37 85 35 90 35 c 0
 95 35 128 50 142 58 c 0
 146 63 155 67 160 74 c 0
 166 80 170 90 175 93 c 1
 176 100 183 113 186 119 c 1
 183 130 198 158 199 174 c 0
 201 202 199 223 205 255 c 1x7a
196 663 m 0
 196 665 192 662 196 676 c 1x7a
 191 687 186 700 182 713 c 0
 180 719 182 725 182 728 c 0
 181 738 174 750 172 758 c 1
 159 762 133 773 129 773 c 2
 121 773 l 1
 118 760 93 769 84 764 c 1
 83 756 76 743 76 739 c 0
 76 735 79 706 80 689 c 0
 81 684 84 676 83 671 c 0
 82 665 80 659 80 656 c 0
 83 638 91 587 91 583 c 2
 91 525 l 2
 91 517 84 508 80 504 c 1
 87 497 l 1
 80 488 90 482 80 476 c 1
 85 473 85 455 84 449 c 0
 83 438 86 425 86 416 c 1
 93 416 l 1
 90 428 101 431 104 431 c 0
 108 431 108 429 112 429 c 0
 117 429 128 439 135 441 c 1
 137 446 143 451 147 454 c 0
 150 456 154 472 155 478 c 0
 158 482 167 488 172 489 c 1
 173 498 176 511 180 522 c 0
 184 533 182 548 184 554 c 0
 188 567 192 588 191 600 c 0
 193 602 193 606 194 607 c 0
 192 623 190 634 196 650 c 0
 197 654 196 659 196 663 c 0
241 207 m 0
 241 190 235 158 228 146 c 0
 228 144 230 143 229 141 c 0
 228 135 226 127 222 121 c 1
 225 111 217 101 212 91 c 0
 209 85 208 77 205 72 c 0
 202 67 189 60 190 50 c 1
 184 45 169 31 157 22 c 0
 155 20 146 22 142 19 c 0
 139 17 130 9 125 9 c 0
 120 9 124 11 120 11 c 0
 116 11 117 7 114 4 c 0
 96 1 63 -6 58 -6 c 0
 42 -6 53 -3 34 9 c 1
 40 36 32 38 32 49 c 0
 32 53 33 49 34 50 c 0
 35 63 37 78 41 93 c 1
 41 185 l 2
 41 190 39 187 38 189 c 0
 39 198 41 211 39 219 c 0
 37 227 33 237 33 241 c 2
 33 390 l 2
 35 391 37 393 38 395 c 0
 37 400 36 406 36 412 c 0
 37 415 43 420 43 424 c 0
 43 428 35 435 34 441 c 0
 33 450 32 465 32 470 c 0
 32 474 33 476 34 478 c 0x75
 33 493 33 510 36 522 c 1
 33 532 35 552 41 554 c 1
 41 609 l 2
 38 610 34 615 34 619 c 0
 32 646 34 674 31 696 c 0
 31 698 33 702 33 706 c 0
 31 717 28 738 28 743 c 0
 28 747 31 752 33 758 c 0
 34 764 31 774 32 784 c 0
 33 793 52 803 56 803 c 0
 59 803 62 796 67 796 c 0
 71 796 86 805 91 805 c 0
 95 805 107 801 111 801 c 0
 115 801 123 809 129 809 c 0
 133 809 134 803 138 803 c 0
 167 804 216 771 219 732 c 0
 219 726 225 719 226 713 c 0
 230 697 229 680 232 663 c 0xb5
 234 656 239 637 239 633 c 0
 239 628 237 628 236 626 c 0
 235 588 225 548 220 513 c 0
 219 511 217 511 215 509 c 0
 215 506 214 502 212 498 c 0
 210 495 211 489 209 483 c 0
 206 478 201 472 197 465 c 0
 194 461 194 450 188 444 c 0
 181 436 172 430 165 422 c 1
 171 414 180 409 187 401 c 0
 195 392 209 379 214 369 c 0
 220 357 224 341 227 326 c 0
 229 319 230 307 230 298 c 0xb6
 230 277 246 260 236 245 c 1x75
 239 233 241 211 241 207 c 0
EndSplineSet
Validated: 33
EndChar

StartChar: c
Encoding: 99 99 66
Width: 281
Flags: MW
HStem: -8 37<145 149.5> 5 24 746 48<154.5 180.5>
VStem: 33 47<359 369.5 445 447> 35 41<188.5 197 243 246> 198 8 213 47 223 40<191 211>
LayerCount: 2
Fore
SplineSet
267 653 m 0xa9
 267 649 262 639 260 631 c 0
 259 628 263 622 263 617 c 2
 263 617 263 617 262 615 c 0
 271 592 259 566 235 566 c 0
 233 566 228 570 230 576 c 1
 226 576 223 575 219 575 c 0
 214 575 212 579 210 581 c 1
 206 577 l 1
 203 581 198 585 198 589 c 0
 198 593 205 599 207 606 c 0
 213 629 213 674 213 679 c 0
 213 702 195 746 166 746 c 0
 162 746 143 743 133 738 c 0
 124 733 117 724 106 716 c 1
 104 701 94 686 91 665 c 0
 90 655 88 641 88 630 c 0
 88 623 94 614 92 607 c 0
 90 602 84 595 84 589 c 0
 84 585 87 576 87 571 c 0
 87 480 84 513 80 495 c 0
 79 491 82 485 82 480 c 0
 82 473 81 463 78 454 c 0
 78 452 80 449 80 445 c 0
 81 437 79 430 79 422 c 0
 78 402 80 380 80 359 c 0
 78 354 74 350 74 346 c 0
 74 334 85 327 85 305 c 0
 85 302 82 298 84 291 c 0
 82 286 82 280 83 274 c 0
 82 272 78 268 76 267 c 2
 76 121 l 1xad
 76 121 78 119 79 117 c 0
 80 106 79 95 79 84 c 0
 79 79 80 69 84 62 c 0xb2
 88 54 91 42 98 39 c 0
 113 31 143 29 147 29 c 0
 171 29 189 48 196 60 c 0
 204 75 212 94 216 112 c 0
 222 137 222 179 223 208 c 0
 223 214 219 225 221 232 c 0xa9
 223 241 230 260 238 266 c 1
 250 262 257 242 255 234 c 1
 259 230 258 218 257 215 c 0
 260 208 263 205 263 197 c 0
 263 185 262 163 256 154 c 0
 257 152 261 151 263 149 c 0
 262 141 256 131 254 124 c 0
 253 119 259 110 258 104 c 0
 255 89 248 72 242 56 c 0
 240 55 238 55 237 54 c 0
 233 52 230 48 228 44 c 0
 225 38 228 29 225 22 c 1
 211 19 215 16 212 7 c 0
 211 6 207 3 205 2 c 0
 190 0 152 -8 147 -8 c 0
 143 -8 119 -2 103 2 c 0
 103 5 98 7 94 7 c 0
 89 7 92 5 87 5 c 0
 75 5 51 30 49 39 c 0
 47 45 43 56 44 63 c 0
 41 65 39 68 36 71 c 0
 36 83 35 103 38 117 c 0
 37 121 35 124 32 128 c 0
 33 132 32 136 32 140 c 0
 32 146 38 159 38 165 c 0xb1
 39 173 35 186 35 191 c 0
 35 203 37 218 43 226 c 1
 38 228 35 242 35 244 c 0
 35 248 37 255 40 260 c 0
 41 260 43 259 45 261 c 1x69
 34 267 42 284 40 296 c 1
 28 306 45 325 33 339 c 1
 33 472 l 2
 33 476 38 484 38 489 c 0
 39 495 33 512 43 519 c 1
 41 521 37 524 36 526 c 0
 35 535 33 547 36 558 c 0
 37 562 39 567 40 570 c 0
 33 579 33 596 33 605 c 0
 33 613 36 614 35 624 c 0
 34 629 36 636 36 641 c 0
 38 656 35 680 42 700 c 1
 34 711 50 725 58 736 c 0
 64 753 85 777 101 781 c 0
 108 783 114 791 124 793 c 0
 134 795 152 794 157 794 c 0xb1
 167 794 196 782 209 772 c 0
 212 769 221 767 226 763 c 0
 232 758 241 750 246 745 c 0
 250 741 252 735 255 728 c 0
 256 725 255 721 256 717 c 0
 257 713 261 708 262 704 c 0xaa
 265 697 262 684 260 673 c 1
 263 667 267 658 267 653 c 0xa9
EndSplineSet
Validated: 33
EndChar

StartChar: d
Encoding: 100 100 67
Width: 320
Flags: MW
HStem: -5 19 6 28<133.5 165.5> 21 24<169 195> 767 34
VStem: 24 44 45 43<601.5 622.5> 246 36
LayerCount: 2
Fore
SplineSet
256 574 m 0x3a
 256 579 255 580 253 582 c 0
 253 587 255 593 254 596 c 0
 251 608 252 619 252 628 c 0
 252 631 249 633 248 635 c 0
 249 640 249 646 249 650 c 0
 243 659 239 670 237 680 c 0
 234 694 231 705 224 721 c 0
 221 727 214 730 209 734 c 0
 208 736 208 737 207 739 c 0
 203 743 196 749 194 754 c 1
 184 756 164 767 160 767 c 0
 156 767 132 767 120 767 c 0
 111 767 100 766 92 763 c 0
 88 761 87 756 87 754 c 0
 87 737 89 715 88 702 c 0
 88 693 88 680 85 672 c 1
 88 668 88 664 88 663 c 0
 88 646 88 630 88 615 c 0
 88 613 87 611 87 611 c 2x9a
 88 600 92 593 87 584 c 1
 93 578 87 560 87 554 c 0
 85 543 89 531 87 522 c 0
 86 521 84 517 83 516 c 0
 83 515 84 513 85 511 c 0
 84 500 82 488 82 478 c 0
 81 476 79 475 79 475 c 1
 81 459 79 449 81 439 c 1
 75 423 85 413 74 400 c 1
 75 365 71 330 71 294 c 0
 71 290 74 287 74 285 c 0
 76 274 74 262 74 252 c 0
 73 243 68 230 68 224 c 0
 67 202 71 170 71 150 c 0
 71 140 66 125 65 115 c 0
 72 89 64 111 62 22 c 0
 64 20 66 16 66 14 c 1
 72 14 75 16 77 16 c 1
 77 22 74 25 76 27 c 0
 80 27 86 31 90 31 c 0
 94 31 131 34 136 34 c 0x5a
 141 34 156 44 169 45 c 0
 176 45 183 46 186 48 c 0
 189 50 193 55 196 57 c 0
 197 59 199 62 199 64 c 0
 208 70 216 79 222 83 c 1
 225 101 229 117 239 133 c 0
 243 139 242 157 237 163 c 1
 241 193 250 162 246 254 c 0
 246 258 243 261 244 265 c 0
 245 269 249 272 249 272 c 1
 240 284 249 298 254 309 c 1
 250 325 258 342 250 354 c 0
 251 358 253 362 256 363 c 1
 253 366 249 369 248 372 c 0
 249 378 247 384 247 388 c 0
 247 393 250 409 252 420 c 0
 254 431 250 444 250 455 c 0
 250 459 253 465 252 469 c 0
 251 475 249 480 249 485 c 0
 250 492 254 501 254 505 c 0
 255 520 251 535 251 550 c 0
 251 557 256 570 256 574 c 0x3a
299 578 m 0x96
 299 573 297 575 296 574 c 0
 295 565 295 550 295 537 c 0
 295 530 292 522 293 511 c 0
 295 480 291 446 287 424 c 0
 286 415 291 400 291 389 c 0
 291 382 287 367 287 359 c 0
 286 352 293 338 285 329 c 1
 285 329 286 328 287 326 c 0
 286 317 285 302 285 289 c 0
 285 274 289 247 280 237 c 0
 278 231 279 224 278 217 c 1
 283 209 283 192 276 180 c 0
 277 176 277 170 276 164 c 0
 275 163 271 161 269 159 c 1
 271 157 275 156 277 154 c 2
 277 139 l 1x9a
 272 120 268 96 261 76 c 0
 260 71 256 62 249 57 c 0
 242 53 236 48 227 44 c 0
 227 42 227 38 226 37 c 0
 219 33 203 18 198 18 c 0
 193 18 197 21 193 21 c 0x3a
 188 21 168 6 163 6 c 0
 159 6 156 8 152 8 c 0x9a
 147 8 105 -5 100 -5 c 0
 96 -5 55 -1 37 3 c 0
 32 4 24 16 24 22 c 0
 25 28 23 35 25 43 c 0
 23 48 23 57 25 65 c 0
 25 67 23 66 23 70 c 2
 26 73 l 1
 25 87 24 100 24 117 c 0x96
 24 122 27 129 27 137 c 0
 27 152 28 174 30 193 c 0
 32 207 29 222 32 237 c 0
 31 239 27 238 27 243 c 0
 27 247 36 282 36 286 c 0
 36 290 29 308 29 313 c 0
 29 316 31 326 33 333 c 0
 32 335 31 339 31 341 c 0
 32 372 33 406 37 439 c 0
 39 454 36 459 41 472 c 0
 43 477 37 485 37 490 c 0
 36 494 38 504 38 509 c 0
 43 541 45 599 45 604 c 0
 45 608 43 609 43 613 c 0
 43 614 44 618 44 622 c 0
 43 633 42 646 39 657 c 0
 40 659 42 662 41 664 c 0
 40 666 40 670 38 672 c 0
 41 689 33 707 44 720 c 1
 42 724 35 727 35 731 c 0
 34 737 37 746 35 753 c 0
 33 764 26 780 29 793 c 0
 32 797 38 801 42 801 c 0
 46 801 42 797 46 797 c 0
 51 797 66 803 70 803 c 0
 74 803 75 799 81 799 c 0
 85 799 106 806 111 806 c 0
 116 806 112 804 117 804 c 0
 121 804 116 808 120 808 c 0
 125 808 126 804 127 804 c 2x9a
 132 808 l 2
 135 806 143 805 146 805 c 0
 150 805 152 799 156 799 c 0
 160 799 165 801 169 801 c 0
 174 801 174 797 176 796 c 0
 188 792 200 787 210 779 c 0
 212 778 215 778 217 778 c 0
 222 773 230 769 235 765 c 0
 257 747 268 714 274 695 c 0
 275 693 279 691 280 689 c 0
 281 685 281 682 281 678 c 0
 281 674 286 671 287 667 c 0
 289 657 289 643 290 631 c 0
 291 626 296 619 296 613 c 0
 298 602 299 582 299 578 c 0x96
EndSplineSet
Validated: 33
EndChar

StartChar: e
Encoding: 101 101 68
Width: 267
Flags: MW
HStem: -6 21G<48 52.5 50 63> -1 36<109 147.5 120.5 147.5> 388 37<111 113.5 105 115.5 113 113.5 105 150> 780 37<213.5 227>
VStem: 25 50<71.5 76> 51 54
LayerCount: 2
Fore
SplineSet
262 795 m 0xb4
 262 791 258 788 258 786 c 1
 251 788 236 790 232 790 c 0
 228 790 220 780 216 780 c 0
 211 780 195 779 190 779 c 0
 186 779 183 782 179 782 c 0
 174 782 173 780 171 779 c 0
 161 778 148 781 134 772 c 0
 126 767 126 750 124 744 c 0
 123 744 122 742 121 740 c 0xb4
 119 711 118 677 118 648 c 0
 118 640 112 626 112 618 c 0
 111 615 113 609 113 604 c 0
 112 583 109 563 108 542 c 0
 107 540 105 539 104 537 c 0
 105 530 105 523 105 515 c 0
 105 491 101 447 101 443 c 0
 101 433 99 425 111 425 c 0
 116 425 152 421 157 421 c 0
 161 421 183 425 187 425 c 0
 191 425 204 423 215 421 c 0
 219 420 227 412 234 406 c 0
 235 403 230 396 226 395 c 0
 203 389 155 388 150 388 c 0
 146 388 118 388 113 388 c 0
 109 388 101 384 98 377 c 0
 95 371 94 363 93 355 c 0
 95 340 96 316 93 302 c 0x78
 92 298 88 294 87 290 c 0
 86 287 88 281 88 276 c 0
 88 271 90 265 90 259 c 0
 90 257 88 253 87 252 c 0
 86 233 86 205 84 183 c 0
 83 172 75 151 75 146 c 2
 75 46 l 1
 87 19 114 45 126 29 c 1
 131 32 137 35 143 35 c 0
 152 35 170 38 174 38 c 0
 192 38 207 18 210 13 c 1
 181 7 127 -1 123 -1 c 0
 118 -1 120 3 115 3 c 0
 110 3 116 -1 111 -1 c 0
 107 -1 87 -1 74 -2 c 0
 71 -3 69 -6 63 -6 c 0
 59 -6 55 -6 50 -6 c 0
 46 -6 39 0 37 2 c 0
 28 9 27 23 27 33 c 0
 27 37 31 41 30 44 c 0
 28 53 25 69 25 74 c 0
 25 78 29 85 28 91 c 0xb8
 23 121 36 157 32 174 c 0
 35 178 38 184 38 189 c 0
 38 193 29 201 29 206 c 0
 29 209 37 244 36 262 c 0
 36 279 36 297 46 317 c 0
 44 320 40 322 37 322 c 1
 37 361 l 2
 36 365 39 381 39 393 c 0
 39 396 40 401 43 404 c 0
 44 406 40 406 40 411 c 0
 40 416 44 450 46 470 c 2
 51 734 l 2
 51 738 55 761 55 774 c 0
 55 783 54 793 55 802 c 0
 56 806 62 810 66 810 c 0
 71 810 83 804 87 804 c 0
 91 804 109 810 120 811 c 0
 154 815 218 817 223 817 c 0
 231 817 262 807 262 795 c 0xb4
EndSplineSet
Validated: 33
EndChar

StartChar: f
Encoding: 102 102 69
Width: 264
Flags: MW
HStem: -14 21G<60.5 66> 386 39<115 143.5> 749 54<186 221 211.5 219>
VStem: 40 40 55 45
LayerCount: 2
Fore
SplineSet
254 768 m 0xe8
 254 763 239 756 238 756 c 0
 233 756 238 758 233 758 c 0
 229 758 224 749 219 749 c 0
 215 749 193 749 188 749 c 0
 184 749 179 751 177 755 c 1xf0
 168 751 153 743 148 743 c 0
 144 743 143 747 139 747 c 0
 134 747 132 742 128 742 c 0
 123 742 117 745 110 747 c 1
 110 722 106 690 106 661 c 0
 105 659 101 659 97 655 c 0
 97 653 101 652 102 648 c 0
 103 630 101 602 100 579 c 0
 99 561 103 526 103 500 c 0
 103 480 102 452 99 432 c 0
 102 428 108 423 112 423 c 0
 117 423 135 425 140 425 c 0
 147 425 161 420 167 416 c 0
 170 414 177 412 181 408 c 0
 182 404 182 398 184 394 c 1
 155 384 147 388 132 385 c 0
 130 385 128 380 123 380 c 0
 118 380 122 386 117 386 c 0
 113 386 100 383 94 379 c 0
 95 375 94 366 93 361 c 0
 92 357 87 356 86 352 c 0
 84 339 85 286 85 257 c 0
 85 252 82 243 82 237 c 2
 82 189 l 2
 82 185 78 180 77 176 c 0
 76 167 78 156 80 145 c 0
 80 141 79 134 78 131 c 0
 68 116 72 107 70 92 c 0
 69 88 71 81 70 76 c 0
 69 75 66 76 66 71 c 0xe8
 66 67 71 50 72 41 c 0
 70 27 73 33 73 30 c 0
 73 26 66 34 72 19 c 1
 70 12 69 -14 63 -14 c 0
 58 -14 60 -18 58 -18 c 0
 56 -19 58 -23 58 -25 c 1
 30 -15 32 7 32 22 c 0
 32 26 36 33 37 37 c 0
 36 39 34 39 33 39 c 1
 34 42 36 46 36 50 c 0
 36 56 38 63 39 71 c 0
 40 72 36 71 36 76 c 0
 36 80 40 82 42 85 c 0
 42 95 49 105 49 108 c 0
 49 112 42 118 40 122 c 0
 43 202 42 203 41 203 c 1
 43 205 43 210 45 213 c 0
 45 215 43 218 43 219 c 0
 43 229 49 249 49 254 c 0
 49 257 42 265 42 269 c 0
 42 274 45 285 46 291 c 0
 46 295 55 298 55 303 c 0
 55 308 49 312 43 314 c 1
 43 324 l 2
 43 327 47 329 51 333 c 1
 47 334 43 339 43 343 c 0
 43 348 49 358 52 365 c 0
 56 372 58 381 58 391 c 0xf0
 58 394 54 398 53 402 c 0
 51 410 56 426 57 437 c 0
 58 448 60 450 61 456 c 0
 62 461 60 466 59 472 c 0
 58 476 61 481 62 487 c 0
 63 491 64 493 64 498 c 0
 64 509 55 528 55 532 c 2
 55 593 l 1
 62 594 58 597 61 604 c 1
 58 611 61 621 61 631 c 0
 61 637 56 645 56 649 c 0
 56 652 62 651 62 665 c 0
 62 668 58 671 58 676 c 0
 58 680 71 701 71 705 c 0
 71 710 62 722 62 726 c 0
 62 730 69 740 69 744 c 0
 69 749 60 777 60 781 c 0
 60 785 64 789 64 792 c 0
 64 794 62 797 62 801 c 1
 64 801 67 804 71 804 c 0
 76 804 99 799 104 799 c 0
 108 799 152 797 156 797 c 0
 160 797 172 801 178 801 c 0
 182 801 209 803 214 803 c 0
 228 803 222 801 243 798 c 1
 242 798 238 798 236 796 c 0
 241 788 254 777 254 768 c 0xe8
EndSplineSet
Validated: 33
EndChar

StartChar: g
Encoding: 103 103 70
Width: 317
Flags: MW
HStem: -15 36<135.5 139.5> -4 21G<190 190> 452 28<222 223.5> 802 41<149.5 173.5>
VStem: 26 27<88 88 88 89.5> 32 43 34 37<235 355> 37 35 230 51 253 35<171.5 197> 266 34<410 415>
LayerCount: 2
Fore
SplineSet
53 88 m 1x6820
 56 88 l 1
 56 94 l 1
 53 94 l 1
 53 88 l 1x6820
300 386 m 0
 299 378 298 364 296 358 c 0
 297 356 297 350 295 347 c 0
 302 339 296 324 291 318 c 1
 295 315 296 305 296 301 c 0
 296 297 289 280 288 266 c 1
 295 258 289 246 285 234 c 0
 285 233 287 229 288 227 c 0
 285 219 289 206 288 197 c 0
 288 186 286 168 280 156 c 0
 279 155 280 151 282 148 c 0
 282 141 281 127 279 118 c 0
 278 108 269 94 268 82 c 0
 266 63 261 39 237 33 c 1
 232 25 223 13 218 8 c 0
 212 2 190 9 194 -7 c 1
 190 -4 l 1
 187 -7 182 -7 178 -9 c 0
 167 -13 142 -15 137 -15 c 0
 134 -15 89 -2 68 6 c 0
 63 8 61 16 55 15 c 1
 48 21 38 32 34 42 c 0
 29 56 26 84 26 89 c 0
 26 90 32 104 36 105 c 0
 36 107 32 110 29 110 c 0
 28 115 24 121 24 126 c 0
 24 130 28 136 30 139 c 0
 32 148 22 160 34 168 c 1
 32 170 26 171 26 175 c 0
 26 180 28 177 29 179 c 0
 30 185 30 193 30 197 c 0
 30 205 28 212 29 220 c 0
 30 229 33 238 34 247 c 0x6120
 36 269 30 261 30 268 c 0
 30 272 39 292 45 303 c 0
 43 306 37 310 34 312 c 2
 34 355 l 2
 35 359 37 362 41 364 c 1
 37 368 35 372 32 375 c 1
 34 379 37 385 41 387 c 0
 42 389 37 391 34 391 c 1
 34 393 34 399 37 403 c 1
 37 403 35 404 34 406 c 0
 35 426 35 457 37 483 c 0
 37 484 32 487 32 492 c 2
 32 547 l 2
 32 550 37 560 38 566 c 0
 35 569 35 574 35 578 c 2
 38 580 l 2
 39 581 36 585 36 586 c 1
 38 586 41 590 40 593 c 0
 41 594 43 593 45 595 c 1
 39 597 30 610 38 618 c 1
 38 618 39 619 38 621 c 0
 37 632 34 656 34 660 c 0
 34 664 36 670 36 673 c 0
 36 703 42 730 58 756 c 1
 54 759 53 766 54 770 c 0
 62 786 71 805 84 818 c 0
 90 824 103 828 109 831 c 0
 113 832 144 843 155 843 c 0
 159 843 180 837 192 833 c 0
 197 831 203 822 209 819 c 0
 215 816 224 811 231 810 c 1xa120
 250 791 265 759 273 727 c 0
 276 717 276 701 277 688 c 0
 279 685 283 676 281 671 c 0
 278 667 266 659 262 659 c 0
 258 659 246 663 240 665 c 0
 236 667 231 673 228 673 c 1
 228 674 228 677 228 679 c 0
 225 694 230 690 230 693 c 0
 230 697 228 720 227 736 c 0
 224 745 220 756 215 767 c 0
 213 774 178 802 169 802 c 0
 155 802 148 787 126 787 c 1
 123 773 108 759 104 752 c 0
 101 746 97 730 90 723 c 1
 87 702 80 667 80 662 c 2
 80 593 l 2
 80 589 78 593 77 592 c 0
 78 571 76 545 75 521 c 0
 74 511 71 499 72 488 c 0
 73 475 72 460 73 447 c 0
 74 435 75 418 74 403 c 0x6420
 73 389 73 373 72 358 c 0
 71 355 68 351 67 347 c 0
 66 339 71 328 68 319 c 0
 67 319 65 318 63 316 c 1
 71 311 70 308 71 301 c 0x6220
 69 238 69 236 71 235 c 1
 68 231 66 228 65 223 c 0
 64 208 63 175 64 155 c 0x6420
 65 136 61 96 61 91 c 0
 61 76 69 45 76 41 c 0
 80 39 88 34 95 30 c 1
 100 33 l 1
 100 32 100 30 102 28 c 0
 132 18 128 21 143 21 c 0x6220
 157 21 170 31 174 34 c 0
 183 40 201 46 210 52 c 0
 217 57 217 67 221 74 c 0x6120
 225 80 230 83 235 87 c 0
 236 89 235 90 235 91 c 0x6220
 239 95 240 106 240 112 c 1
 240 112 241 112 243 114 c 1
 239 115 235 116 235 121 c 0
 235 127 246 133 248 135 c 0
 240 144 249 150 247 166 c 0
 249 168 253 170 253 173 c 0
 253 190 248 221 248 226 c 0x6120
 248 231 250 227 251 229 c 0x6220
 249 261 257 310 256 342 c 0x7120
 256 345 259 348 261 351 c 0
 261 353 259 357 260 359 c 0
 264 366 270 373 268 380 c 0
 267 384 263 388 264 392 c 0
 267 396 271 398 271 403 c 0x7480
 271 407 269 408 266 410 c 0
 266 420 269 421 269 422 c 0
 269 427 267 425 266 425 c 0
 264 432 263 442 265 451 c 1
 262 454 l 1
 249 452 226 452 221 452 c 0
 217 452 213 456 208 456 c 2
 208 456 201 450 188 448 c 1
 188 448 185 448 187 447 c 2
 187 447 189 445 189 443 c 1xa140
 185 443 182 439 178 439 c 0
 166 439 159 452 159 460 c 0
 159 465 160 466 160 468 c 0
 167 472 179 480 186 480 c 0
 195 480 209 483 214 483 c 0
 218 483 220 480 224 480 c 0
 229 480 233 483 237 483 c 0
 242 483 256 482 261 481 c 2
 276 481 l 1
 279 474 288 480 292 480 c 0
 296 465 296 447 300 432 c 1
 298 432 296 431 300 386 c 0
EndSplineSet
Validated: 33
EndChar

StartChar: h
Encoding: 104 104 71
Width: 400
Flags: MW
HStem: -13 21G<48 52> -5 21G 420 28<123 146.5> 803 20G
VStem: 22 50 56 87<796.5 800 796.5 820 796.5 820> 322 51 329 29<161.5 163 161.5 203>
LayerCount: 2
Fore
SplineSet
377 795 m 0x76
 377 790 372 775 372 766 c 0
 372 756 372 743 372 732 c 0
 372 727 370 720 370 712 c 0
 370 702 368 687 368 677 c 0
 368 671 370 660 369 653 c 0
 366 639 369 635 373 625 c 1
 373 538 l 2
 373 533 371 534 370 532 c 0
 370 502 368 468 364 425 c 0
 364 423 362 423 361 421 c 0
 362 416 364 407 364 402 c 0
 364 398 360 390 359 384 c 0
 358 381 360 375 361 370 c 0
 361 364 359 358 359 353 c 0
 359 341 360 326 361 314 c 0
 360 312 358 311 359 309 c 0
 367 284 358 254 358 227 c 0
 357 215 356 198 359 185 c 0
 360 183 356 179 357 176 c 0
 358 174 360 170 362 168 c 1
 360 166 358 164 358 162 c 0
 358 161 356 157 359 154 c 0
 357 137 359 116 359 96 c 0
 359 90 354 82 353 77 c 0
 353 75 356 72 356 68 c 2
 356 32 l 2
 353 30 348 30 344 26 c 1
 341 30 330 30 325 38 c 0
 322 43 323 55 324 62 c 0
 323 64 321 68 318 69 c 1
 329 84 318 118 329 129 c 1
 329 203 l 1
 319 209 327 224 326 232 c 0
 324 247 321 272 321 277 c 0
 321 281 329 301 329 305 c 0
 329 309 327 310 327 312 c 0
 327 316 321 321 317 325 c 1
 324 332 325 346 325 366 c 0
 325 368 323 370 321 372 c 1
 325 373 327 378 329 382 c 0
 327 384 323 386 321 386 c 1
 321 391 322 397 323 426 c 1
 316 424 302 424 289 425 c 1
 287 420 274 420 266 420 c 0
 261 420 212 419 207 419 c 0
 203 419 179 424 175 424 c 0
 170 424 171 423 172 421 c 1x7a
 167 421 157 419 153 419 c 0
 148 419 133 420 129 420 c 0
 117 420 115 420 102 410 c 1
 101 404 100 397 100 392 c 0
 101 367 94 344 88 316 c 0
 87 309 88 299 87 290 c 0
 87 285 81 277 82 271 c 0
 82 256 82 238 76 225 c 0
 75 222 75 216 77 214 c 0
 76 209 78 189 72 186 c 1
 73 182 75 177 74 173 c 0
 73 154 73 135 71 116 c 1
 80 91 68 98 68 92 c 0
 68 87 75 74 75 70 c 2
 75 43 l 1
 68 39 72 31 72 23 c 0xb9
 73 16 71 2 71 -7 c 1
 66 -9 54 -13 50 -13 c 0
 46 -13 36 -9 29 -5 c 1
 27 19 19 62 19 67 c 0
 19 71 22 77 22 81 c 0
 23 88 23 97 21 107 c 0
 21 108 25 112 26 114 c 0
 25 131 20 151 22 170 c 0
 22 172 26 175 26 179 c 0
 26 183 27 188 27 194 c 0
 28 207 26 223 27 238 c 0
 28 243 31 251 32 259 c 0
 32 261 31 264 29 266 c 0
 30 279 34 295 35 307 c 0
 36 342 41 353 43 373 c 0
 45 400 43 438 48 462 c 0
 50 469 47 490 48 505 c 0
 49 515 54 531 52 544 c 0
 47 591 55 615 52 644 c 0
 47 695 56 739 56 772 c 2
 56 820 l 1
 65 832 72 832 88 832 c 0
 108 832 99 835 128 823 c 0
 131 822 136 816 141 813 c 0
 141 809 143 802 143 798 c 0
 143 795 134 768 129 753 c 0
 123 734 128 718 114 701 c 1
 114 701 114 700 114 698 c 0
 116 696 117 694 118 694 c 0
 119 692 119 690 117 688 c 2
 117 688 119 686 119 684 c 2
 119 682 l 1
 117 682 116 682 114 680 c 0
 116 675 118 670 119 664 c 0
 120 657 119 647 117 640 c 0
 119 627 121 603 121 598 c 0
 121 594 115 581 114 575 c 0
 114 570 116 564 115 558 c 0
 114 556 112 554 108 553 c 1
 117 539 112 536 112 521 c 0
 112 503 112 483 111 462 c 0
 113 453 138 448 144 448 c 0
 149 448 162 452 167 452 c 0
 171 452 192 448 196 448 c 0
 200 448 233 448 248 448 c 0
 256 448 274 443 279 443 c 0
 283 443 284 445 289 445 c 0
 293 445 306 446 310 446 c 0
 314 446 317 446 319 443 c 0
 321 443 323 444 324 446 c 0
 325 451 325 456 322 462 c 0
 323 466 330 472 330 477 c 0
 330 481 327 494 324 508 c 1
 327 518 325 531 327 546 c 0
 325 571 323 606 322 632 c 0
 321 636 323 642 324 647 c 0
 326 654 321 664 321 665 c 0x79
 321 669 321 696 324 711 c 0
 325 712 327 714 329 716 c 1
 325 718 322 724 322 729 c 0
 322 745 324 762 326 779 c 0
 329 803 319 802 319 814 c 0
 319 821 331 828 334 828 c 0
 338 828 351 827 355 823 c 0
 365 815 377 805 377 795 c 0x76
EndSplineSet
Validated: 33
EndChar

StartChar: i
Encoding: 105 105 72
Width: 135
Flags: MW
HStem: -16 21G<64 68.5> -6 21G
VStem: 38 51<256 310 256 336 256 338> 42 48<89 110>
LayerCount: 2
Fore
SplineSet
116 783 m 0x60
 116 779 112 772 107 769 c 1
 107 754 103 740 104 723 c 0
 101 719 99 715 96 712 c 0
 95 710 102 707 102 703 c 0
 105 685 107 648 107 644 c 0
 107 639 101 637 100 634 c 0
 95 625 105 618 90 603 c 1
 94 598 97 591 97 586 c 0
 96 584 94 584 93 582 c 0
 89 574 96 564 97 555 c 0x50
 97 536 101 496 101 492 c 0
 101 488 97 477 93 470 c 1
 93 470 94 468 96 466 c 2x90
 96 466 96 464 95 434 c 0
 95 366 92 351 89 310 c 0
 89 295 88 275 89 256 c 0
 88 254 86 253 83 249 c 2x50
 83 225 l 2
 86 217 88 205 88 194 c 0
 88 187 84 176 86 170 c 0
 88 161 90 143 90 138 c 2
 90 25 l 2
 90 20 88 23 87 21 c 0
 86 14 84 3 86 -4 c 0
 86 -6 84 -9 84 -11 c 0
 79 -13 71 -16 66 -16 c 0
 62 -16 49 -10 43 -6 c 1
 41 32 42 68 42 110 c 1
 42 110 44 110 46 112 c 1
 46 112 44 113 42 113 c 1
 43 145 42 170 41 208 c 0
 40 210 38 211 38 216 c 2
 38 336 l 2
 38 340 41 355 41 364 c 0
 42 399 42 451 44 493 c 0
 42 497 42 655 42 658 c 0
 43 674 46 688 47 703 c 0
 47 705 49 707 47 786 c 0
 50 792 51 799 52 807 c 0
 55 811 60 817 65 817 c 0
 69 817 90 811 102 807 c 0
 106 805 109 800 111 797 c 0
 113 795 116 788 116 783 c 0x60
EndSplineSet
Validated: 33
EndChar

StartChar: j
Encoding: 106 106 73
Width: 332
Flags: MW
HStem: -19 37<132 136 136 136.5> -15 21G<118 120> 814 20G<263.5 268.5>
VStem: 32 54<100 107.5 107.5 112> 85 7 229 47 241 53<609 709>
LayerCount: 2
Fore
SplineSet
80 154 m 1xb4
 85 154 l 1
 85 157 l 1
 80 157 l 1
 80 154 l 1xb4
305 804 m 0
 305 799 292 770 292 766 c 0
 292 761 298 757 297 752 c 0
 296 742 296 725 294 709 c 0
 294 707 296 706 297 704 c 0
 296 683 296 659 297 643 c 0
 298 628 300 603 300 598 c 0
 300 594 296 557 292 539 c 0
 292 537 292 535 293 533 c 0
 293 529 289 512 281 509 c 1
 289 497 292 480 292 469 c 0
 292 456 287 439 278 428 c 0
 279 426 281 427 285 427 c 1
 284 412 287 385 287 380 c 0
 287 376 283 337 281 313 c 0
 279 311 278 307 276 305 c 0
 282 280 278 233 277 213 c 0
 276 206 274 198 275 191 c 0
 274 189 272 189 271 187 c 0
 275 177 273 160 271 144 c 0
 271 141 272 135 274 130 c 0
 274 128 274 126 276 87 c 1
 267 63 274 53 248 22 c 0
 242 15 229 10 220 8 c 0
 218 7 214 5 214 4 c 0
 212 3 208 4 205 2 c 0
 199 -1 192 -10 188 -12 c 0
 172 -17 139 -19 134 -19 c 0
 130 -19 122 -15 118 -15 c 0
 91 -14 90 -3 78 4 c 0
 75 6 70 6 67 9 c 0
 60 16 53 30 47 40 c 0
 41 53 29 73 32 89 c 0
 31 91 29 92 29 96 c 0
 29 101 31 98 32 100 c 0
 32 124 30 150 37 173 c 0
 39 176 36 182 37 185 c 0
 40 204 43 225 47 243 c 1
 54 246 63 255 66 255 c 0
 78 255 82 238 84 235 c 0
 85 234 85 230 84 228 c 0x6a
 88 223 92 205 92 193 c 0
 92 188 87 161 86 144 c 0
 85 127 86 115 86 100 c 0
 86 99 83 96 79 93 c 1
 88 88 87 77 89 67 c 0
 91 60 99 55 103 47 c 0
 107 38 125 18 130 18 c 0
 135 18 131 18 136 18 c 0
 146 18 183 34 189 36 c 0
 202 42 213 63 217 76 c 0
 219 81 222 87 223 93 c 0x74
 224 97 220 105 220 113 c 0
 220 121 222 128 224 135 c 1
 220 147 225 167 227 182 c 0
 228 184 229 181 229 186 c 0
 229 190 222 193 222 198 c 0
 222 203 224 200 225 202 c 0
 222 222 228 246 227 268 c 0
 226 279 231 292 232 305 c 1
 232 305 229 303 229 308 c 2
 229 365 l 2
 229 368 233 374 235 380 c 0
 233 406 231 456 231 461 c 0
 231 465 231 474 232 482 c 0
 232 485 235 489 237 493 c 2
 237 493 237 495 238 497 c 0
 239 498 239 498 239 503 c 0
 239 507 237 509 238 511 c 2
 238 513 l 2
 235 518 231 529 231 533 c 0
 231 537 235 548 235 555 c 0
 235 572 237 591 241 609 c 0
 241 611 239 612 241 672 c 1
 237 675 233 684 233 689 c 0
 233 698 237 684 235 716 c 0
 235 727 237 741 238 754 c 0
 238 757 242 764 242 768 c 0
 242 773 239 772 237 774 c 0
 236 778 239 785 240 791 c 0xac
 240 792 239 796 238 800 c 0
 237 803 235 807 235 812 c 0
 235 826 246 827 252 833 c 0
 256 834 261 834 266 834 c 0
 271 834 273 830 275 829 c 0
 283 827 305 814 305 804 c 0
EndSplineSet
Validated: 33
EndChar

StartChar: k
Encoding: 107 107 74
Width: 347
Flags: MW
HStem: -3 21G<307 311.5 309 332> 814 20G<50.5 55.5>
VStem: 32 37 34 41<628 679 679 682.5> 300 34<3 11.5>
LayerCount: 2
Fore
SplineSet
334 9 m 0xe8
 334 5 334 1 332 -3 c 0
 325 -4 314 -3 309 -3 c 0
 305 -3 303 1 300 3 c 2
 300 3 299 5 301 9 c 1
 292 9 l 1
 287 20 278 33 272 44 c 0
 271 45 272 50 271 53 c 0
 265 63 255 77 248 90 c 0
 246 93 246 100 245 105 c 0
 243 113 238 122 233 128 c 0
 232 129 234 133 234 135 c 0
 224 137 216 173 216 183 c 1
 212 189 206 198 203 207 c 0
 203 209 199 212 198 214 c 0
 192 227 184 240 180 251 c 0
 175 263 154 291 154 307 c 1
 138 316 127 356 114 373 c 0
 111 378 110 387 110 394 c 1
 98 404 91 434 76 440 c 1
 76 440 73 439 72 437 c 0
 71 430 73 422 74 415 c 0
 73 413 69 409 69 405 c 0
 69 401 73 396 74 393 c 0
 75 391 73 387 73 384 c 0
 75 382 75 378 75 376 c 0
 75 374 77 372 77 368 c 0
 77 363 75 343 72 331 c 0
 73 328 74 323 74 320 c 0
 74 316 75 307 74 301 c 0
 73 300 73 298 72 296 c 0
 73 265 73 226 70 198 c 0
 69 196 68 194 66 192 c 0
 69 184 69 168 69 163 c 2
 69 116 l 2
 69 112 67 116 67 115 c 0
 65 107 65 100 66 92 c 0
 65 91 62 87 62 84 c 0
 66 78 65 66 65 61 c 1
 65 61 64 61 62 59 c 0
 64 48 62 35 62 25 c 1
 58 20 59 18 60 13 c 0
 58 11 56 8 52 8 c 0
 48 8 39 16 33 22 c 0
 29 26 27 37 27 43 c 0
 27 46 28 60 30 102 c 0
 30 107 32 115 35 120 c 1
 32 126 34 137 32 146 c 0
 33 150 34 153 34 157 c 2
 33 159 l 2xd8
 33 163 32 167 32 170 c 0
 32 181 36 195 39 208 c 0
 40 209 38 213 37 215 c 0
 38 222 47 227 39 230 c 1xe8
 40 231 43 235 43 239 c 0
 43 242 36 251 34 257 c 0
 32 260 34 265 35 268 c 0
 34 270 32 272 32 277 c 1
 35 279 l 2
 36 283 33 290 33 296 c 0
 33 299 37 305 37 311 c 0
 37 331 36 354 35 376 c 0
 36 378 38 381 40 383 c 1
 31 389 37 412 35 422 c 0
 34 426 32 431 32 435 c 0
 32 440 34 447 40 448 c 1
 37 451 32 457 32 462 c 0
 32 465 34 483 35 493 c 0
 35 496 40 501 40 505 c 0
 40 510 36 509 35 511 c 0
 36 516 32 523 32 528 c 0
 32 532 42 546 42 551 c 0
 42 554 32 576 32 580 c 0
 32 585 38 601 39 611 c 0
 40 616 34 624 34 628 c 2
 34 679 l 2
 34 686 40 707 43 711 c 1
 39 714 36 716 36 720 c 0
 36 724 38 741 40 750 c 0
 42 752 45 752 45 756 c 0
 45 760 41 773 38 783 c 0
 37 788 40 795 39 803 c 0
 39 807 30 811 30 815 c 0
 30 819 41 826 48 833 c 0
 49 834 48 834 53 834 c 0
 58 834 76 812 80 810 c 1
 79 797 75 775 75 770 c 2
 75 593 l 2
 78 584 78 568 82 554 c 1xd8
 89 560 95 571 105 576 c 1
 104 580 108 581 111 586 c 0
 112 587 114 591 111 594 c 0
 118 610 130 625 142 637 c 1
 149 657 165 680 183 702 c 0
 182 705 184 713 187 715 c 0
 189 718 195 722 196 726 c 0
 201 742 214 762 226 773 c 1
 233 796 244 819 262 819 c 0
 276 819 301 799 304 795 c 0
 306 792 307 787 306 783 c 0
 308 780 312 778 312 773 c 0
 312 768 307 762 306 758 c 1
 304 760 305 760 301 760 c 0
 297 760 289 755 283 754 c 0
 282 754 280 749 279 746 c 0
 278 744 273 740 270 735 c 0
 266 730 263 712 251 707 c 1
 241 690 234 665 218 646 c 0
 216 644 216 636 213 633 c 0
 207 625 199 615 192 611 c 0
 188 608 179 603 173 596 c 0
 172 594 173 590 172 587 c 0
 170 579 164 566 156 555 c 0
 153 551 147 546 144 542 c 0
 143 540 143 538 143 536 c 0
 137 533 129 530 125 523 c 0
 121 517 116 506 116 502 c 0
 116 498 125 478 128 467 c 0
 133 460 142 448 148 441 c 0
 149 440 148 435 149 432 c 0
 160 410 173 383 180 363 c 0
 183 353 194 339 200 328 c 0
 202 324 204 314 207 308 c 0
 210 300 224 286 222 276 c 0
 223 274 227 273 228 272 c 0
 234 254 242 231 251 215 c 0
 255 209 264 195 269 186 c 0
 272 179 270 170 273 163 c 0
 283 146 297 114 299 98 c 0
 300 93 311 83 317 74 c 1
 315 69 314 61 313 56 c 0
 314 54 317 53 318 52 c 0
 321 49 329 37 326 31 c 1
 330 24 334 14 334 9 c 0xe8
EndSplineSet
Validated: 33
EndChar

StartChar: l
Encoding: 108 108 75
Width: 262
Flags: MW
HStem: 48 13
VStem: 26 36 38 37
LayerCount: 2
Fore
SplineSet
236 49 m 1xa0
 232 47 226 46 222 47 c 0
 216 43 211 37 206 37 c 0
 201 37 189 41 185 41 c 0
 180 41 185 37 180 37 c 0xa0
 176 37 151 34 147 34 c 0
 143 34 134 37 129 37 c 0
 125 37 120 34 115 34 c 0
 111 34 107 35 103 35 c 0
 99 35 75 30 70 30 c 0
 66 30 43 37 35 47 c 0
 30 51 27 64 26 73 c 0
 25 133 28 157 29 164 c 0
 30 167 32 171 32 175 c 0xc0
 32 181 30 189 30 194 c 0
 30 197 31 209 39 213 c 0
 38 216 34 217 34 221 c 0
 34 226 38 235 36 240 c 0
 38 242 39 242 41 244 c 0
 37 249 36 257 36 260 c 0
 36 264 37 271 39 277 c 0
 40 283 38 295 41 301 c 0
 41 303 39 307 40 309 c 0
 43 315 41 329 42 340 c 0
 41 342 41 343 40 345 c 0
 39 349 42 353 42 357 c 0
 44 364 39 379 44 387 c 1
 45 402 44 420 44 440 c 0
 44 443 45 447 45 451 c 0
 46 456 45 462 45 468 c 0
 45 473 42 479 42 484 c 0
 42 495 51 512 51 517 c 0
 51 521 41 526 41 530 c 0
 41 534 45 553 49 564 c 0
 47 565 43 566 40 569 c 0
 40 573 42 579 41 582 c 0
 38 588 36 599 36 603 c 0
 36 607 39 612 39 616 c 0
 39 620 38 629 38 636 c 0
 38 638 41 642 42 644 c 0
 41 649 45 657 45 662 c 0
 45 666 41 671 40 677 c 0
 39 686 41 695 42 705 c 0
 43 721 40 742 42 760 c 0
 42 765 38 772 38 777 c 0
 38 779 41 795 49 795 c 0
 56 795 71 790 74 786 c 0
 81 779 80 765 79 758 c 0
 76 740 78 721 76 703 c 1
 85 682 75 686 75 682 c 2
 84 483 l 2
 84 479 80 436 76 416 c 1
 76 373 78 372 78 368 c 0
 78 364 75 362 75 358 c 0
 74 336 74 312 71 290 c 0
 70 279 69 264 70 251 c 1
 65 238 71 221 61 203 c 1
 62 186 64 166 61 155 c 0
 62 144 62 132 61 120 c 0
 60 111 62 97 62 88 c 0
 62 84 58 82 58 77 c 2
 58 66 l 1
 65 65 76 59 81 59 c 0
 86 59 113 67 118 67 c 0
 123 67 141 58 146 58 c 0
 151 58 193 67 198 67 c 0
 202 67 203 61 207 61 c 0
 212 61 220 61 224 61 c 0
 227 58 234 54 236 49 c 1xa0
EndSplineSet
Validated: 33
EndChar

StartChar: m
Encoding: 109 109 76
Width: 401
Flags: MW
HStem: -11 21G<67.5 72.5> -7 21G<345.5 351.5> -3 21G
VStem: 28 54 35 58<353 354> 55 42<644 648.5> 121 42 315 44 322 48<290 294 290 294>
LayerCount: 2
Fore
SplineSet
381 556 m 0x3280
 381 551 377 528 377 514 c 0
 376 500 381 476 370 469 c 1
 372 457 374 442 373 427 c 0
 372 399 370 369 369 342 c 0
 368 341 366 340 364 338 c 0
 364 336 368 333 369 331 c 0
 370 325 370 317 372 310 c 2
 372 310 370 308 370 290 c 2
 371 267 l 1
 371 267 372 254 371 253 c 0
 368 251 367 245 367 240 c 0
 366 220 368 197 366 175 c 0
 365 169 359 150 356 140 c 1
 364 132 353 112 353 110 c 0
 353 106 355 95 359 88 c 1
 355 78 365 37 365 34 c 0
 365 29 361 9 360 -3 c 0
 357 -5 354 -7 349 -7 c 0
 342 -7 323 0 321 5 c 0
 312 32 318 48 318 68 c 0
 317 69 318 73 319 77 c 0
 318 79 315 79 315 84 c 0
 315 87 317 119 318 138 c 0
 318 152 317 170 319 184 c 0x3280
 319 188 322 194 322 197 c 0
 320 205 320 216 322 223 c 0
 322 246 322 270 322 294 c 0
 324 296 326 296 328 298 c 0
 328 300 324 303 320 306 c 1
 322 386 320 388 320 390 c 0
 324 406 328 429 328 447 c 0
 329 448 331 450 332 451 c 0
 333 455 331 459 331 462 c 2
 333 463 l 2
 333 467 332 471 332 475 c 0
 331 480 326 486 326 491 c 0
 326 495 334 509 332 516 c 0
 329 539 333 556 332 575 c 1
 333 575 335 577 337 579 c 1x53
 333 582 328 586 328 590 c 0
 326 608 325 629 326 649 c 1
 323 652 l 1
 319 650 316 646 313 643 c 0
 313 641 313 640 313 638 c 0
 311 634 308 629 306 623 c 0
 304 620 305 616 305 612 c 0
 305 609 299 605 296 601 c 0
 291 591 288 573 284 560 c 0
 283 555 276 548 274 543 c 0
 272 536 274 528 271 522 c 0
 270 518 268 514 263 508 c 1
 265 507 266 505 268 505 c 1
 267 502 263 500 260 497 c 0
 258 484 253 462 242 451 c 0
 242 449 244 446 248 443 c 0
 248 440 252 437 252 433 c 0
 252 420 240 429 250 415 c 1
 248 415 247 413 242 413 c 0
 217 413 190 470 191 479 c 1
 186 486 176 500 180 510 c 0
 180 517 176 524 173 534 c 1
 149 550 148 584 139 606 c 0
 138 609 139 614 139 618 c 0
 133 642 113 657 124 675 c 0
 124 680 118 686 118 693 c 1
 111 699 105 705 97 711 c 1
 95 704 94 695 94 691 c 0
 94 687 97 675 97 670 c 0
 97 662 96 649 97 640 c 0
 98 632 102 625 102 618 c 0
 102 616 102 577 101 573 c 0
 100 568 98 561 96 556 c 0
 96 555 98 551 98 547 c 0
 98 539 96 527 95 516 c 0
 94 505 100 488 95 477 c 1x5280
 96 461 96 451 98 438 c 1
 89 418 97 392 95 377 c 0
 95 373 90 369 90 364 c 0
 90 361 93 357 93 353 c 0
 92 337 91 326 89 310 c 0
 88 300 88 285 87 271 c 0
 86 253 89 233 79 216 c 1
 89 212 82 196 82 186 c 0
 82 171 87 146 87 142 c 0
 87 138 85 134 84 131 c 0
 82 114 79 91 81 73 c 0
 81 68 89 59 76 51 c 1
 78 49 79 49 81 48 c 0
 79 38 85 17 85 12 c 0
 85 8 85 3 84 -3 c 0
 82 -6 75 -11 70 -11 c 0x2a80
 65 -11 63 -9 62 -8 c 0
 56 -9 38 -5 35 6 c 0
 35 11 35 20 36 25 c 0
 35 27 35 30 34 32 c 0
 33 40 35 49 34 58 c 0
 33 60 30 64 28 64 c 1
 30 69 35 78 35 83 c 0
 35 87 28 105 28 109 c 0
 28 113 33 167 34 195 c 1
 34 195 33 197 32 199 c 0
 34 220 28 246 39 270 c 1
 39 270 39 271 39 273 c 0
 39 275 37 278 36 280 c 0
 35 282 35 345 35 349 c 0
 35 359 37 372 40 383 c 0
 41 385 39 388 37 392 c 0
 37 393 39 394 40 396 c 0
 41 398 39 399 37 399 c 1
 39 409 37 423 37 436 c 0
 37 442 39 453 40 462 c 0
 41 470 37 483 44 492 c 1
 44 492 43 493 41 493 c 1
 41 502 41 514 41 523 c 1
 41 523 39 520 39 525 c 0
 39 526 47 531 42 547 c 1
 44 559 44 579 45 594 c 0
 47 607 48 622 51 638 c 0
 54 640 55 642 55 646 c 0
 55 651 52 652 50 654 c 0
 48 669 44 697 44 702 c 0
 44 706 46 720 48 733 c 0
 49 737 53 739 53 744 c 0
 53 748 50 747 49 747 c 0
 48 758 46 757 46 758 c 0
 46 763 50 764 50 766 c 0
 48 769 46 776 49 779 c 0
 58 793 66 798 77 798 c 0
 86 798 98 784 102 779 c 0
 109 770 121 760 127 749 c 0
 133 736 137 718 143 703 c 0
 148 696 152 684 153 679 c 0
 156 673 167 658 163 647 c 1
 174 625 180 610 191 582 c 0
 193 581 192 577 192 573 c 0
 197 560 210 539 214 523 c 0
 216 513 221 494 229 483 c 0
 231 483 231 485 232 487 c 0
 235 503 245 523 249 537 c 0
 250 538 248 542 246 546 c 0x9280
 253 556 255 572 258 582 c 0
 259 583 261 585 262 587 c 0
 263 590 262 596 263 599 c 0
 266 607 271 616 274 624 c 0x2680
 279 634 283 650 287 662 c 0
 291 672 300 684 304 697 c 0
 303 699 302 701 302 703 c 0
 306 709 310 716 314 722 c 0
 316 725 321 744 329 748 c 1
 325 753 318 763 318 768 c 0
 318 772 326 780 328 786 c 0
 333 789 343 791 348 791 c 0
 352 791 358 790 360 788 c 0
 375 776 377 752 370 740 c 0
 372 738 372 736 370 655 c 0
 372 621 381 560 381 556 c 0x3280
EndSplineSet
Validated: 33
EndChar

StartChar: n
Encoding: 110 110 77
Width: 361
Flags: MW
HStem: -15 9 -15 21G<65 69.5> -8 21G<310.5 316.5> -3 21G -1 21G<55 55>
VStem: 30 20 34 50 44 46 282 40<309.5 334> 282 44<111.5 331 150 150.5 309.5 318>
LayerCount: 2
Fore
SplineSet
50 -6 m 1x0940
 56 -4 l 1
 55 -1 l 1
 50 -4 l 1x8440
 50 -6 l 1x0940
330 356 m 0x0980
 330 352 328 347 329 341 c 0
 328 339 326 336 322 334 c 1
 326 331 l 1
 326 150 l 1
 321 145 325 139 323 134 c 0
 321 131 319 128 319 124 c 0
 319 119 320 121 322 119 c 0
 320 109 322 95 323 82 c 0
 323 79 328 73 328 69 c 0x0980
 328 65 324 63 320 60 c 1
 331 46 322 22 330 6 c 1
 326 2 319 -8 314 -8 c 0
 307 -8 285 4 284 14 c 0
 283 20 285 30 286 37 c 0
 287 41 290 53 285 58 c 1x0940
 286 63 285 71 287 77 c 0
 287 79 285 82 284 84 c 0
 285 93 282 109 282 114 c 0
 282 118 285 131 289 138 c 0x2180
 290 140 286 141 282 143 c 1
 282 158 282 175 278 245 c 1
 285 254 282 275 284 290 c 0x2140
 285 296 282 307 282 312 c 0x0a40
 282 324 284 351 289 358 c 1
 284 365 276 374 271 382 c 0
 268 385 265 390 264 395 c 0
 262 398 257 399 254 400 c 0
 246 406 239 417 236 424 c 0
 233 427 221 437 227 445 c 0
 226 447 222 448 219 450 c 0
 217 453 213 458 214 462 c 0
 211 465 204 469 206 474 c 0
 203 477 194 490 192 496 c 0
 185 501 180 511 171 517 c 1
 171 528 150 549 147 562 c 0
 145 571 137 577 129 585 c 0
 123 591 122 602 120 610 c 0
 119 612 116 613 113 613 c 0
 108 621 104 633 92 633 c 1
 91 621 91 601 90 584 c 0
 89 583 85 579 85 575 c 0
 85 571 91 565 91 560 c 0
 92 541 93 506 93 502 c 0
 93 497 89 493 88 488 c 0
 95 469 90 428 90 399 c 0
 90 397 85 393 82 388 c 1
 82 388 81 387 83 385 c 1x0940
 84 387 85 382 85 380 c 0
 87 373 89 364 91 356 c 2
 91 287 l 2
 91 283 87 271 86 262 c 1
 86 262 85 262 83 260 c 1
 87 257 89 241 89 235 c 0
 89 231 83 229 83 225 c 0
 84 221 85 215 83 212 c 2x0a40
 85 121 l 2
 84 109 82 93 81 80 c 0
 79 64 86 34 83 12 c 0x0940
 82 10 79 6 79 3 c 0
 79 -1 80 -4 79 -9 c 0x4240
 76 -11 72 -15 67 -15 c 0
 63 -15 43 -8 36 -3 c 1
 36 9 30 38 30 43 c 0
 30 47 34 80 38 97 c 0
 37 100 34 104 34 108 c 2
 34 158 l 2
 34 163 35 160 36 162 c 0
 35 169 38 178 38 186 c 0
 38 193 40 202 40 212 c 0
 40 217 37 225 40 232 c 1
 40 232 37 231 37 236 c 0x1240
 37 240 36 271 40 290 c 0
 40 294 48 299 48 303 c 0
 48 308 45 310 43 311 c 0
 43 315 45 321 45 327 c 0
 45 332 39 338 39 342 c 0
 39 347 42 351 42 354 c 0
 42 367 38 378 45 386 c 1
 44 397 43 408 45 417 c 0
 44 426 48 440 48 445 c 0
 48 449 49 450 45 452 c 0x0940
 45 454 47 458 46 459 c 0
 40 468 43 486 45 499 c 0
 45 502 43 506 42 510 c 0
 41 545 41 582 44 619 c 0
 41 620 40 624 40 628 c 0x0a40
 39 635 43 643 40 650 c 0
 35 664 38 675 38 688 c 0
 36 708 28 748 28 752 c 0
 28 766 51 774 54 774 c 0x0940
 63 774 86 751 90 744 c 0
 94 736 98 723 101 712 c 0
 103 706 116 689 114 682 c 1x0a80
 130 672 134 655 139 642 c 1
 153 624 169 603 178 584 c 0x0940
 182 577 197 564 198 557 c 0
 211 538 221 521 231 503 c 0
 232 501 238 497 242 493 c 0
 257 476 266 453 279 433 c 1
 282 439 285 452 285 456 c 0
 285 460 280 461 280 465 c 0
 280 471 278 478 278 483 c 0
 278 491 281 491 287 493 c 1
 275 505 278 521 277 536 c 0
 277 546 276 559 282 573 c 1
 282 739 l 2
 282 743 272 755 272 760 c 0
 272 767 279 781 292 781 c 0
 296 781 311 776 318 771 c 0
 322 768 328 757 328 752 c 0
 328 747 324 744 321 741 c 0
 320 734 325 727 323 719 c 0
 322 709 317 694 317 690 c 0
 317 686 319 684 320 680 c 0
 322 670 322 649 324 634 c 0
 324 627 320 618 321 610 c 0
 322 605 324 599 324 594 c 0
 324 590 320 589 319 587 c 0
 324 565 321 538 319 519 c 0
 318 506 320 491 320 480 c 0
 321 471 322 463 321 452 c 0
 321 449 315 444 315 440 c 0
 315 436 321 426 323 419 c 0x0980
 326 413 327 404 327 397 c 0
 325 388 327 376 328 371 c 0
 328 369 328 365 327 364 c 0x0940
 328 362 330 361 330 356 c 0x0980
EndSplineSet
Validated: 33
EndChar

StartChar: o
Encoding: 111 111 78
Width: 398
Flags: MW
HStem: -7 21G<178 182> -7 37<178 192> 722 52<222.5 251>
VStem: 21 53<425.5 458> 34 39<349 391 362 391 373 391 375 391> 76 15 309 45 321 50<557 563.5>
LayerCount: 2
Fore
SplineSet
321 559 m 0xb1
 321 568 323 588 317 599 c 1
 316 611 317 623 312 638 c 0xb1
 307 655 301 673 291 688 c 0
 283 698 272 707 267 716 c 0
 262 718 253 722 249 722 c 0
 245 722 203 724 185 720 c 0
 168 715 149 703 136 695 c 0
 130 691 120 690 114 681 c 0
 108 671 100 656 94 651 c 1
 95 651 97 649 97 648 c 0
 91 631 82 606 84 585 c 0
 83 583 84 579 81 577 c 0
 80 561 81 541 74 522 c 0
 71 513 78 496 69 490 c 1
 73 488 74 484 74 481 c 0
 74 470 74 461 74 455 c 0
 74 451 72 447 71 445 c 0
 72 442 72 430 69 427 c 0
 75 401 68 411 68 405 c 1
 70 403 l 2xa9
 70 401 69 397 69 397 c 2
 69 396 73 392 73 390 c 0
 71 388 68 384 68 382 c 0
 71 376 75 376 75 371 c 0
 75 367 71 353 69 343 c 1xb1
 78 335 70 323 70 317 c 0
 71 316 72 314 72 314 c 1
 73 304 74 296 73 288 c 0
 71 287 70 285 68 285 c 1
 72 276 69 274 70 269 c 0
 71 266 73 262 72 259 c 0xa9
 72 255 68 251 68 249 c 0
 67 240 69 230 68 224 c 0
 72 217 74 208 70 197 c 1xb1
 74 191 77 181 79 171 c 2
 79 157 l 2
 77 155 76 154 76 152 c 1
 79 155 77 148 82 145 c 0
 81 142 80 138 81 134 c 0
 87 128 95 112 88 103 c 1
 94 96 99 85 102 75 c 0
 104 70 104 62 107 58 c 0
 111 52 122 46 126 41 c 1
 146 39 186 30 190 30 c 0
 194 30 247 56 273 71 c 1
 272 80 271 92 281 97 c 0
 282 99 282 101 284 103 c 0
 279 116 287 130 291 142 c 0
 292 145 290 151 291 155 c 0
 299 182 303 212 305 236 c 0
 305 241 311 243 313 247 c 0
 316 252 311 259 309 261 c 0
 312 279 310 297 311 314 c 0
 312 318 316 323 316 325 c 0
 316 333 310 341 311 347 c 0
 312 360 312 375 316 386 c 1x65
 316 425 317 464 318 501 c 0
 318 518 321 555 321 559 c 0xb1
371 594 m 2
 371 451 l 2
 371 447 362 410 361 395 c 0
 360 362 362 329 361 297 c 0
 360 284 361 271 359 258 c 0
 358 253 354 245 354 238 c 0
 354 228 359 211 349 202 c 0
 349 201 351 198 352 196 c 0
 349 163 337 136 331 110 c 0
 328 108 325 103 321 99 c 1
 321 99 323 98 325 98 c 1
 321 80 312 65 292 43 c 0
 291 43 289 43 288 42 c 0xb1
 284 37 279 28 271 25 c 0
 261 20 241 12 226 7 c 0
 225 6 221 0 217 -1 c 0
 206 -5 184 -7 180 -7 c 0
 176 -7 158 2 148 5 c 0
 138 8 125 5 114 10 c 0
 106 14 94 23 85 27 c 1
 79 37 64 52 59 64 c 0
 55 72 52 87 50 97 c 0
 47 106 42 120 38 132 c 0
 37 140 38 151 37 160 c 0
 37 164 32 170 31 173 c 0xaa
 33 175 36 181 35 184 c 0
 35 188 28 198 27 203 c 0
 25 216 23 238 23 243 c 0
 23 247 27 263 28 271 c 1
 36 278 32 282 38 286 c 1
 34 288 34 289 31 292 c 0
 32 295 34 299 34 304 c 0
 34 308 33 310 29 312 c 1
 29 317 27 325 27 330 c 0
 27 334 31 344 34 349 c 1
 30 361 34 361 34 362 c 0
 34 366 28 361 34 373 c 1
 34 375 l 2
 34 379 29 379 27 384 c 0
 23 398 21 423 21 428 c 0
 21 432 25 479 26 505 c 0
 27 505 29 507 30 509 c 0
 31 512 31 516 32 520 c 0
 32 521 29 525 29 529 c 0
 29 533 31 542 31 548 c 0
 32 549 34 553 36 555 c 1
 36 555 35 556 33 556 c 0
 31 558 31 562 30 564 c 0
 32 578 27 576 27 577 c 0
 27 582 29 579 30 581 c 0
 28 586 30 594 31 601 c 0
 32 613 35 626 37 640 c 0
 38 647 41 657 44 666 c 0
 45 668 50 670 52 674 c 0
 57 682 60 693 64 701 c 0
 67 707 77 712 81 715 c 0
 83 717 85 723 88 726 c 0
 101 735 115 745 129 753 c 0
 133 755 140 754 143 757 c 0
 152 759 163 763 174 765 c 0
 177 766 181 771 185 772 c 0
 198 773 220 774 225 774 c 0
 228 774 254 769 269 764 c 0
 270 764 272 759 276 756 c 0
 278 755 283 756 286 755 c 0
 291 752 299 742 307 735 c 0
 318 724 328 716 335 705 c 0
 337 701 345 697 346 690 c 0
 351 672 361 658 362 642 c 0
 362 640 360 638 358 636 c 1
 360 634 364 633 365 631 c 0
 366 621 371 598 371 594 c 2
EndSplineSet
Validated: 33
EndChar

StartChar: p
Encoding: 112 112 79
Width: 291
Flags: MW
HStem: -5 21G<62.5 65> 323 33<79 83.5> 488 8 705 28
VStem: 26 47 38 39 217 13 218 52<509 510 479 512 509 510 479 516.5>
LayerCount: 2
Fore
SplineSet
230 570 m 1xf9
 227 568 223 570 221 572 c 0
 221 583 217 603 217 607 c 0
 217 612 221 622 223 627 c 1
 210 637 205 658 200 669 c 0
 175 722 116 700 81 705 c 1
 79 700 78 691 77 686 c 0
 77 684 79 682 78 558 c 0
 79 495 78 494 78 494 c 2
 79 470 77 445 77 423 c 0
 77 412 77 401 76 390 c 0
 76 386 73 384 73 380 c 0
 73 375 80 362 79 356 c 1
 85 356 l 1
 89 359 l 1
 99 361 110 365 115 365 c 0
 119 365 118 363 122 363 c 0
 127 363 128 367 130 368 c 0
 133 369 137 369 141 369 c 0
 143 371 145 374 147 375 c 0
 150 376 156 378 159 381 c 0
 161 387 163 385 171 394 c 0
 173 395 174 395 176 395 c 0
 208 419 206 456 218 485 c 0
 217 493 218 504 218 512 c 0
 218 521 221 538 221 542 c 0
 221 546 217 546 219 548 c 0
 221 548 223 551 225 551 c 1
 223 553 221 554 222 556 c 0
 223 558 227 560 228 560 c 1
 227 564 230 569 230 570 c 1xf9
277 553 m 1
 274 550 l 2
 273 544 274 533 272 527 c 0
 271 522 274 516 270 510 c 0
 270 508 275 500 267 496 c 1
 271 494 271 490 275 488 c 1
 271 486 270 483 270 479 c 0
 269 464 269 447 265 430 c 0
 259 406 252 395 244 386 c 0
 242 383 236 375 229 369 c 0
 210 351 193 346 176 340 c 0
 157 332 117 322 113 322 c 0
 108 322 91 323 76 323 c 1
 73 309 75 293 72 279 c 0
 71 274 74 268 73 199 c 0
 73 186 67 167 66 155 c 0
 66 146 69 134 69 125 c 0
 69 122 66 120 66 116 c 0
 66 111 69 114 70 112 c 0
 69 110 68 108 67 107 c 0
 68 95 68 82 68 71 c 0
 68 66 67 59 68 53 c 0
 69 49 73 46 73 42 c 0
 73 37 71 40 71 38 c 0
 71 35 70 31 70 27 c 0
 69 17 67 6 65 -5 c 1
 60 -5 51 -7 46 -7 c 0
 34 -7 25 4 31 19 c 1
 21 30 32 49 31 60 c 0
 29 64 23 66 23 71 c 0
 23 74 30 98 32 101 c 1
 32 101 31 102 29 102 c 1
 29 108 29 114 25 120 c 1
 31 124 31 132 32 136 c 2
 32 170 l 2
 32 174 28 173 27 177 c 0
 25 186 23 203 23 208 c 0
 23 212 26 221 26 227 c 0
 26 235 24 247 25 257 c 0
 26 260 29 265 30 272 c 0
 30 275 31 279 28 281 c 0
 29 284 32 288 32 293 c 0
 32 297 25 311 25 316 c 0
 25 320 30 333 31 340 c 0
 31 353 28 369 28 383 c 0
 28 389 31 399 32 405 c 0
 32 411 30 421 31 429 c 0
 31 432 35 437 35 444 c 0
 36 453 33 467 31 477 c 0
 29 486 35 500 37 510 c 1
 32 523 32 532 37 545 c 1
 34 555 36 569 35 581 c 0
 35 590 40 605 42 616 c 1
 32 633 45 667 45 685 c 0
 45 696 31 718 31 727 c 0
 34 731 40 737 44 737 c 0xf6
 49 737 55 733 60 733 c 0
 65 733 130 746 135 746 c 0
 139 746 151 744 157 744 c 0
 158 742 159 741 161 739 c 0
 169 739 176 741 185 741 c 1
 189 737 l 1
 195 737 201 729 204 728 c 0
 211 726 220 723 226 716 c 0
 227 714 227 711 227 709 c 0
 233 706 243 699 248 690 c 0
 252 685 257 672 259 664 c 0
 260 661 259 655 260 651 c 0
 271 630 268 608 270 586 c 0
 271 583 274 579 274 575 c 0
 275 570 273 562 274 557 c 0
 275 555 277 553 277 553 c 1
EndSplineSet
Validated: 33
EndChar

StartChar: q
Encoding: 113 113 80
Width: 471
Flags: MW
HStem: -6 38 -6 41<149.5 173 149.5 202> 15 20 18 41<403.5 444> 133 32<251 252> 729 41<253 269.5>
VStem: 32 46 44 41 393 51<525 590.5 558 590.5>
LayerCount: 2
Fore
SplineSet
308 78 m 0x8e80
 308 79 295 102 289 102 c 0
 284 102 286 100 286 100 c 1
 288 105 280 113 276 125 c 1
 267 129 254 133 250 133 c 0
 245 133 226 121 224 118 c 0
 214 101 212 75 211 60 c 0
 210 52 204 38 200 32 c 1
 218 35 236 35 252 40 c 0
 266 44 277 55 287 62 c 0
 293 66 308 70 308 78 c 0x8e80
401 486 m 0
 399 488 397 491 396 493 c 0
 400 502 397 517 393 525 c 1
 393 538 393 552 393 564 c 0
 393 580 392 596 392 608 c 0
 386 629 381 649 374 667 c 1
 357 680 331 715 304 719 c 0
 300 719 296 726 292 726 c 0
 288 726 290 724 285 724 c 0
 280 724 272 729 267 729 c 0
 263 729 238 727 224 725 c 0
 209 723 190 719 180 712 c 0
 175 709 168 706 166 704 c 0
 151 693 134 675 119 662 c 1
 120 656 119 655 115 651 c 0
 107 629 98 602 95 584 c 0
 93 575 91 566 91 558 c 0
 90 556 88 555 87 553 c 0
 86 551 88 548 89 547 c 0
 90 537 91 526 89 517 c 0
 86 499 86 479 84 464 c 0
 81 452 83 436 82 427 c 0
 80 417 76 407 71 399 c 1
 84 378 74 340 75 327 c 0
 77 308 84 286 85 267 c 0
 85 252 84 233 85 221 c 0
 85 215 90 210 91 204 c 0
 93 193 91 182 92 171 c 0
 93 165 96 159 96 154 c 0
 96 137 102 114 106 95 c 1
 113 85 136 35 163 35 c 0x8e80
 169 35 172 42 172 51 c 0
 173 52 176 54 178 54 c 1
 178 75 l 2
 175 77 173 80 173 82 c 0
 179 87 178 94 179 99 c 0
 182 109 193 119 201 125 c 0
 199 128 201 132 200 134 c 0
 206 140 212 146 218 151 c 0
 225 156 235 156 238 158 c 0
 238 160 241 163 243 164 c 0
 247 164 249 165 253 165 c 0
 257 165 278 159 287 157 c 0
 303 151 319 122 335 104 c 0
 336 104 339 104 339 104 c 1
 343 109 348 117 350 121 c 0
 352 126 349 132 350 135 c 0
 366 157 351 185 373 200 c 1x4d80
 371 206 366 213 366 217 c 0
 366 221 373 266 377 290 c 1
 370 327 390 371 390 401 c 0
 390 409 384 427 394 434 c 1x4e80
 397 450 384 462 401 486 c 0
458 45 m 0
 458 41 456 41 456 39 c 1
 452 39 449 37 445 36 c 1
 447 34 449 34 451 34 c 1
 447 35 445 33 441 32 c 0
 439 31 441 30 441 28 c 1
 439 28 437 28 435 29 c 0
 426 29 432 20 422 20 c 0
 418 20 410 18 405 18 c 0
 402 18 378 20 366 24 c 0
 360 27 351 35 340 40 c 0
 337 41 333 39 326 40 c 0
 323 38 321 36 322 32 c 0
 311 25 297 16 284 11 c 0
 259 3 206 -6 202 -6 c 0
 198 -6 175 -6 171 -6 c 0
 166 -6 150 -2 137 0 c 0
 130 3 121 4 114 8 c 0
 114 9 118 15 113 15 c 0
 108 15 114 13 109 13 c 0
 105 13 103 20 100 21 c 0
 99 26 97 31 93 35 c 0
 61 67 43 125 48 152 c 0
 47 154 45 158 44 160 c 0
 44 171 41 185 40 197 c 0
 39 209 40 220 35 234 c 1
 37 241 34 247 34 254 c 0x1e80
 33 265 29 285 29 290 c 2
 29 334 l 2
 29 338 35 361 37 373 c 0
 39 390 32 385 32 395 c 2
 32 465 l 2
 32 469 38 474 39 477 c 0
 45 493 36 495 36 502 c 0
 36 507 40 510 40 517 c 0
 42 518 44 520 45 521 c 0
 45 523 44 524 42 525 c 0
 41 528 42 535 43 540 c 0
 43 541 40 544 40 549 c 0
 40 553 45 590 48 608 c 0
 48 612 54 616 58 619 c 1
 56 660 85 681 105 710 c 1
 113 714 125 719 135 726 c 0x4e80
 140 729 152 744 157 744 c 0
 161 744 160 742 166 742 c 0
 170 742 171 745 174 746 c 0
 178 748 185 754 192 756 c 0
 200 759 211 761 220 763 c 0
 231 765 251 770 255 770 c 0
 259 770 299 766 319 762 c 0
 323 761 327 760 330 758 c 0
 334 756 335 751 339 748 c 0
 367 747 399 711 420 679 c 0
 424 673 429 660 432 651 c 0
 434 642 435 624 436 614 c 0
 438 606 444 595 444 586 c 0
 444 564 447 522 447 518 c 2
 447 469 l 2
 447 466 440 460 440 456 c 0
 440 443 439 423 437 406 c 0
 437 403 439 397 439 393 c 0
 438 383 431 362 430 349 c 0
 429 342 429 334 428 326 c 0
 427 323 423 317 422 312 c 0x2e80
 420 303 423 291 422 280 c 0x1d80
 421 278 419 275 419 273 c 0
 420 270 416 263 416 258 c 0
 416 254 420 249 419 245 c 0
 418 237 414 230 411 223 c 1
 414 217 412 211 412 204 c 1
 401 191 406 176 405 162 c 0
 404 152 398 134 396 123 c 0
 395 122 391 119 389 117 c 0
 388 113 388 109 384 108 c 0
 384 104 386 100 385 97 c 0
 379 87 373 77 367 69 c 1
 375 64 400 55 404 55 c 0
 408 55 435 59 440 59 c 0
 448 59 458 52 458 45 c 0
EndSplineSet
Validated: 37
EndChar

StartChar: r
Encoding: 114 114 81
Width: 297
Flags: MW
HStem: -14 21G<62 66.5> -10 21G -3 35<219 243> 0 21G<199 200> 430 28 736 46<82 159>
VStem: 27 42<100 107 107 109> 44 40 242 50<593 594>
LayerCount: 2
Fore
SplineSet
242 591 m 0x2d80
 242 597 236 592 241 609 c 1
 236 622 237 640 236 650 c 0
 234 667 225 683 219 695 c 0
 210 710 179 736 150 736 c 0
 146 736 111 736 82 736 c 1
 79 721 77 701 77 696 c 0
 77 692 79 688 82 686 c 0
 81 637 83 587 84 537 c 0
 85 504 85 468 85 434 c 1
 109 448 137 445 158 449 c 0
 161 450 166 457 169 458 c 0
 172 458 177 458 181 461 c 0
 182 462 184 466 186 467 c 0
 200 473 213 491 218 505 c 0
 220 507 223 511 225 513 c 0
 229 533 235 553 241 572 c 0
 242 576 242 586 242 591 c 0x2d80
292 595 m 0
 292 591 289 576 288 565 c 2
 288 565 288 563 289 561 c 0
 288 557 288 551 288 546 c 0
 285 533 281 518 275 504 c 0
 275 502 275 500 275 498 c 0
 270 488 260 477 250 471 c 0
 247 468 249 462 247 457 c 0
 242 447 232 438 219 431 c 0
 215 429 206 431 201 430 c 0
 199 427 197 421 193 420 c 0
 179 415 154 406 149 406 c 0
 145 406 139 406 134 408 c 0
 132 406 131 406 131 402 c 0
 131 398 142 378 144 367 c 0
 148 347 157 320 158 304 c 0
 158 297 164 286 165 280 c 0
 167 268 171 252 173 237 c 0
 176 206 177 174 180 143 c 0
 181 138 185 130 186 122 c 0
 188 102 190 82 200 61 c 0
 201 59 208 34 217 34 c 0
 221 34 236 32 241 32 c 0
 245 32 251 36 256 36 c 0
 260 36 263 31 265 27 c 1
 265 27 267 29 267 30 c 1
 268 29 270 29 270 24 c 0
 270 19 268 21 268 20 c 0
 268 18 254 -1 249 -1 c 0
 245 -1 225 -3 221 -3 c 0
 217 -3 208 -2 200 0 c 0
 198 0 195 4 192 6 c 0
 188 9 181 9 174 15 c 0
 167 20 163 27 159 35 c 0
 157 40 157 48 156 55 c 0
 152 59 146 65 148 72 c 1
 144 77 141 89 146 95 c 1
 140 109 133 131 133 136 c 0
 133 140 133 154 136 161 c 0
 137 165 140 168 142 172 c 1
 122 189 123 199 128 213 c 0
 127 217 125 220 124 224 c 2x2d80
 124 224 124 227 126 228 c 0
 130 229 125 231 126 233 c 0
 125 237 127 241 128 244 c 0
 125 250 124 255 124 261 c 1
 113 266 119 286 115 294 c 0
 112 302 108 313 106 324 c 0
 106 327 107 333 106 337 c 0
 105 344 100 353 98 359 c 0
 96 366 98 376 96 383 c 0
 94 387 93 387 89 392 c 0
 87 392 85 389 85 385 c 0x1d80
 82 359 84 313 78 282 c 0
 79 280 81 278 81 276 c 0
 81 274 79 272 78 270 c 0x8e80
 74 228 72 182 69 131 c 0
 70 120 70 109 69 100 c 0
 72 90 73 80 67 70 c 1
 74 49 69 14 70 -10 c 0
 68 -11 69 -14 64 -14 c 0
 60 -14 52 -12 46 -11 c 1
 43 -5 36 4 34 11 c 0
 35 18 37 28 36 37 c 0x4d80
 35 45 31 54 27 63 c 1
 27 107 l 2
 27 111 31 130 33 144 c 0
 31 150 29 156 29 160 c 0
 29 164 31 168 31 172 c 0
 31 181 31 194 33 202 c 0
 34 206 40 210 40 213 c 0
 40 218 33 224 33 229 c 0
 33 233 42 272 48 294 c 0
 46 296 44 296 40 296 c 1
 40 307 l 2
 40 311 47 328 46 337 c 0
 45 348 42 369 42 374 c 0
 42 379 49 423 49 428 c 0
 49 432 44 440 44 445 c 2
 44 600 l 1
 38 606 38 614 38 622 c 0
 37 630 38 643 38 652 c 0
 38 658 35 671 35 676 c 2
 35 720 l 2
 35 724 38 748 37 761 c 0
 40 765 45 770 48 770 c 0
 83 777 152 782 157 782 c 0x4e80
 161 782 187 771 192 771 c 0
 197 771 191 773 196 773 c 0
 199 773 216 761 224 756 c 0
 227 754 230 750 232 746 c 0
 234 745 236 745 238 744 c 0
 242 742 246 736 249 731 c 0
 249 730 251 726 252 722 c 0
 253 721 255 721 256 720 c 0
 262 714 269 702 274 691 c 0
 278 681 281 665 284 655 c 0
 288 635 292 600 292 595 c 0
EndSplineSet
Validated: 33
EndChar

StartChar: s
Encoding: 115 115 82
Width: 342
Flags: MW
HStem: 18 34<155.5 170.5 155.5 202> 731 46<211 215>
VStem: 26 61<570 601 554.5 603 597.5 601 554.5 603> 61 16 259 49<660 686> 260 60
LayerCount: 2
Fore
SplineSet
324 188 m 0xd4
 324 184 320 182 318 178 c 0
 319 177 317 173 317 169 c 0
 325 137 312 123 308 91 c 1
 302 83 292 70 283 58 c 0
 271 47 258 35 239 24 c 0
 229 19 206 18 202 18 c 0
 197 18 173 18 168 18 c 0
 164 18 146 24 141 24 c 0
 137 24 139 20 133 20 c 0
 128 20 128 24 124 24 c 0xd4
 119 24 119 22 115 22 c 0
 111 22 90 31 78 39 c 0
 75 42 66 49 61 52 c 0
 54 58 45 69 41 78 c 0
 39 83 39 92 39 100 c 1
 39 100 41 98 43 98 c 0
 44 105 40 107 37 113 c 0
 33 124 28 144 28 149 c 0
 28 153 32 162 32 167 c 0
 33 179 30 192 32 203 c 0
 33 214 37 227 37 240 c 0
 40 244 43 255 42 259 c 1
 48 261 55 263 61 263 c 0
 63 266 61 274 63 276 c 0
 74 274 75 251 79 245 c 1
 76 213 78 175 77 140 c 0
 80 129 81 116 82 105 c 1
 82 105 83 103 84 101 c 0
 86 90 93 73 105 67 c 0
 115 61 150 52 161 52 c 0
 165 52 198 56 209 61 c 0
 221 67 234 78 244 90 c 0
 251 100 255 117 262 132 c 0
 261 136 260 138 260 141 c 0
 260 145 262 151 263 156 c 0
 267 178 261 195 268 212 c 1
 258 218 259 235 263 247 c 1
 256 261 261 274 258 287 c 0
 253 313 234 334 220 354 c 0
 215 361 192 364 187 373 c 1
 176 376 157 387 153 387 c 0
 148 387 152 385 147 385 c 0
 143 385 109 398 93 404 c 0
 89 405 87 414 84 417 c 0
 82 420 50 428 61 445 c 0
 59 447 58 448 56 449 c 0
 49 448 36 464 35 469 c 0
 35 471 37 474 36 478 c 0
 35 480 33 484 32 486 c 0
 32 493 29 502 29 510 c 0
 28 530 26 565 26 570 c 0
 26 574 26 592 26 603 c 1
 30 608 33 615 33 620 c 0
 33 625 28 629 26 632 c 1
 32 636 35 652 39 662 c 0
 40 665 46 670 47 673 c 0
 50 680 50 691 56 699 c 0
 58 702 63 705 66 707 c 0
 67 709 66 712 67 714 c 0
 87 740 117 759 134 763 c 0
 135 763 138 768 141 769 c 0
 156 774 182 779 187 779 c 0
 191 779 195 776 200 776 c 0
 204 776 205 777 210 777 c 0
 238 777 291 743 293 721 c 0
 293 718 304 706 306 697 c 0
 307 694 308 688 308 684 c 0
 308 678 303 671 306 664 c 0xe8
 307 660 313 654 313 650 c 0
 313 646 309 632 306 623 c 0
 307 618 311 607 311 603 c 2
 311 539 l 2
 308 533 304 524 296 519 c 0
 293 517 286 516 281 516 c 0
 277 516 269 520 265 520 c 0
 254 520 240 536 240 537 c 0
 240 541 244 544 245 545 c 0
 250 584 259 658 259 662 c 0
 259 666 257 685 256 695 c 0
 256 699 253 706 249 711 c 0
 246 715 240 722 232 727 c 0
 227 730 217 731 213 731 c 0
 209 731 185 729 171 723 c 0
 166 721 159 713 150 708 c 0
 144 704 137 698 129 690 c 0
 124 685 116 677 111 669 c 0
 105 657 98 643 93 632 c 0
 90 626 87 612 87 601 c 0
 87 587 87 571 87 556 c 0
 87 553 82 547 82 543 c 0
 82 534 83 524 84 515 c 1
 83 515 79 515 79 510 c 0
 79 506 91 483 95 473 c 0
 97 470 94 466 95 462 c 0
 103 453 112 446 118 443 c 0
 123 442 128 441 132 440 c 0
 133 438 133 437 134 435 c 0
 145 433 157 432 168 429 c 0
 185 423 205 413 221 408 c 0
 227 407 231 399 236 396 c 0
 268 383 288 353 293 327 c 0
 294 325 298 321 299 320 c 0
 301 312 307 297 309 286 c 1
 306 278 310 272 311 267 c 0
 311 258 313 247 310 236 c 1
 313 230 316 225 317 219 c 0
 317 214 320 205 321 199 c 0
 322 195 324 192 324 188 c 0xd4
EndSplineSet
Validated: 33
EndChar

StartChar: t
Encoding: 116 116 83
Width: 392
Flags: MW
HStem: -12 21G 0 21G 730 45<26 49.5 59.5 64 26 133> 755 55<314 333>
VStem: 173 60 179 46<327 371> 184 36<96 300>
LayerCount: 2
Fore
SplineSet
381 780 m 0x62
 381 776 379 771 376 768 c 0
 356 763 345 755 321 755 c 0
 317 755 316 756 312 756 c 0
 308 756 263 749 238 743 c 0
 233 742 226 738 226 731 c 0
 226 727 227 728 228 726 c 0
 230 719 229 710 230 704 c 0
 232 674 237 651 233 615 c 1x64
 234 614 l 1
 232 611 l 1
 235 599 236 577 233 561 c 0
 230 544 238 521 228 509 c 0
 227 507 229 504 230 502 c 0
 230 496 228 491 224 485 c 1
 228 472 228 459 227 448 c 0
 225 413 225 372 225 330 c 0
 225 324 220 305 220 300 c 2
 220 117 l 2
 222 111 224 100 222 93 c 0
 224 91 225 91 227 91 c 1
 227 66 l 1
 223 61 223 56 224 52 c 0x62
 214 43 226 26 225 13 c 0
 224 5 222 -3 220 -12 c 1
 204 -9 205 -17 198 -17 c 1xa4
 196 -12 189 -4 182 0 c 0
 182 4 179 16 179 20 c 0
 179 25 185 52 186 69 c 0
 186 72 184 75 184 80 c 0
 185 82 189 81 189 86 c 0
 189 90 184 94 184 98 c 0
 184 106 183 115 185 120 c 0xa2
 182 128 179 127 176 133 c 1
 178 142 178 155 180 163 c 0x62
 177 182 178 226 180 257 c 0x68
 180 261 177 264 176 268 c 0
 174 279 180 291 179 302 c 0
 178 307 175 313 174 318 c 0
 174 322 177 328 177 331 c 0
 177 340 179 350 179 359 c 0
 179 383 175 407 175 431 c 0
 175 436 174 444 173 452 c 0
 173 455 174 461 174 464 c 2
 172 467 l 2
 172 471 176 468 176 470 c 0
 176 472 174 476 172 477 c 0
 174 494 179 524 179 529 c 0x62
 179 533 176 541 176 546 c 0
 175 567 175 592 177 611 c 0x68
 178 627 174 681 173 727 c 0
 171 732 167 735 164 735 c 0
 156 736 146 736 141 736 c 0
 137 736 138 730 133 730 c 0
 128 730 52 730 47 730 c 0x62
 39 730 13 750 13 760 c 0
 13 769 24 775 28 775 c 0
 33 775 35 771 40 771 c 0
 44 771 57 775 62 775 c 0
 66 775 85 782 90 782 c 0x68
 94 782 92 780 97 780 c 0
 101 780 107 784 113 785 c 0
 138 790 168 795 195 796 c 0
 201 796 212 796 219 798 c 0
 227 799 237 804 241 804 c 0
 246 804 246 801 251 801 c 0
 255 801 256 804 256 805 c 0x52
 274 806 312 810 316 810 c 0
 320 810 335 806 343 806 c 0
 345 805 345 799 349 799 c 0
 353 799 353 801 358 801 c 0
 368 801 381 792 381 780 c 0x62
EndSplineSet
Validated: 33
EndChar

StartChar: u
Encoding: 117 117 84
Width: 367
Flags: MW
HStem: -9 40 0 31<100.5 128.5>
VStem: 31 39<145 210> 54 37 285 44 313 41<648.5 690> 315 35
LayerCount: 2
Fore
SplineSet
354 688 m 0x98
 354 676 345 649 351 629 c 0
 352 626 350 619 350 616 c 0x98
 350 606 348 594 347 588 c 0
 345 569 345 543 342 521 c 0
 341 520 339 519 338 517 c 2
 338 517 339 516 341 514 c 0
 339 501 339 488 337 475 c 0x68
 339 470 339 464 339 459 c 0
 339 455 337 442 336 436 c 0
 334 426 336 411 335 401 c 0
 335 397 329 391 329 388 c 0
 330 365 332 343 331 321 c 0
 330 314 328 303 327 293 c 0
 325 278 329 260 327 243 c 0
 326 234 322 214 322 203 c 0
 321 202 319 198 316 196 c 0
 315 191 320 186 319 180 c 0
 317 158 312 132 309 108 c 1x98
 309 108 308 108 306 106 c 0
 305 104 308 100 310 97 c 1
 308 97 306 95 305 93 c 0
 303 84 298 68 294 56 c 0
 289 43 277 29 264 17 c 0
 261 14 252 12 246 8 c 0
 241 5 226 -9 211 -9 c 0
 206 -9 142 -8 138 -8 c 0
 133 -8 118 2 114 2 c 0
 110 2 113 0 109 0 c 0
 92 0 83 15 83 15 c 2
 78 15 84 13 79 13 c 0
 75 13 53 35 44 45 c 0
 43 47 43 50 42 52 c 0
 42 55 34 59 33 63 c 0
 31 68 29 77 29 82 c 0
 28 97 25 121 28 138 c 0
 29 150 30 143 25 147 c 0
 27 150 29 157 29 162 c 0
 29 169 32 180 32 188 c 0
 32 193 31 198 31 208 c 0
 31 212 34 215 34 219 c 0
 35 228 35 239 36 251 c 0
 37 254 35 259 36 262 c 0
 37 264 41 265 41 269 c 0
 41 274 34 300 34 304 c 0
 34 308 36 319 38 325 c 0
 39 337 38 358 41 368 c 0
 41 371 38 374 38 378 c 0
 38 383 45 401 51 412 c 0
 49 415 43 418 43 423 c 0
 43 427 47 447 45 458 c 0xa8
 47 460 49 462 51 464 c 0
 49 467 47 471 45 474 c 0
 45 476 47 480 47 482 c 0
 45 492 47 505 47 516 c 0
 48 528 43 550 43 554 c 0
 43 559 45 556 45 558 c 0
 43 567 43 575 52 586 c 1
 52 586 51 587 49 587 c 1
 49 591 51 597 52 603 c 0
 52 604 51 608 49 610 c 0
 49 615 50 618 52 625 c 0
 50 628 47 635 47 640 c 0
 47 643 51 650 52 656 c 0
 53 686 54 742 54 747 c 0
 54 756 47 760 47 765 c 0
 47 776 58 785 63 785 c 0
 77 785 89 768 91 754 c 0
 89 667 89 665 90 664 c 0
 88 659 91 649 84 643 c 0
 84 641 86 638 86 634 c 0
 86 630 85 623 85 617 c 0
 85 616 86 612 86 608 c 0
 86 603 88 595 87 590 c 0
 88 588 86 585 84 584 c 0
 84 582 86 578 86 577 c 0x94
 82 547 91 498 81 480 c 0
 80 478 82 477 83 477 c 1
 81 468 80 456 79 447 c 0
 80 445 80 442 81 440 c 0
 81 425 78 408 77 393 c 0
 76 391 75 389 74 388 c 0
 75 351 73 297 73 251 c 0
 71 237 70 217 70 199 c 0
 70 182 69 164 70 145 c 0
 69 140 65 131 65 127 c 0
 65 122 69 105 70 97 c 0
 71 94 69 90 69 86 c 0
 76 82 77 68 81 60 c 0
 86 50 95 51 102 47 c 0
 107 44 113 40 115 35 c 0
 118 35 122 31 126 31 c 0
 131 31 176 29 180 29 c 0
 184 29 185 33 188 34 c 0
 194 36 201 37 207 37 c 0
 209 38 209 42 212 46 c 0
 215 48 221 51 226 55 c 0
 227 57 229 61 229 62 c 0
 232 64 239 68 241 73 c 0
 247 93 255 118 261 140 c 0
 262 143 262 149 260 153 c 1
 268 158 263 159 265 166 c 0
 265 169 269 174 270 177 c 0
 274 186 273 203 276 218 c 0
 276 219 277 223 279 225 c 0
 279 236 278 250 278 260 c 0x92
 278 271 281 292 284 308 c 0
 285 312 282 315 281 319 c 0
 284 326 285 336 286 345 c 0
 287 355 283 372 284 382 c 0
 285 386 289 391 291 397 c 0
 292 403 289 414 289 421 c 0
 299 442 293 469 296 491 c 0
 300 495 301 501 303 506 c 0
 302 516 300 530 307 538 c 1
 308 553 310 570 314 584 c 0
 316 588 321 590 325 592 c 1
 323 601 317 612 316 621 c 0
 314 630 313 646 313 651 c 0
 313 661 318 689 321 694 c 0
 321 696 320 705 325 710 c 1
 309 710 316 729 312 738 c 1
 318 744 315 759 315 767 c 0x94
 315 771 319 789 318 797 c 0
 321 801 328 809 332 809 c 0
 337 809 341 807 345 807 c 0
 346 801 350 794 350 790 c 0
 350 785 349 765 347 754 c 0
 347 751 343 748 343 743 c 0
 343 739 345 742 346 741 c 0
 345 733 344 723 345 714 c 0
 347 706 354 692 354 688 c 0x98
EndSplineSet
Validated: 33
EndChar

